<?xml version="1.0" encoding="UTF-8" standalone="no"?>
<svg
   version="1.1"
   x="0px"
   y="0px"
   viewBox="0 0 595.28 260.79"
   style="enable-background:new 0 0 595.28 260.79;"
   xml:space="preserve"
   id="svg1991"
   sodipodi:docname="octo.svg"
   inkscape:version="1.3.2 (091e20e, 2023-11-25)"
   inkscape:export-filename="/Users/csabourdin/Documents/projets/personnel/projets/site/parisjug/website/src/site/resources/images/sponsors/2022/sciam.png"
   inkscape:export-xdpi="19.101164"
   inkscape:export-ydpi="19.101164"
   xmlns:inkscape="http://www.inkscape.org/namespaces/inkscape"
   xmlns:sodipodi="http://sodipodi.sourceforge.net/DTD/sodipodi-0.dtd"
   xmlns="http://www.w3.org/2000/svg"
   xmlns:svg="http://www.w3.org/2000/svg"
   xmlns:rdf="http://www.w3.org/1999/02/22-rdf-syntax-ns#"
   xmlns:cc="http://creativecommons.org/ns#"
   xmlns:dc="http://purl.org/dc/elements/1.1/"><metadata
     id="metadata1997"><rdf:RDF><cc:Work
         rdf:about=""><dc:format>image/svg+xml</dc:format><dc:type
           rdf:resource="http://purl.org/dc/dcmitype/StillImage" /></cc:Work></rdf:RDF></metadata><defs
     id="defs1995"><clipPath
       id="clip0"><rect
         width="110"
         height="116"
         fill="white"
         id="rect834" /></clipPath><style
       id="style1">
      .cls-1 {
        fill: #e4ba6e;
      }

      .cls-2 {
        fill: #fff;
      }

      .cls-3 {
        fill: #2055a7;
      }
    </style></defs><sodipodi:namedview
     pagecolor="#ffffff"
     bordercolor="#666666"
     borderopacity="1"
     objecttolerance="10"
     gridtolerance="10"
     guidetolerance="10"
     inkscape:pageopacity="0"
     inkscape:pageshadow="2"
     inkscape:window-width="1728"
     inkscape:window-height="1052"
     id="namedview1993"
     showgrid="false"
     inkscape:zoom="1.1575153"
     inkscape:cx="311.01101"
     inkscape:cy="110.14973"
     inkscape:window-x="0"
     inkscape:window-y="65"
     inkscape:window-maximized="0"
     inkscape:current-layer="layer2"
     inkscape:document-rotation="0"
     inkscape:pagecheckerboard="0"
     inkscape:showpageshadow="2"
     inkscape:deskcolor="#d1d1d1" /><g
     inkscape:groupmode="layer"
     id="layer2"
     inkscape:label="octo"><g
       id="g1"
       transform="matrix(1.0033615,0,0,1.0033615,168.35638,0.55319472)"
       style="display:inline"><path
         id="path1"
         d="M 2.59766,1933.23 H 1930.16 V 5.66797 H 2.59766 V 1933.23"
         style="fill:#ffffff;fill-opacity:1;fill-rule:evenodd;stroke:none"
         transform="matrix(0.13333333,0,0,-0.13333333,0,258.66667)" /><path
         id="path2"
         d="m 1122.86,731.371 c 0,85.602 -69.54,157.828 -157.821,157.828 -85.598,0 -157.824,-72.226 -157.824,-157.828 H 657.414 c 0,168.527 139.102,307.629 307.625,307.629 171.201,0 307.631,-139.102 307.631,-307.629 h -149.81"
         style="fill:#d8e7f5;fill-opacity:1;fill-rule:evenodd;stroke:none"
         transform="matrix(0.13333333,0,0,-0.13333333,0,258.66667)" /><path
         id="path3"
         d="m 1272.67,1360 c 0,-171.2 -136.43,-307.62 -307.631,-307.62 -168.523,0 -307.625,136.42 -307.625,307.62 h 149.801 c 0,-88.28 72.226,-157.83 157.824,-157.83 88.281,0 157.821,69.55 157.821,157.83 h 149.81"
         style="fill:#d8e7f5;fill-opacity:1;fill-rule:evenodd;stroke:none"
         transform="matrix(0.13333333,0,0,-0.13333333,0,258.66667)" /><path
         id="path4"
         d="m 965.039,1239.63 c 50.831,0 93.621,40.12 93.621,90.94 0,53.5 -42.79,93.63 -93.621,93.63 -50.824,0 -90.949,-40.13 -90.949,-93.63 0,-50.82 40.125,-90.94 90.949,-90.94"
         style="fill:#d8e7f5;fill-opacity:1;fill-rule:evenodd;stroke:none"
         transform="matrix(0.13333333,0,0,-0.13333333,0,258.66667)" /><path
         id="path5"
         d="m 494.238,768.82 -16.047,26.75 10.7,8.028 53.5,-85.602 -10.703,-5.348 -18.723,26.75 -98.977,-61.527 -16.05,29.426 96.3,61.523"
         style="fill:#284d99;fill-opacity:1;fill-rule:evenodd;stroke:none"
         transform="matrix(0.13333333,0,0,-0.13333333,0,258.66667)" /><path
         id="path6"
         d="m 520.988,675.195 c 8.028,8.024 29.426,-2.672 48.153,-21.398 18.722,-21.402 29.425,-42.801 21.398,-50.824 l -29.426,-26.75 -45.476,48.148 -21.399,-24.074 21.399,-21.399 10.703,8.024 24.074,-24.074 -5.348,-5.352 c -8.027,-8.027 -32.101,2.676 -50.828,21.402 -18.722,21.399 -29.425,42.801 -21.398,50.825 z m 5.352,-42.8 21.402,-24.075 24.074,24.075 -24.074,21.402 -21.402,-21.402"
         style="fill:#284d99;fill-opacity:1;fill-rule:evenodd;stroke:none"
         transform="matrix(0.13333333,0,0,-0.13333333,0,258.66667)" /><path
         id="path7"
         d="m 670.789,471.895 c -5.348,-10.7 -29.426,-5.348 -53.5,8.023 -24.074,16.051 -37.449,34.777 -32.101,45.477 l 34.777,53.503 c 5.348,10.696 29.426,5.348 53.5,-8.027 24.074,-16.051 37.449,-34.773 32.101,-42.801 l -5.351,-8.023 -26.75,18.723 5.351,10.699 -26.753,18.726 -40.122,-66.875 26.75,-16.047 8.024,10.696 26.75,-18.723 -2.676,-5.351"
         style="fill:#284d99;fill-opacity:1;fill-rule:evenodd;stroke:none"
         transform="matrix(0.13333333,0,0,-0.13333333,0,258.66667)" /><path
         id="path8"
         d="m 753.715,552.148 32.098,-8.027 -8.024,-26.75 32.102,-8.023 c 16.05,-8.028 29.425,-16.051 26.75,-24.075 l -29.426,-85.601 -29.426,10.699 26.75,85.598 -32.098,10.703 -26.75,-85.602 -32.101,10.7 40.125,120.378"
         style="fill:#284d99;fill-opacity:1;fill-rule:evenodd;stroke:none"
         transform="matrix(0.13333333,0,0,-0.13333333,0,258.66667)" /><path
         id="path9"
         d="m 874.09,490.621 66.875,-5.348 c 16.051,0 32.101,-8.027 32.101,-16.05 l -8.027,-88.278 -32.098,2.676 5.348,88.274 -32.098,2.675 -8.027,-88.277 -32.098,2.676 8.024,101.652"
         style="fill:#284d99;fill-opacity:1;fill-rule:evenodd;stroke:none"
         transform="matrix(0.13333333,0,0,-0.13333333,0,258.66667)" /><path
         id="path10"
         d="m 1010.52,466.547 c -2.68,10.699 18.72,24.074 45.47,26.75 26.75,5.348 50.83,0 53.5,-10.703 l 8.03,-64.196 c 2.67,-10.703 -18.73,-24.078 -45.48,-29.429 -26.75,-2.676 -50.82,2.676 -50.82,13.375 z m 42.8,-64.203 32.1,5.351 -10.71,74.899 -32.09,-5.348 10.7,-74.902"
         style="fill:#284d99;fill-opacity:1;fill-rule:evenodd;stroke:none"
         transform="matrix(0.13333333,0,0,-0.13333333,0,258.66667)" /><path
         id="path11-9"
         d="m 1128.21,536.098 c 8.03,2.672 18.73,5.347 24.08,5.347 8.03,0 10.7,-2.675 13.37,-5.347 l 37.46,-109.676 -32.1,-10.703 -42.81,120.379"
         style="fill:#284d99;fill-opacity:1;fill-rule:evenodd;stroke:none"
         transform="matrix(0.13333333,0,0,-0.13333333,0,258.66667)" /><path
         id="path12"
         d="m 1211.14,517.371 c -5.35,10.699 10.7,29.422 34.78,42.801 24.07,13.375 48.15,18.726 53.5,8.023 l 32.1,-56.172 c 5.35,-10.703 -10.7,-29.429 -34.78,-42.8 -24.07,-13.379 -48.15,-16.055 -53.5,-8.028 z m 64.2,-42.801 29.43,16.051 -37.45,66.875 -29.43,-18.726 37.45,-64.2"
         style="fill:#284d99;fill-opacity:1;fill-rule:evenodd;stroke:none"
         transform="matrix(0.13333333,0,0,-0.13333333,0,258.66667)" /><path
         id="path13-9"
         d="m 1401.07,525.395 42.8,40.125 -8.03,10.703 -24.07,-24.075 c -13.38,-10.703 -29.43,-18.726 -34.78,-13.378 l -48.15,53.5 c -8.02,8.027 2.68,29.429 21.4,48.152 21.4,18.723 42.8,26.75 50.83,18.723 l 66.87,-69.551 c 5.35,-5.348 -2.67,-18.723 -16.05,-32.098 l -42.8,-40.125 z m 0,37.453 24.07,24.074 -50.82,53.5 -24.08,-21.402 50.83,-56.172"
         style="fill:#284d99;fill-opacity:1;fill-rule:evenodd;stroke:none"
         transform="matrix(0.13333333,0,0,-0.13333333,0,258.66667)" /><path
         id="path14-9"
         d="m 1572.27,712.648 -18.73,-26.753 -21.4,13.375 -18.72,-26.747 c -8.03,-16.054 -21.4,-26.75 -29.43,-21.402 l -74.9,48.149 18.73,29.425 74.9,-50.824 18.72,29.426 -74.9,48.148 18.73,29.426 107,-72.223"
         style="fill:#284d99;fill-opacity:1;fill-rule:evenodd;stroke:none"
         transform="matrix(0.13333333,0,0,-0.13333333,0,258.66667)" /><path
         id="path15-1"
         d="m 191.965,1044.35 c 0,107 88.273,195.28 195.273,195.28 107,0 195.274,-88.28 195.274,-195.28 0,-107.002 -88.274,-195.276 -195.274,-195.276 -107,0 -195.273,88.274 -195.273,195.276 z m 195.273,-98.979 c 53.5,0 98.977,45.477 98.977,98.979 0,56.17 -45.477,101.65 -98.977,101.65 -56.175,0 -101.648,-45.48 -101.648,-101.65 0,-53.502 45.473,-98.979 101.648,-98.979"
         style="fill:#284d99;fill-opacity:1;fill-rule:evenodd;stroke:none"
         transform="matrix(0.13333333,0,0,-0.13333333,0,258.66667)" /><path
         id="path16-7"
         d="m 1031.91,1231.6 h 280.88 v -96.3 h -90.95 V 857.098 h -96.3 V 1135.3 h -93.63 v 96.3"
         style="fill:#284d99;fill-opacity:1;fill-rule:evenodd;stroke:none"
         transform="matrix(0.13333333,0,0,-0.13333333,0,258.66667)" /><path
         id="path17-2"
         d="m 1352.92,1044.35 c 0,109.67 88.27,195.28 195.27,195.28 107,0 195.28,-85.61 195.28,-195.28 0,-107.002 -88.28,-195.276 -195.28,-195.276 -107,0 -195.27,88.274 -195.27,195.276 z m 195.27,-98.979 c 53.5,0 98.98,45.477 98.98,98.979 0,56.17 -45.48,101.65 -98.98,101.65 -56.17,0 -101.65,-45.48 -101.65,-101.65 0,-53.502 45.48,-98.979 101.65,-98.979"
         style="fill:#284d99;fill-opacity:1;fill-rule:evenodd;stroke:none"
         transform="matrix(0.13333333,0,0,-0.13333333,0,258.66667)" /><path
         id="path18"
         d="M 87.6367,1095.18 170.563,1044.35 87.6367,996.195 Z"
         style="fill:#284d99;fill-opacity:1;fill-rule:evenodd;stroke:none"
         transform="matrix(0.13333333,0,0,-0.13333333,0,258.66667)" /><path
         id="path19-3"
         d="m 1845.12,996.195 -82.92,48.155 82.92,48.15 z"
         style="fill:#284d99;fill-opacity:1;fill-rule:evenodd;stroke:none"
         transform="matrix(0.13333333,0,0,-0.13333333,0,258.66667)" /><path
         id="path20"
         d="m 908.867,1108.55 c -18.726,21.4 -45.476,37.45 -77.578,37.45 -53.5,0 -98.973,-45.48 -98.973,-101.65 0,-53.502 45.473,-98.979 98.973,-98.979 32.102,0 58.852,13.379 77.578,34.777 l 66.875,-66.875 c -37.453,-40.125 -88.277,-64.199 -144.453,-64.199 -107,0 -195.273,88.274 -195.273,195.276 0,109.67 88.273,195.28 195.273,195.28 56.176,0 107,-24.08 144.453,-61.53 l -66.875,-69.55"
         style="fill:#284d99;fill-opacity:1;fill-rule:evenodd;stroke:none"
         transform="matrix(0.13333333,0,0,-0.13333333,0,258.66667)" /><path
         id="path21"
         d="m 965.039,602.973 c -160.5,0 -302.273,88.273 -379.851,216.672 h -80.247 c 82.922,-171.2 256.797,-286.223 460.098,-286.223 203.301,0 377.181,115.023 460.101,286.223 h -80.25 C 1267.32,691.246 1128.21,602.973 965.039,602.973"
         style="fill:#d8e7f5;fill-opacity:1;fill-rule:evenodd;stroke:none"
         transform="matrix(0.13333333,0,0,-0.13333333,0,258.66667)" /><path
         id="path22"
         d="m 965.039,1485.73 c 163.171,0 302.281,-85.6 379.851,-216.68 h 80.25 c -82.92,171.2 -256.8,288.9 -460.101,288.9 -203.301,0 -377.176,-117.7 -460.098,-288.9 h 80.247 c 77.578,131.08 219.351,216.68 379.851,216.68"
         style="fill:#d8e7f5;fill-opacity:1;fill-rule:evenodd;stroke:none"
         transform="matrix(0.13333333,0,0,-0.13333333,0,258.66667)" /></g></g><style
     type="text/css"
     id="style1076">
	.st0{fill:#66D8D0;}
</style></svg>
