<?xml version="1.0" encoding="UTF-8" standalone="no"?>
<svg
   version="1.1"
   x="0px"
   y="0px"
   viewBox="0 0 595.28 260.79"
   style="enable-background:new 0 0 595.28 260.79;"
   xml:space="preserve"
   id="svg1991"
   sodipodi:docname="oxiane_2024_v3.svg"
   inkscape:version="1.3.2 (091e20e, 2023-11-25)"
   inkscape:export-filename="/Users/csabourdin/Documents/projets/personnel/projets/site/parisjug/website/src/site/resources/images/sponsors/2022/sciam.png"
   inkscape:export-xdpi="19.101164"
   inkscape:export-ydpi="19.101164"
   xmlns:inkscape="http://www.inkscape.org/namespaces/inkscape"
   xmlns:sodipodi="http://sodipodi.sourceforge.net/DTD/sodipodi-0.dtd"
   xmlns="http://www.w3.org/2000/svg"
   xmlns:svg="http://www.w3.org/2000/svg"
   xmlns:rdf="http://www.w3.org/1999/02/22-rdf-syntax-ns#"
   xmlns:cc="http://creativecommons.org/ns#"
   xmlns:dc="http://purl.org/dc/elements/1.1/"><metadata
     id="metadata1997"><rdf:RDF><cc:Work
         rdf:about=""><dc:format>image/svg+xml</dc:format><dc:type
           rdf:resource="http://purl.org/dc/dcmitype/StillImage" /></cc:Work></rdf:RDF></metadata><defs
     id="defs1995"><clipPath
       id="clip0"><rect
         width="110"
         height="116"
         fill="white"
         id="rect834" /></clipPath><style
       id="style1">
      .cls-1 {
        fill: #e4ba6e;
      }

      .cls-2 {
        fill: #fff;
      }

      .cls-3 {
        fill: #2055a7;
      }
    </style></defs><sodipodi:namedview
     pagecolor="#ffffff"
     bordercolor="#666666"
     borderopacity="1"
     objecttolerance="10"
     gridtolerance="10"
     guidetolerance="10"
     inkscape:pageopacity="0"
     inkscape:pageshadow="2"
     inkscape:window-width="1584"
     inkscape:window-height="992"
     id="namedview1993"
     showgrid="false"
     inkscape:zoom="1.1575153"
     inkscape:cx="174.51173"
     inkscape:cy="56.586725"
     inkscape:window-x="106"
     inkscape:window-y="72"
     inkscape:window-maximized="0"
     inkscape:current-layer="layer1"
     inkscape:document-rotation="0"
     inkscape:pagecheckerboard="0"
     inkscape:showpageshadow="2"
     inkscape:deskcolor="#d1d1d1" /><g
     inkscape:groupmode="layer"
     id="layer1"
     inkscape:label="oxiane"><g
       id="g20"
       transform="matrix(1.1126583,0,0,1.1126583,2.13466,17.999826)"><g
         id="g17"><rect
           class="cls-3"
           y="1.39"
           width="230.2"
           height="139.66"
           rx="14.83"
           ry="14.83"
           id="rect10"
           x="0" /><rect
           class="cls-3"
           x="0.050000001"
           y="171.96001"
           width="7.25"
           height="29.77"
           id="rect11" /><polygon
           class="cls-3"
           points="81.38,190.4 69.25,171.96 62,171.96 62,201.73 69.25,201.73 69.25,183.37 81.38,201.73 88.63,201.73 88.63,171.96 81.38,171.96 "
           id="polygon11" /><path
           class="cls-3"
           d="m 159.9,200.79 c 1.64,-0.82 2.89,-1.92 3.75,-3.31 0.86,-1.38 1.29,-2.93 1.29,-4.62 0,-1.78 -0.44,-3.24 -1.31,-4.37 -0.88,-1.13 -1.92,-1.99 -3.12,-2.59 -1.2,-0.59 -2.76,-1.22 -4.69,-1.87 -1.92,-0.62 -3.34,-1.2 -4.24,-1.74 -0.9,-0.54 -1.36,-1.29 -1.36,-2.25 0,-0.88 0.27,-1.55 0.81,-2.01 0.54,-0.47 1.24,-0.7 2.12,-0.7 1.02,0 1.85,0.28 2.5,0.83 0.65,0.55 1,1.31 1.06,2.27 h 7.84 c -0.14,-2.8 -1.22,-4.98 -3.22,-6.55 -2.01,-1.57 -4.65,-2.35 -7.93,-2.35 -3.28,0 -5.84,0.79 -7.85,2.35 -2.01,1.57 -3.01,3.74 -3.01,6.51 0,1.87 0.44,3.38 1.31,4.54 0.88,1.16 1.92,2.04 3.14,2.63 1.22,0.59 2.79,1.19 4.71,1.78 1.33,0.4 2.35,0.75 3.07,1.06 0.72,0.31 1.33,0.71 1.82,1.19 0.49,0.48 0.74,1.09 0.74,1.82 0,0.88 -0.31,1.56 -0.93,2.06 -0.62,0.5 -1.47,0.74 -2.54,0.74 -1.07,0 -1.89,-0.29 -2.54,-0.87 -0.65,-0.58 -1.03,-1.42 -1.14,-2.52 h -7.72 c 0.06,1.95 0.6,3.62 1.63,5 1.03,1.39 2.41,2.43 4.13,3.14 1.72,0.71 3.68,1.06 5.85,1.06 2.17,0 4.17,-0.41 5.81,-1.23 z"
           id="path11" /><polygon
           class="cls-3"
           points="240.26,177.77 240.26,171.96 217.23,171.96 217.23,177.77 225.12,177.77 225.12,201.73 232.37,201.73 232.37,177.77 "
           id="polygon12" /><rect
           class="cls-3"
           x="293.34"
           y="171.96001"
           width="7.25"
           height="29.77"
           id="rect12" /><polygon
           class="cls-3"
           points="353.68,177.77 361.57,177.77 361.57,201.73 368.82,201.73 368.82,177.77 376.71,177.77 376.71,171.96 353.68,171.96 "
           id="polygon13" /><path
           class="cls-3"
           d="m 447.35,189.77 c 0,1.78 -0.45,3.15 -1.36,4.11 -0.91,0.96 -2.21,1.44 -3.9,1.44 -1.69,0 -2.98,-0.48 -3.86,-1.44 -0.88,-0.96 -1.31,-2.33 -1.31,-4.11 v -17.81 h -7.25 v 17.77 c 0,2.66 0.54,4.91 1.61,6.76 1.07,1.85 2.54,3.24 4.39,4.16 1.85,0.92 3.95,1.38 6.3,1.38 2.35,0 4.47,-0.47 6.38,-1.4 1.91,-0.93 3.43,-2.32 4.56,-4.16 1.13,-1.84 1.7,-4.08 1.7,-6.74 v -17.77 h -7.25 v 17.81 z"
           id="path13" /><polygon
           class="cls-3"
           points="530.54,177.77 530.54,171.96 507.51,171.96 507.51,177.77 515.4,177.77 515.4,201.73 522.65,201.73 522.65,177.77 "
           id="polygon14" /><rect
           class="cls-3"
           x="249.63"
           y="44.470001"
           width="23.48"
           height="96.209999"
           id="rect14" /><path
           class="cls-3"
           d="m 261.53,0 c -8.03,0 -13.29,6.89 -13.29,15.94 0,9.05 5.1,15.94 12.98,15.94 h 0.16 c 8.19,0 13.29,-7.08 13.29,-15.94 C 274.52,6.89 269.57,0 261.54,0 Z"
           id="path14" /><path
           class="cls-3"
           d="M 356.28,140.35 C 355.32,135.21 355,126.63 355,117.87 V 85.29 c 0,-21.91 -8.18,-40.19 -34.32,-40.19 -14.27,0 -25.02,4.76 -30.47,8.38 l 4.49,18.48 c 5.13,-3.62 13.63,-6.86 21.65,-6.86 12.03,0 14.27,7.05 14.27,12 v 1.14 c -27.75,0 -46.03,11.43 -46.03,35.62 0,14.86 9.46,28.58 25.34,28.58 9.3,0 17.32,-4 22.45,-11.43 h 0.48 l 1.44,9.33 h 21.97 z m -24.86,-33.91 c 0,1.72 -0.16,3.43 -0.48,4.95 -1.6,5.9 -6.74,10.67 -12.67,10.67 -5.45,0 -9.62,-3.62 -9.62,-11.05 0,-11.05 9.94,-14.67 22.77,-14.67 v 10.09 z"
           id="path15" /><path
           class="cls-3"
           d="m 407.84,68.6 c 8.91,0 12.48,8.3 12.48,20.46 v 52.31 h 24.64 V 85.59 c 0,-27.8 -12.16,-40.73 -28.37,-40.73 -13.29,0 -21.23,9.07 -24.47,15.25 h -0.49 L 390.49,46.99 H 369.1 c 0.33,8.49 0.65,18.34 0.65,30.11 v 64.27 h 24.64 V 86.94 c 0,-2.7 0.16,-5.4 0.81,-7.33 1.78,-5.4 5.83,-11 12.64,-11 z"
           id="path16" /><path
           class="cls-3"
           d="m 523.58,116.57 c -6.62,2.71 -13.4,4.06 -21.8,4.06 -11.46,0 -21.48,-5.79 -22.28,-18.15 l 50.86,0.19 c 0.32,-2.32 0.81,-6.76 0.81,-11.78 0,-23.36 -9.69,-47.11 -35.2,-47.11 -27.29,0 -39.88,26.45 -39.88,50.39 0,29.73 15.34,48.26 42.14,48.26 10.66,0 20.51,-1.93 28.58,-5.98 l -3.23,-19.89 z m -28.9,-53.28 c 11.14,0 13.72,12.16 13.72,19.11 h -29.06 c 0.65,-7.72 4.84,-19.11 15.34,-19.11 z"
           id="path17" /></g><g
         id="g19"><polygon
           class="cls-2"
           points="142.13,69.68 103.51,129.62 142.13,129.62 160.47,98.41 178.29,129.62 218.76,129.62 180.86,69.68 214.75,16.22 178.29,16.22 161.14,45.88 145.53,16.22 106.91,16.22 "
           id="polygon18" /><path
           class="cls-2"
           d="m 67.05,103.97 c -13.6,0 -21.53,-13.7 -21.53,-30.59 0,-16.89 5.61,-30.59 21.53,-30.59 15.92,0 21.53,13.7 21.53,30.59 0,16.89 -7.93,30.59 -21.53,30.59 m 0,-90.22 c -30.38,0 -55,26.65 -55,59.53 0,32.88 24.62,59.53 55,59.53 30.38,0 55,-26.65 55,-59.53 0,-32.88 -24.62,-59.53 -55,-59.53"
           id="path19" /></g></g></g><style
     type="text/css"
     id="style1076">
	.st0{fill:#66D8D0;}
</style></svg>
