<?xml version="1.0" encoding="UTF-8" standalone="no"?>
<!-- Created with Inkscape (http://www.inkscape.org/) -->

<svg
   width="500mm"
   height="200mm"
   viewBox="0 0 500 200"
   version="1.1"
   id="svg1"
   inkscape:version="1.3.2 (091e20e, 2023-11-25)"
   sodipodi:docname="agorapulse.svg"
   xml:space="preserve"
   inkscape:export-filename="agorapulse.png"
   inkscape:export-xdpi="58.419998"
   inkscape:export-ydpi="58.419998"
   xmlns:inkscape="http://www.inkscape.org/namespaces/inkscape"
   xmlns:sodipodi="http://sodipodi.sourceforge.net/DTD/sodipodi-0.dtd"
   xmlns="http://www.w3.org/2000/svg"
   xmlns:svg="http://www.w3.org/2000/svg"><sodipodi:namedview
     id="namedview1"
     pagecolor="#ffffff"
     bordercolor="#666666"
     borderopacity="1.0"
     inkscape:showpageshadow="2"
     inkscape:pageopacity="0.0"
     inkscape:pagecheckerboard="false"
     inkscape:deskcolor="#d1d1d1"
     inkscape:document-units="mm"
     inkscape:zoom="0.23987001"
     inkscape:cx="1204.8192"
     inkscape:cy="373.11876"
     inkscape:window-width="1432"
     inkscape:window-height="794"
     inkscape:window-x="55"
     inkscape:window-y="38"
     inkscape:window-maximized="0"
     inkscape:current-layer="layer6" /><defs
     id="defs1"><clipPath
       id="clip0"><rect
         width="110"
         height="116"
         fill="white"
         id="rect834" /></clipPath><style
       id="style192">.cls-1{fill:#e00;}</style><clipPath
       id="clip0-0"><rect
         width="110"
         height="116"
         fill="white"
         id="rect834-9" /></clipPath><style
       id="style1">
      .cls-1 {
        fill: #e4ba6e;
      }

      .cls-2 {
        fill: #fff;
      }

      .cls-3 {
        fill: #2055a7;
      }
    </style><clipPath
       id="clipPath20"
       clipPathUnits="userSpaceOnUse"><path
         id="path18-9"
         d="M 0,595.28 H 841.89 V 0 H 0 Z" /></clipPath><clipPath
       id="clipPath26"
       clipPathUnits="userSpaceOnUse"><path
         id="path24-5"
         d="M 0,0 H 841.89 V 595.28 H 0 Z" /></clipPath><clipPath
       id="clipPath38"
       clipPathUnits="userSpaceOnUse"><path
         id="path36-9"
         d="m 385.447,387.143 c 10.386,4.539 22.219,6.916 34.602,6.916 v 0 c -12.386,0 -24.216,-2.377 -34.602,-6.916 m -0.493,-0.218 c 0.164,0.073 0.329,0.146 0.493,0.218 v 0 c -0.164,-0.072 -0.329,-0.145 -0.493,-0.218 m -1.012,-0.46 c 0.334,0.157 0.671,0.308 1.012,0.46 v 0 c -0.341,-0.152 -0.678,-0.303 -1.012,-0.46 m -0.511,-0.237 c -3.599,-1.72 -6.816,-4.531 -9.768,-9.643 v 0 l -3.856,-6.687 3.856,6.687 c 2.952,5.112 6.169,7.923 9.768,9.643 v 0 c 0.171,0.082 0.339,0.158 0.511,0.237 v 0 c -0.172,-0.079 -0.34,-0.155 -0.511,-0.237 m 26.46,-4.536 h 0.184 z m 0.307,-0.004 c -0.04,0 -0.082,0 -0.123,0.004 v 0 c 0.041,-0.004 0.08,-0.004 0.123,-0.004 m -0.426,0.004 h 0.119 z m -0.299,0 h 0.299 z m 1.2,-0.005 c -0.058,0 -0.118,0 -0.177,10e-4 v 0 c 0.059,-10e-4 0.116,-10e-4 0.177,-10e-4 m -0.299,10e-4 h 0.122 z m -0.176,0 h 0.176 z m 0.475,-10e-4 h 0.122 z m 0.295,-0.003 c -0.057,0 -0.114,0 -0.173,0.003 v 0 c 0.059,-0.003 0.116,-0.003 0.173,-0.003 m 0,0 c 0.02,0 0.039,0 0.057,0 v 0 c -0.018,0 -0.038,0 -0.057,0 m 0.118,-0.001 c -0.02,0 -0.04,0.001 -0.061,0.001 v 0 c 0.021,0 0.041,-0.001 0.061,-0.001 m 0,0 h 0.181 z m 0.299,-0.003 c -0.039,0 -0.08,0 -0.118,0.003 v 0 c 0.038,-0.003 0.079,-0.003 0.118,-0.003 m 0.236,-0.002 c -0.02,0 -0.04,0.002 -0.061,0.002 v 0 c 0.021,0 0.041,-0.002 0.061,-0.002 m -0.236,0.002 h 0.175 z m 0.465,-0.004 c -0.056,0.002 -0.113,0.002 -0.167,0.002 v 0 c 0.054,0 0.108,0 0.167,-0.002 m -0.229,0.002 h 0.062 z m 0.229,-0.002 c 0.011,0 0.021,0 0.033,0 v 0 c -0.012,0 -0.022,0 -0.033,0 m 0.119,-0.002 c -0.029,0.001 -0.057,0.001 -0.086,0.002 v 0 c 0.028,-10e-4 0.057,-10e-4 0.086,-0.002 m 0.17,-0.003 c -0.046,0 -0.093,0.003 -0.14,0.003 v 0 c 0.047,0 0.094,-0.003 0.14,-0.003 m -0.168,0.003 c 0.009,0 0.019,0 0.028,0 v 0 c -0.009,0 -0.019,0 -0.028,0 m -0.002,0 c 0.001,0 0.001,0 0.002,0 v 0 c -10e-4,0 -10e-4,0 -0.002,0 m 0.254,-0.005 c -0.026,0.002 -0.054,0.002 -0.084,0.002 v 0 c 0.028,0 0.058,0 0.084,-0.002 m 0.206,-0.002 c -0.047,0 -0.092,0.002 -0.14,0.002 v 0 c 0.048,0 0.093,-0.002 0.14,-0.002 m -0.176,0.002 h 0.036 z m -0.007,0 h 0.007 z m -0.023,0 h 0.023 z m 0.357,-0.007 c -0.051,0.003 -0.102,0.003 -0.151,0.005 v 0 c 0.049,-0.002 0.099,-0.002 0.151,-0.005 m 0,0 c 0.023,0 0.048,0 0.074,0 v 0 c -0.025,0 -0.05,0 -0.074,0 m 0.103,-10e-4 c -0.01,0 -0.02,10e-4 -0.029,10e-4 v 0 c 0.009,0 0.019,-10e-4 0.029,-10e-4 m 0,0 c 0.001,0 0.003,0 0.005,0 v 0 c -0.002,0 -0.004,0 -0.005,0 m 0.038,-10e-4 c -0.011,0 -0.022,10e-4 -0.033,10e-4 v 0 c 0.011,0 0.022,-10e-4 0.033,-10e-4 m 0.128,-0.002 c -0.042,0 -0.084,0.002 -0.128,0.002 v 0 c 0.044,0 0.086,-0.002 0.128,-0.002 m 0.16,-0.002 c -0.051,0.002 -0.106,0.002 -0.16,0.002 v 0 c 0.054,0 0.109,0 0.16,-0.002 m 0.134,-0.003 c -0.045,0 -0.089,0.003 -0.134,0.003 v 0 c 0.045,0 0.089,-0.003 0.134,-0.003 m 0.151,-0.004 c -0.049,0.003 -0.1,0.003 -0.151,0.004 v 0 c 0.051,-0.001 0.1,-0.001 0.151,-0.004 m 0.082,-10e-4 c -0.028,10e-4 -0.055,10e-4 -0.082,10e-4 v 0 c 0.026,0 0.054,0 0.082,-10e-4 m 0.019,0 c 0.01,0 0.02,0 0.03,0 v 0 c -0.01,0 -0.02,0 -0.03,0 m 0.185,-0.005 c -0.05,0.001 -0.104,0.001 -0.155,0.005 v 0 c 0.051,-0.004 0.103,-0.004 0.155,-0.005 m -0.204,0.005 c 0.007,0 0.013,0 0.019,0 v 0 c -0.006,0 -0.012,0 -0.019,0 m 0.27,-0.007 c -0.02,0.002 -0.043,0.002 -0.066,0.002 v 0 c 0.023,0 0.043,0 0.066,-0.002 m 0,0 c 0.011,0 0.023,0 0.034,0 v 0 c -0.01,0 -0.022,0 -0.034,0 m 0.046,-0.001 c -0.003,0 -0.007,0.001 -0.012,0.001 v 0 c 0.005,0 0.009,-0.001 0.012,-0.001 m 0,0 c 10e-4,0 0.002,0 0.004,0 v 0 c -0.002,0 -0.003,0 -0.004,0 m 0.018,-10e-4 c -0.004,0 -0.01,10e-4 -0.014,10e-4 v 0 c 0.004,0 0.01,-10e-4 0.014,-10e-4 m 0.153,-0.003 c -0.048,0.003 -0.102,0.003 -0.153,0.003 v 0 c 0.051,0 0.105,0 0.153,-0.003 m 0.127,-0.002 c -0.043,0 -0.084,0.002 -0.127,0.002 v 0 c 0.043,0 0.084,-0.002 0.127,-0.002 m 0.157,-0.004 c -0.052,0 -0.106,0.002 -0.157,0.004 v 0 c 0.051,-0.002 0.103,-0.004 0.157,-0.004 m 0.135,-0.005 c -0.044,0 -0.089,0.002 -0.135,0.005 v 0 c 0.046,-0.003 0.091,-0.005 0.135,-0.005 m 0.033,-0.002 c -0.011,0.001 -0.023,0.001 -0.033,0.002 v 0 c 0.01,-10e-4 0.022,-10e-4 0.033,-0.002 m 0,0 c 0.002,0 0.003,0 0.004,0 v 0 c -0.001,0 -0.002,0 -0.004,0 m 0.034,-10e-4 c -0.01,0 -0.02,0 -0.03,10e-4 v 0 c 0.01,-10e-4 0.02,-10e-4 0.03,-10e-4 m 0.006,0 c -0.001,0 -0.003,0 -0.006,0 v 0 c 0.003,0 0.005,0 0.006,0 m 0.031,-0.001 c -0.01,0.001 -0.02,0.001 -0.031,0.001 v 0 c 0.011,0 0.021,0 0.031,-0.001 m 0.004,0 c 0.011,0 0.022,0 0.034,0 v 0 c -0.012,0 -0.023,0 -0.034,0 m 0.102,-0.004 c -0.023,0.004 -0.045,0.004 -0.068,0.004 v 0 c 0.023,0 0.045,0 0.068,-0.004 m -0.106,0.004 c 0.002,0 0.003,0 0.004,0 v 0 c -10e-4,0 -0.002,0 -0.004,0 m 0.321,-0.012 c -0.052,0.004 -0.099,0.004 -0.15,0.008 v 0 c 0.051,-0.004 0.098,-0.004 0.15,-0.008 m -0.215,0.008 h 0.065 z m 0.35,-0.012 c -0.045,0.003 -0.091,0.004 -0.135,0.004 v 0 c 0.044,0 0.09,-10e-4 0.135,-0.004 m 0.143,-0.004 c -0.048,0 -0.096,0.003 -0.143,0.004 v 0 c 0.047,-0.001 0.095,-0.004 0.143,-0.004 m 0.126,-0.002 c -0.044,0 -0.084,0 -0.126,0.002 v 0 c 0.042,-0.002 0.082,-0.002 0.126,-0.002 m 0.03,-0.002 c -0.01,0.001 -0.021,0.001 -0.03,0.002 v 0 c 0.009,-10e-4 0.02,-10e-4 0.03,-0.002 m 0.124,-0.005 c -0.039,0.002 -0.081,0.003 -0.124,0.005 v 0 c 0.042,-0.002 0.083,-0.003 0.124,-0.005 m 0.034,-0.002 c -0.011,0 -0.022,0.001 -0.034,0.002 v 0 c 0.011,-10e-4 0.023,-0.002 0.034,-0.002 m 0,0 c 0.011,0 0.02,0 0.03,0 v 0 c -0.011,0 -0.02,0 -0.03,0 m 0.093,-0.003 c -0.02,0 -0.044,0 -0.063,0.003 v 0 c 0.019,-0.003 0.041,-0.003 0.063,-0.003 m 0.018,-10e-4 c -0.005,0 -0.011,10e-4 -0.018,10e-4 v 0 c 0.007,0 0.013,-10e-4 0.018,-10e-4 m 0.13,-0.005 c -0.043,0.002 -0.087,0.004 -0.13,0.005 v 0 c 0.043,-0.001 0.087,-0.003 0.13,-0.005 m 0.121,-0.004 c -0.04,10e-4 -0.08,10e-4 -0.121,0.004 v 0 c 0.041,-0.003 0.081,-0.003 0.121,-0.004 m 0.158,-0.008 c -0.053,0.004 -0.105,0.005 -0.158,0.008 v 0 c 0.053,-0.003 0.105,-0.004 0.158,-0.008 m 0,0 c 0.01,0 0.019,0 0.028,0 v 0 c -0.01,0 -0.019,0 -0.028,0 m 0.057,-0.001 c -0.009,0.001 -0.019,0.001 -0.029,0.001 v 0 c 0.01,0 0.02,0 0.029,-0.001 m 0.063,-0.002 c -0.021,0.002 -0.041,0.002 -0.063,0.002 v 0 c 0.022,0 0.042,0 0.063,-0.002 m 0.15,-0.006 c -0.05,10e-4 -0.101,0.004 -0.15,0.006 v 0 c 0.049,-0.002 0.1,-0.005 0.15,-0.006 m 0.117,-0.005 c -0.04,0.002 -0.078,0.002 -0.117,0.005 v 0 c 0.039,-0.003 0.077,-0.003 0.117,-0.005 m 0.158,-0.007 c -0.054,0.003 -0.103,0.004 -0.158,0.007 v 0 c 0.053,-0.003 0.104,-0.004 0.158,-0.007 m 0.124,-0.006 c -0.045,0.001 -0.084,0.004 -0.124,0.006 v 0 c 0.04,-0.002 0.079,-0.005 0.124,-0.006 m 0.07,-0.003 c -0.026,0 -0.048,0.003 -0.07,0.003 v 0 c 0.022,0 0.044,-0.003 0.07,-0.003 m 0.069,-10e-4 c -0.022,0 -0.048,0 -0.069,10e-4 v 0 c 0.021,-10e-4 0.044,-10e-4 0.069,-10e-4 m 0.128,-0.007 c -0.041,0.002 -0.083,0.003 -0.128,0.007 v 0 c 0.045,-0.004 0.085,-0.005 0.128,-0.007 m 0.146,-0.009 c -0.047,0.002 -0.097,0.007 -0.146,0.009 v 0 c 0.048,-0.002 0.099,-0.007 0.146,-0.009 m 0.118,-0.005 c -0.041,0 -0.077,0.003 -0.118,0.005 v 0 c 0.038,-0.002 0.077,-0.005 0.118,-0.005 m 0.159,-0.009 c -0.054,0.003 -0.105,0.005 -0.159,0.009 v 0 c 0.054,-0.004 0.105,-0.006 0.159,-0.009 m 0.083,-0.004 c -0.027,10e-4 -0.056,0.002 -0.083,0.004 v 0 c 0.027,-0.002 0.055,-0.003 0.083,-0.004 m 0.02,-0.001 c -0.007,0 -0.013,0.001 -0.02,0.001 v 0 c 0.006,0 0.013,-0.001 0.02,-0.001 m 0.107,-0.006 c -0.035,0.002 -0.07,0.003 -0.107,0.006 v 0 c 0.035,-0.003 0.072,-0.004 0.107,-0.006 m 0.052,-0.002 c -0.017,10e-4 -0.034,10e-4 -0.052,0.002 v 0 c 0.017,-0.001 0.034,-0.001 0.052,-0.002 m 0.119,-0.006 c -0.042,0.002 -0.079,0.005 -0.119,0.006 v 0 c 0.04,-10e-4 0.077,-0.004 0.119,-0.006 m 0.145,-0.009 c -0.049,0.002 -0.099,0.007 -0.145,0.009 v 0 c 0.046,-0.002 0.093,-0.007 0.145,-0.009 m 0.114,-0.004 c -0.037,0.002 -0.078,0.002 -0.114,0.004 v 0 c 0.036,-0.002 0.075,-0.002 0.114,-0.004 m 0.155,-0.008 c -0.053,10e-4 -0.104,0.003 -0.155,0.008 v 0 c 0.051,-0.005 0.102,-0.007 0.155,-0.008 m 0.053,-0.004 c -0.017,0 -0.035,0.004 -0.053,0.004 v 0 c 0.018,0 0.036,-0.004 0.053,-0.004 m 0.054,-0.004 c -0.017,0.003 -0.035,0.003 -0.054,0.004 v 0 c 0.019,-10e-4 0.037,-10e-4 0.054,-0.004 m 0.081,-0.004 c -0.026,0.003 -0.053,0.003 -0.081,0.004 v 0 c 0.028,-10e-4 0.055,-10e-4 0.081,-0.004 m 0.079,-0.004 c -0.026,0 -0.053,0.002 -0.079,0.004 v 0 c 0.026,-0.002 0.053,-0.004 0.079,-0.004 m 0.099,-0.007 c -0.033,0.002 -0.064,0.005 -0.099,0.007 v 0 c 0.035,-0.002 0.066,-0.005 0.099,-0.007 m 0.156,-0.009 c -0.053,0.002 -0.105,0.005 -0.156,0.009 v 0 c 0.051,-0.004 0.102,-0.007 0.156,-0.009 m 0.119,-0.008 c -0.04,10e-4 -0.082,0.006 -0.119,0.008 v 0 c 0.037,-0.002 0.079,-0.007 0.119,-0.008 m 0.14,-0.012 c -0.048,0.004 -0.096,0.008 -0.14,0.012 v 0 c 0.044,-0.004 0.09,-0.008 0.14,-0.012 m 0.056,-10e-4 c -0.02,0 -0.038,10e-4 -0.056,10e-4 v 0 c 0.018,0 0.036,-10e-4 0.056,-10e-4 m 0.054,-0.003 c -0.018,0 -0.037,0.003 -0.054,0.003 v 0 c 0.017,0 0.036,-0.003 0.054,-0.003 m 0.156,-0.011 c -0.054,0.002 -0.105,0.006 -0.156,0.011 v 0 c 0.051,-0.005 0.102,-0.009 0.156,-0.011 m 0.105,-0.007 c -0.036,0.003 -0.071,0.003 -0.105,0.007 v 0 c 0.033,-0.004 0.069,-0.004 0.105,-0.007 m 0.157,-0.01 c -0.054,0.004 -0.103,0.005 -0.157,0.01 v 0 c 0.052,-0.005 0.103,-0.006 0.157,-0.01 m 0.017,-0.001 c -0.006,0 -0.011,0 -0.017,0.001 v 0 c 0.006,-0.001 0.011,-0.001 0.017,-0.001 m 0.01,-10e-4 c -0.003,0 -0.006,10e-4 -0.01,10e-4 v 0 c 0.004,0 0.007,-10e-4 0.01,-10e-4 m 0.011,-0.001 c -0.003,0 -0.007,0.001 -0.011,0.001 v 0 c 0.004,0 0.008,-0.001 0.011,-0.001 m 0.057,-0.004 c -0.018,10e-4 -0.037,0.002 -0.057,0.004 v 0 c 0.019,-0.002 0.037,-0.003 0.057,-0.004 m 0.159,-0.011 c -0.051,0.004 -0.108,0.009 -0.159,0.011 v 0 c 0.051,-0.002 0.108,-0.007 0.159,-0.011 m 0.102,-0.009 c -0.035,0.004 -0.068,0.006 -0.102,0.009 v 0 c 0.034,-0.003 0.067,-0.005 0.102,-0.009 m 0.163,-0.012 c -0.053,0.005 -0.109,0.009 -0.163,0.012 v 0 c 0.054,-0.003 0.11,-0.007 0.163,-0.012 m 0.084,-0.005 c -0.03,0.002 -0.054,0.004 -0.084,0.005 v 0 c 0.03,-0.001 0.054,-0.003 0.084,-0.005 m 0.166,-0.014 c -0.056,0.005 -0.112,0.009 -0.166,0.014 v 0 c 0.054,-0.005 0.11,-0.009 0.166,-0.014 m 0.092,-0.007 c -0.028,0.003 -0.061,0.005 -0.092,0.007 v 0 c 0.03,-0.002 0.064,-0.004 0.092,-0.007 m 0.174,-0.013 c -0.056,0.004 -0.114,0.008 -0.174,0.013 v 0 c 0.06,-0.005 0.116,-0.009 0.174,-0.013 m 0.015,-10e-4 c -0.004,0 -0.009,10e-4 -0.015,10e-4 v 0 c 0.006,0 0.011,-10e-4 0.015,-10e-4 m 0.009,-0.001 c -0.002,0.001 -0.006,0.001 -0.009,0.001 v 0 c 0.003,0 0.007,0 0.009,-0.001 m 0.049,-0.004 c -0.015,0.002 -0.032,0.003 -0.049,0.004 v 0 c 0.016,-10e-4 0.032,-0.002 0.049,-0.004 m 0.131,-0.009 c -0.043,0.003 -0.087,0.006 -0.131,0.009 v 0 c 0.042,-0.003 0.087,-0.006 0.131,-0.009 m 0.035,-0.002 c -0.012,0 -0.023,0.001 -0.035,0.002 v 0 c 0.011,-10e-4 0.023,-0.002 0.035,-0.002 m 0.093,-0.009 c -0.028,0.002 -0.062,0.004 -0.093,0.009 v 0 c 0.031,-0.005 0.063,-0.007 0.093,-0.009 m 0.159,-0.013 c -0.049,0.004 -0.105,0.008 -0.159,0.013 v 0 c 0.054,-0.005 0.105,-0.009 0.159,-0.013 m 0.045,-0.002 c -0.016,0 -0.029,0 -0.045,0.002 v 0 c 0.016,-0.002 0.029,-0.002 0.045,-0.002 m 0.042,-0.004 c -0.014,10e-4 -0.029,10e-4 -0.042,0.004 v 0 c 0.013,-0.003 0.027,-0.003 0.042,-0.004 m 0.163,-0.014 c -0.054,0.005 -0.108,0.009 -0.163,0.014 v 0 c 0.055,-0.005 0.109,-0.009 0.163,-0.014 m 0.09,-0.011 c -0.03,0.003 -0.059,0.008 -0.09,0.011 v 0 c 0.031,-0.003 0.057,-0.008 0.09,-0.011 m 0.2,-0.018 c -0.066,0.008 -0.136,0.013 -0.2,0.018 v 0 c 0.064,-0.005 0.133,-0.01 0.2,-0.018 m 0.038,-0.001 c -0.007,0 -0.013,0.001 -0.02,0.001 v 0 c 0.007,0 0.013,-0.001 0.02,-0.001 m -0.038,0.001 h 0.018 z m 0.242,-0.022 c -0.069,0.009 -0.139,0.016 -0.204,0.021 v 0 c 0.065,-0.005 0.135,-0.012 0.204,-0.021 m 0.046,-0.004 c -0.018,0.003 -0.032,0.004 -0.046,0.004 v 0 c 0.014,0 0.028,-0.001 0.046,-0.004 m 2.4,-0.252 c -0.778,0.092 -1.579,0.178 -2.4,0.252 v 0 c 0.821,-0.074 1.62,-0.16 2.4,-0.252 m 0,0 h 0.002 z m 0.466,-0.057 c -0.156,0.019 -0.308,0.037 -0.464,0.057 v 0 c 0.156,-0.02 0.308,-0.038 0.464,-0.057 m 0.014,-0.003 c -0.002,0 -0.004,0.003 -0.007,0.003 v 0 c 0.003,0 0.005,-0.003 0.007,-0.003 m -0.014,0.003 h 0.007 z m 0.231,-0.031 c -0.072,0.009 -0.144,0.019 -0.217,0.028 v 0 c 0.073,-0.009 0.145,-0.019 0.217,-0.028 m 0.01,-0.003 c -0.002,0 -0.008,0.003 -0.01,0.003 v 0 c 0,0 0.008,-0.003 0.01,-0.003 m 0.217,-0.027 c -0.07,0.009 -0.143,0.018 -0.217,0.027 v 0 c 0.071,-0.009 0.147,-0.018 0.217,-0.027 m 0.017,0 c -0.005,0 -0.01,0 -0.017,0 v 0 c 0.007,0 0.012,0 0.017,0 m 0.439,-0.061 c -0.144,0.021 -0.293,0.04 -0.439,0.061 v 0 c 0.146,-0.021 0.295,-0.04 0.439,-0.061 m 0.023,-0.004 c -0.008,0 -0.017,0.002 -0.023,0.004 v 0 c 0.006,-0.002 0.015,-0.004 0.023,-0.004 m 0.206,-0.028 c -0.068,0.009 -0.137,0.018 -0.206,0.028 v 0 c 0.069,-0.01 0.138,-0.019 0.206,-0.028 m 0.009,-0.003 c -0.004,0 -0.006,0 -0.009,0.003 v 0 c 0.003,-0.003 0.005,-0.003 0.009,-0.003 m 0.214,-0.028 c -0.07,0.01 -0.145,0.019 -0.214,0.028 v 0 c 0.069,-0.009 0.144,-0.018 0.214,-0.028 m 0.011,-0.003 c -0.004,0 -0.006,0 -0.011,0.003 v 0 c 0.005,-0.003 0.007,-0.003 0.011,-0.003 m 0.108,-0.018 c -0.036,0.009 -0.072,0.014 -0.108,0.018 v 0 c 0.036,-0.004 0.072,-0.009 0.108,-0.018 m 0.105,-0.014 c -0.033,0.005 -0.069,0.01 -0.105,0.014 v 0 c 0.034,-0.004 0.07,-0.009 0.105,-0.014 m 0,0 h 0.01 z m 0.213,-0.03 c -0.069,0.009 -0.136,0.018 -0.203,0.03 v 0 c 0.067,-0.012 0.134,-0.021 0.203,-0.03 m 0.044,-0.008 c -0.016,0.003 -0.032,0.005 -0.044,0.008 v 0 c 0.012,-0.003 0.028,-0.005 0.044,-0.008 m 0.18,-0.027 c -0.061,0.007 -0.119,0.018 -0.18,0.027 v 0 c 0.061,-0.009 0.119,-0.02 0.18,-0.027 m 0.031,-0.005 c -0.01,10e-4 -0.019,0.004 -0.031,0.005 v 0 c 0.009,-0.001 0.021,-0.004 0.031,-0.005 m 0.185,-0.03 c -0.06,0.009 -0.123,0.021 -0.185,0.03 v 0 c 0.062,-0.012 0.125,-0.021 0.185,-0.03 m 0.036,-0.005 c -0.011,0.001 -0.024,0.004 -0.036,0.005 v 0 c 0.012,-10e-4 0.023,-0.004 0.036,-0.005 m 0.189,-0.031 c -0.063,0.01 -0.126,0.019 -0.189,0.031 v 0 c 0.063,-0.012 0.126,-0.021 0.189,-0.031 m 0.021,-0.003 c -0.008,0.003 -0.015,0.003 -0.021,0.003 v 0 c 0.006,0 0.012,0 0.021,-0.003 m 0.191,-0.032 c -0.064,0.013 -0.127,0.022 -0.191,0.032 v 0 c 0.063,-0.01 0.127,-0.019 0.191,-0.032 m 0.032,-0.008 c -0.013,0.004 -0.021,0.004 -0.032,0.008 v 0 c 0.009,-0.004 0.019,-0.004 0.032,-0.008 m 0.185,-0.028 c -0.062,0.009 -0.122,0.02 -0.185,0.028 v 0 c 0.063,-0.008 0.123,-0.019 0.185,-0.028 m 0.025,-0.004 c -0.006,0 -0.018,10e-4 -0.025,0.004 v 0 c 0.007,-0.003 0.019,-0.004 0.025,-0.004 m 0.19,-0.031 c -0.064,0.009 -0.127,0.02 -0.19,0.031 v 0 c 0.063,-0.011 0.126,-0.022 0.19,-0.031 m 0.025,-0.004 c -0.009,0 -0.016,0.001 -0.025,0.004 v 0 c 0.007,-0.003 0.016,-0.004 0.025,-0.004 m 0.192,-0.036 c -0.064,0.011 -0.127,0.023 -0.192,0.036 v 0 c 0.065,-0.013 0.128,-0.025 0.192,-0.036 m 0.016,-0.002 c -0.005,0 -0.01,0.002 -0.016,0.002 v 0 c 0.006,0 0.011,-0.002 0.016,-0.002 m 0.188,-0.035 c -0.062,0.013 -0.125,0.022 -0.188,0.035 v 0 c 0.063,-0.013 0.126,-0.022 0.188,-0.035 m 0.032,-0.005 c -0.013,0.004 -0.019,0.005 -0.032,0.005 v 0 c 0.01,0 0.019,-10e-4 0.032,-0.005 m 0.015,-0.003 c -0.005,10e-4 -0.01,0.002 -0.015,0.003 v 0 c 0.005,-10e-4 0.01,-0.002 0.015,-0.003 m 0.076,-0.011 c -0.024,0.003 -0.051,0.007 -0.076,0.011 v 0 c 0.025,-0.004 0.051,-0.008 0.076,-0.011 m 0.09,-0.021 c -0.028,0.009 -0.06,0.014 -0.09,0.021 v 0 c 0.03,-0.007 0.058,-0.012 0.09,-0.021 m 0.014,-10e-4 c -0.006,0 -0.011,10e-4 -0.014,10e-4 v 0 c 0.003,0 0.008,-10e-4 0.014,-10e-4 m 0.202,-0.039 c -0.064,0.014 -0.125,0.026 -0.191,0.039 v 0 c 0.066,-0.013 0.127,-0.025 0.191,-0.039 m -0.202,0.039 h 0.011 z m 0.214,-0.04 c -0.005,0.001 -0.008,0.001 -0.012,0.001 v 0 c 0.003,0 0.009,-0.001 0.012,-0.001 m 0.199,-0.038 c -0.067,0.016 -0.134,0.027 -0.199,0.038 v 0 c 0.065,-0.011 0.132,-0.022 0.199,-0.038 m 0,0 h 0.008 z m 0.204,-0.04 c -0.066,0.014 -0.133,0.03 -0.196,0.04 v 0 c 0.063,-0.01 0.127,-0.026 0.196,-0.04 m 0.013,-10e-4 c -0.004,0 -0.009,10e-4 -0.013,10e-4 v 0 c 0.004,0 0.009,-10e-4 0.013,-10e-4 m 0.195,-0.039 c -0.062,0.014 -0.131,0.026 -0.195,0.039 v 0 c 0.064,-0.013 0.131,-0.025 0.195,-0.039 m 0.083,-0.017 c -0.025,0.008 -0.051,0.012 -0.079,0.017 v 0 c 0.028,-0.005 0.054,-0.009 0.079,-0.017 m -0.083,0.017 h 0.004 z m 0.309,-0.062 c -0.074,0.015 -0.148,0.031 -0.226,0.045 v 0 c 0.078,-0.014 0.152,-0.03 0.226,-0.045 m 0.301,-0.064 c -0.099,0.021 -0.2,0.044 -0.301,0.064 v 0 c 0.101,-0.02 0.202,-0.043 0.301,-0.064 m 14.412,-7.793 c -2.591,3.745 -7.327,6.292 -14.408,7.793 v 0 c 7.079,-1.501 11.817,-4.048 14.408,-7.793 m -14.412,7.793 h 0.004 z m 14.413,-7.796 c -0.001,10e-4 -0.001,0.003 -0.001,0.003 v 0 c 0,-0.003 0,-0.003 0.001,-0.003 m 0,0 h 10e-4 z m 0.045,-0.063 c -0.016,0.021 -0.031,0.044 -0.044,0.063 v 0 c 0.013,-0.019 0.028,-0.042 0.044,-0.063 m 0.008,-0.014 c -0.003,0.007 -0.004,0.009 -0.008,0.014 v 0 c 0.004,-0.005 0.005,-0.012 0.008,-0.014 m 0.036,-0.053 c -0.012,0.018 -0.023,0.036 -0.036,0.053 v 0 c 0.013,-0.017 0.024,-0.035 0.036,-0.053 m 0.015,-0.024 c -0.004,0.009 -0.008,0.016 -0.015,0.024 v 0 c 0.007,-0.008 0.011,-0.015 0.015,-0.024 m 0.034,-0.049 c -0.012,0.017 -0.022,0.031 -0.034,0.049 v 0 c 0.012,-0.018 0.022,-0.032 0.034,-0.049 m 0.017,-0.026 c -0.005,0.009 -0.012,0.017 -0.017,0.026 v 0 c 0.005,-0.009 0.012,-0.017 0.017,-0.026 m 0.028,-0.044 c -0.01,0.016 -0.019,0.031 -0.028,0.044 v 0 c 0.009,-0.014 0.018,-0.028 0.028,-0.044 m 0.023,-0.035 c -0.008,0.014 -0.017,0.025 -0.023,0.035 v 0 c 0.006,-0.01 0.015,-0.021 0.023,-0.035 m 0.023,-0.035 c -0.008,0.013 -0.014,0.025 -0.023,0.035 v 0 c 0.009,-0.01 0.015,-0.022 0.023,-0.035 m 0.028,-0.046 c -0.009,0.015 -0.018,0.032 -0.028,0.046 v 0 c 0.01,-0.014 0.019,-0.031 0.028,-0.046 m 0.017,-0.021 c -0.005,0.006 -0.01,0.014 -0.017,0.021 v 0 c 0.007,-0.007 0.012,-0.015 0.017,-0.021 m 0.032,-0.056 c -0.01,0.02 -0.021,0.037 -0.032,0.056 v 0 c 0.011,-0.019 0.022,-0.036 0.032,-0.056 m 0.015,-0.022 c -0.006,0.008 -0.01,0.016 -0.015,0.022 v 0 c 0.005,-0.006 0.009,-0.014 0.015,-0.022 m 0.041,-0.067 c -0.014,0.026 -0.028,0.045 -0.041,0.067 v 0 c 0.013,-0.022 0.027,-0.041 0.041,-0.067 m 0,0 z m 1.06,-2.153 c -0.288,0.755 -0.64,1.473 -1.06,2.153 v 0 c 0.42,-0.681 0.772,-1.398 1.06,-2.153 m 0.95,-6.443 c 0.012,0.254 0.016,0.506 0.016,0.76 v 0 c -10e-4,2.094 -0.318,3.984 -0.966,5.683 v 0 c 0.724,-1.902 1.034,-4.047 0.95,-6.443 m -0.022,-0.519 c 0.008,0.173 0.017,0.344 0.022,0.519 v 0 c -0.005,-0.175 -0.014,-0.346 -0.022,-0.519 m -0.009,-0.145 c 0.005,0.048 0.007,0.097 0.009,0.145 v 0 c -0.002,-0.048 -0.004,-0.097 -0.009,-0.145 m 0,0 c 0,0 0,0 0,0 m 0,0 v -0.004 0.004 c 0,0 0,0 0,0 m 0,-0.004 c 0,0 0,0 0,0 m -0.007,-0.141 c 0.003,0.046 0.005,0.092 0.007,0.141 v 0 c -0.002,-0.049 -0.004,-0.095 -0.007,-0.141 m 0.007,0.141 c 0,0 0,0 0,0 m -0.011,-0.152 c 0.004,0.004 0.004,0.008 0.004,0.011 v 0 c 0,-0.003 -0.004,-0.007 -0.004,-0.011 m -0.003,-0.138 c 0.003,0.045 0.003,0.092 0.003,0.138 v 0 c 0,-0.046 0,-0.093 -0.003,-0.138 m -0.002,-0.004 c 0.002,10e-4 0.002,10e-4 0.002,0.004 v 0 c 0,0 0,-0.003 -0.002,-0.004 m -0.004,-0.071 c 0.001,0.024 0.001,0.045 0.004,0.071 v 0 c -0.003,-0.023 -0.003,-0.047 -0.004,-0.071 m -0.005,-0.073 c 0.002,0.022 0.005,0.046 0.005,0.073 v 0 c 0,-0.027 -0.003,-0.048 -0.005,-0.073 m -4.35,-17.852 c 2.765,6.487 4.037,12.667 4.35,17.852 v 0 c -0.313,-5.185 -1.585,-11.365 -4.35,-17.852 m -0.001,-0.004 c 0,10e-4 0,0.004 0.001,0.004 v 0 c -0.001,0 -0.001,-0.003 -0.001,-0.004 m -0.072,-0.171 c 0.024,0.056 0.046,0.115 0.072,0.171 v 0 c -0.026,-0.056 -0.048,-0.115 -0.072,-0.171 m -0.017,-0.03 c 0.005,0.009 0.01,0.021 0.017,0.03 v 0 c -0.007,-0.009 -0.012,-0.021 -0.017,-0.03 m -0.063,-0.142 c 0.024,0.044 0.044,0.093 0.063,0.142 v 0 c -0.019,-0.049 -0.042,-0.098 -0.063,-0.142 m -0.018,-0.052 c 0.005,0.017 0.014,0.034 0.018,0.052 v 0 c -0.004,-0.017 -0.013,-0.035 -0.018,-0.052 m -0.056,-0.123 c 0.019,0.04 0.037,0.082 0.056,0.123 v 0 c -0.019,-0.039 -0.037,-0.083 -0.056,-0.123 m -0.026,-0.063 c 0.008,0.019 0.019,0.041 0.026,0.063 v 0 c -0.007,-0.019 -0.018,-0.044 -0.026,-0.063 m -0.05,-0.114 c 0.015,0.037 0.032,0.076 0.05,0.114 v 0 c -0.018,-0.038 -0.035,-0.077 -0.05,-0.114 m -0.03,-0.069 c 0.008,0.025 0.022,0.047 0.03,0.069 v 0 c -0.008,-0.022 -0.022,-0.044 -0.03,-0.069 m -0.051,-0.109 c 0.017,0.035 0.033,0.072 0.051,0.109 v 0 c -0.018,-0.035 -0.036,-0.074 -0.051,-0.109 m -0.03,-0.068 c 0.012,0.024 0.021,0.045 0.03,0.068 v 0 c -0.009,-0.023 -0.018,-0.044 -0.03,-0.068 m -0.026,-0.06 c 0.009,0.02 0.017,0.039 0.026,0.06 v 0 c -0.009,-0.021 -0.017,-0.04 -0.026,-0.06 m -0.029,-0.063 c 0.011,0.019 0.02,0.044 0.029,0.063 v 0 c -0.009,-0.019 -0.018,-0.041 -0.029,-0.063 m -0.025,-0.057 c 0.008,0.019 0.017,0.04 0.025,0.057 v 0 c -0.008,-0.017 -0.017,-0.038 -0.025,-0.057 m -0.062,-0.135 c 0.021,0.044 0.042,0.091 0.062,0.135 v 0 c -0.02,-0.044 -0.041,-0.086 -0.062,-0.135 m -0.028,-0.067 c 0.009,0.023 0.02,0.045 0.028,0.067 v 0 c -0.011,-0.022 -0.019,-0.044 -0.028,-0.067 m -0.031,-0.066 c 0.01,0.021 0.02,0.044 0.031,0.066 v 0 c -0.011,-0.022 -0.023,-0.045 -0.031,-0.066 m -0.037,-0.079 c 0.014,0.026 0.025,0.052 0.037,0.079 v 0 c -0.014,-0.027 -0.023,-0.053 -0.037,-0.079 m -0.051,-0.113 c 0.018,0.038 0.033,0.073 0.051,0.113 v 0 c -0.018,-0.038 -0.035,-0.075 -0.051,-0.113 m -0.03,-0.063 c 0.012,0.022 0.018,0.041 0.03,0.063 v 0 c -0.012,-0.022 -0.021,-0.041 -0.03,-0.063 m -0.053,-0.114 c 0.018,0.036 0.035,0.075 0.053,0.114 v 0 c -0.018,-0.039 -0.035,-0.078 -0.053,-0.114 m -0.027,-0.06 c 0.009,0.02 0.017,0.037 0.027,0.06 v 0 c -0.013,-0.023 -0.018,-0.04 -0.027,-0.06 m -0.057,-0.121 c 0.017,0.041 0.036,0.081 0.057,0.121 v 0 c -0.021,-0.04 -0.04,-0.08 -0.057,-0.121 m -0.027,-0.055 c 0.01,0.017 0.018,0.038 0.027,0.055 v 0 c -0.009,-0.017 -0.017,-0.038 -0.027,-0.055 m -0.058,-0.125 c 0.019,0.04 0.041,0.084 0.058,0.125 v 0 c -0.021,-0.041 -0.039,-0.085 -0.058,-0.125 m -0.021,-0.044 c 0.007,0.013 0.014,0.028 0.021,0.044 v 0 c -0.007,-0.016 -0.014,-0.026 -0.021,-0.044 m -0.065,-0.136 c 0.023,0.045 0.043,0.093 0.065,0.136 v 0 c -0.022,-0.043 -0.042,-0.091 -0.065,-0.136 m -0.015,-0.031 c 0.006,0.01 0.011,0.022 0.015,0.031 v 0 c -0.004,-0.009 -0.009,-0.021 -0.015,-0.031 m -0.069,-0.148 c 0.023,0.051 0.045,0.097 0.069,0.148 v 0 c -0.024,-0.051 -0.046,-0.097 -0.069,-0.148 m -0.009,-0.015 c 0.003,0.005 0.005,0.011 0.009,0.015 v 0 c -0.004,-0.004 -0.006,-0.008 -0.009,-0.015 M 428.284,323.96 c 5.741,5.731 9.828,11.78 12.658,17.657 v 0 c -2.83,-5.877 -6.917,-11.926 -12.658,-17.657 m -0.013,-0.013 c 0.005,0.002 0.008,0.009 0.013,0.013 v 0 c -0.006,-0.004 -0.008,-0.011 -0.013,-0.013 m -0.074,-0.073 c 0.024,0.025 0.049,0.049 0.074,0.073 v 0 c -0.025,-0.024 -0.05,-0.048 -0.074,-0.073 m -0.074,-0.072 c 0.023,0.023 0.049,0.046 0.074,0.072 v 0 c -0.025,-0.026 -0.051,-0.049 -0.074,-0.072 m -0.028,-0.029 c 0.009,0.012 0.018,0.017 0.028,0.029 v 0 c -0.01,-0.012 -0.019,-0.017 -0.028,-0.029 m -0.139,-0.137 c 0.047,0.047 0.094,0.091 0.139,0.137 v 0 c -0.045,-0.046 -0.092,-0.09 -0.139,-0.137 m -0.037,-0.035 c 0.015,0.012 0.026,0.023 0.037,0.035 v 0 c -0.011,-0.012 -0.022,-0.023 -0.037,-0.035 m -0.133,-0.133 c 0.045,0.044 0.088,0.088 0.133,0.133 v 0 c -0.045,-0.045 -0.088,-0.089 -0.133,-0.133 m -0.039,-0.04 c 0.011,0.014 0.025,0.028 0.039,0.04 v 0 c -0.014,-0.012 -0.028,-0.026 -0.039,-0.04 m -0.135,-0.13 c 0.046,0.044 0.09,0.086 0.135,0.13 v 0 c -0.045,-0.044 -0.089,-0.086 -0.135,-0.13 m -0.038,-0.04 c 0.013,0.014 0.026,0.027 0.038,0.04 v 0 c -0.012,-0.013 -0.025,-0.023 -0.038,-0.04 m -0.138,-0.128 c 0.047,0.044 0.092,0.088 0.138,0.128 v 0 c -0.046,-0.04 -0.091,-0.084 -0.138,-0.128 m -0.025,-0.026 c 0.01,0.009 0.019,0.018 0.025,0.026 v 0 c -0.009,-0.009 -0.015,-0.017 -0.025,-0.026 m -0.179,-0.175 c 0.06,0.06 0.119,0.117 0.179,0.175 v 0 c -0.06,-0.058 -0.119,-0.115 -0.179,-0.175 m -0.142,-0.136 c 0.047,0.049 0.094,0.092 0.142,0.136 v 0 c -0.048,-0.044 -0.095,-0.087 -0.142,-0.136 m -0.062,-0.057 c 0.021,0.022 0.041,0.039 0.062,0.057 v 0 c -0.021,-0.018 -0.041,-0.035 -0.062,-0.057 m -0.126,-0.116 c 0.045,0.04 0.086,0.079 0.126,0.116 v 0 c -0.043,-0.037 -0.081,-0.076 -0.126,-0.116 m -0.056,-0.053 c 0.021,0.018 0.038,0.035 0.056,0.053 v 0 c -0.018,-0.018 -0.035,-0.035 -0.056,-0.053 m -0.129,-0.127 c 0.04,0.043 0.086,0.085 0.129,0.127 v 0 c -0.045,-0.042 -0.089,-0.084 -0.129,-0.127 m -0.052,-0.044 c 0.015,0.013 0.033,0.031 0.052,0.044 v 0 c -0.019,-0.013 -0.037,-0.031 -0.052,-0.044 m -0.07,-0.067 c 0.024,0.021 0.047,0.044 0.07,0.067 v 0 c -0.024,-0.023 -0.047,-0.046 -0.07,-0.067 m -0.07,-0.065 c 0.025,0.021 0.048,0.043 0.07,0.065 v 0 c -0.023,-0.022 -0.046,-0.044 -0.07,-0.065 m -0.047,-0.042 c 0.018,0.013 0.033,0.026 0.047,0.042 v 0 c -0.016,-0.016 -0.029,-0.029 -0.047,-0.042 m -0.15,-0.141 c 0.051,0.047 0.1,0.092 0.15,0.141 v 0 c -0.05,-0.049 -0.099,-0.094 -0.15,-0.141 m -0.032,-0.03 c 0.011,0.008 0.021,0.019 0.032,0.03 v 0 c -0.011,-0.011 -0.021,-0.019 -0.032,-0.03 m -0.169,-0.156 c 0.055,0.049 0.111,0.105 0.169,0.156 v 0 c -0.058,-0.051 -0.111,-0.103 -0.169,-0.156 m -0.016,-0.014 c 0.004,0.002 0.011,0.007 0.016,0.014 v 0 c -0.005,-0.005 -0.012,-0.012 -0.016,-0.014 m -0.19,-0.173 c 0.063,0.057 0.127,0.115 0.19,0.173 v 0 c -0.063,-0.058 -0.127,-0.116 -0.19,-0.173 m -0.991,-0.889 c 0.13,0.115 0.262,0.233 0.394,0.35 v 0 c 0.201,0.179 0.399,0.358 0.597,0.539 v 0 c -0.326,-0.298 -0.657,-0.592 -0.991,-0.889 m -0.017,-0.012 c 0.007,0.004 0.012,0.009 0.017,0.012 v 0 c -0.005,-0.003 -0.01,-0.008 -0.017,-0.012 m -0.378,-0.331 c 0.129,0.109 0.255,0.221 0.378,0.331 v 0 c -0.123,-0.11 -0.252,-0.222 -0.378,-0.331 m -0.063,-0.054 c 0.021,0.018 0.042,0.036 0.063,0.054 v 0 c -0.021,-0.018 -0.042,-0.036 -0.063,-0.054 m -0.118,-0.1 c 0.039,0.03 0.079,0.063 0.118,0.1 v 0 c -0.039,-0.037 -0.079,-0.068 -0.118,-0.1 m -0.076,-0.069 c 0.026,0.022 0.051,0.043 0.076,0.069 v 0 c -0.025,-0.026 -0.05,-0.047 -0.076,-0.069 m -0.127,-0.107 c 0.043,0.035 0.086,0.072 0.127,0.107 v 0 c -0.041,-0.035 -0.084,-0.072 -0.127,-0.107 m -0.103,-0.088 c 0.035,0.028 0.069,0.058 0.103,0.088 v 0 c -0.034,-0.03 -0.068,-0.06 -0.103,-0.088 m -0.125,-0.105 c 0.044,0.035 0.084,0.067 0.125,0.105 v 0 c -0.041,-0.038 -0.081,-0.07 -0.125,-0.105 m -0.083,-0.073 c 0.028,0.024 0.056,0.047 0.083,0.073 v 0 c -0.027,-0.026 -0.055,-0.049 -0.083,-0.073 m -0.107,-0.09 c 0.036,0.028 0.069,0.062 0.107,0.09 v 0 c -0.038,-0.028 -0.071,-0.062 -0.107,-0.09 m -0.075,-0.066 c 0.022,0.023 0.047,0.044 0.075,0.066 v 0 c -0.028,-0.022 -0.053,-0.043 -0.075,-0.066 m -0.155,-0.128 c 0.051,0.042 0.104,0.086 0.155,0.128 v 0 c -0.054,-0.042 -0.104,-0.086 -0.155,-0.128 m -0.054,-0.043 c 0.017,0.015 0.036,0.031 0.054,0.043 v 0 c -0.018,-0.012 -0.037,-0.028 -0.054,-0.043 m -0.167,-0.141 c 0.057,0.046 0.113,0.094 0.167,0.141 v 0 c -0.054,-0.047 -0.11,-0.095 -0.167,-0.141 m -0.052,-0.043 c 0.017,0.017 0.034,0.03 0.052,0.043 v 0 c -0.018,-0.013 -0.035,-0.026 -0.052,-0.043 m -0.154,-0.126 c 0.051,0.043 0.1,0.082 0.154,0.126 v 0 c -0.054,-0.04 -0.103,-0.083 -0.154,-0.126 m -0.044,-0.033 c 0.016,0.008 0.03,0.019 0.044,0.033 v 0 c -0.014,-0.014 -0.028,-0.023 -0.044,-0.033 m -0.406,-0.337 c 0.138,0.113 0.272,0.223 0.406,0.337 v 0 c -0.134,-0.113 -0.27,-0.224 -0.406,-0.337 m -0.007,-0.005 c 0.003,0.001 0.005,0.003 0.007,0.005 v 0 c -10e-4,-10e-4 -0.004,-0.003 -0.007,-0.005 m -0.007,-0.003 c 0.003,0 0.005,10e-4 0.007,0.003 v 0 c -0.002,-10e-4 -0.004,-0.002 -0.007,-0.003 m -2.196,-1.716 c 0.753,0.564 1.483,1.138 2.196,1.716 v 0 c -0.713,-0.578 -1.443,-1.152 -2.196,-1.716 m -0.022,-0.018 c 0.007,0.006 0.015,0.014 0.022,0.018 v 0 c -0.009,-0.004 -0.015,-0.012 -0.022,-0.018 m -0.219,-0.165 c 0.073,0.055 0.144,0.109 0.219,0.165 v 0 c -0.075,-0.056 -0.146,-0.11 -0.219,-0.165" /></clipPath><clipPath
       id="clipPath44"
       clipPathUnits="userSpaceOnUse"><path
         id="path42-0"
         d="M 0,0 H 841.89 V 595.28 H 0 Z" /></clipPath><clipPath
       id="clipPath56"
       clipPathUnits="userSpaceOnUse"><path
         id="path54"
         d="m 446.46,362.553 c -0.365,-7.647 -2.823,-17.588 -9.196,-27.505 v 0 c 6.373,9.917 8.832,19.858 9.198,27.505 v 0 z m -9.825,-28.464 c 0.214,0.32 0.423,0.64 0.629,0.959 v 0 c -0.206,-0.319 -0.415,-0.639 -0.629,-0.959 m -0.855,-1.247 c 0.293,0.415 0.577,0.831 0.855,1.247 v 0 c -0.278,-0.416 -0.562,-0.832 -0.855,-1.247 m -2.971,-3.903 c 1.064,1.294 2.053,2.597 2.971,3.903 v 0 c -0.918,-1.306 -1.907,-2.609 -2.971,-3.903 m -2.61,-2.988 c 0.915,0.986 1.787,1.987 2.61,2.988 v 0 c -0.823,-1.001 -1.695,-2.002 -2.61,-2.988 m -4.875,-4.782 c 1.756,1.562 3.377,3.162 4.875,4.782 v 0 c -1.498,-1.62 -3.119,-3.22 -4.875,-4.782" /></clipPath><clipPath
       id="clipPath62"
       clipPathUnits="userSpaceOnUse"><path
         id="path60"
         d="M 0,0 H 841.89 V 595.28 H 0 Z" /></clipPath><clipPath
       id="clipPath74"
       clipPathUnits="userSpaceOnUse"><path
         id="path72"
         d="m 383.431,386.228 c -3.599,-1.72 -6.816,-4.531 -9.768,-9.643 v 0 l -3.849,-6.671 0.118,0.164 0.101,0.135 0.069,0.094 c 0.82,1.062 1.84,1.972 2.97,2.689 v 0 c 1.351,0.742 2.722,1.433 4.105,2.074 v 0 c 0.229,0.106 0.453,0.21 0.683,0.304 v 0 c 0.31,0.145 0.623,0.28 0.935,0.416 v 0 l 0.397,0.171 c 0.243,0.106 0.492,0.207 0.738,0.305 v 0 l 0.209,0.086 c 2.319,0.936 4.682,1.741 7.09,2.399 v 0 l 0.098,0.031 c 1.058,0.286 2.123,0.549 3.193,0.784 v 0 l 0.356,0.077 c 5.581,1.232 11.878,2.049 18.388,2.049 v 0 h 0.166 0.039 0.004 c 25.556,0 37.021,-5.268 37.025,-17.86 v 0 c 0,-0.254 -0.004,-0.506 -0.016,-0.76 v 0 c -0.005,-0.175 -0.014,-0.346 -0.022,-0.519 v 0 h 0.002 c -0.54,-11.285 -5.638,-27.56 -21.138,-41.384 v 0 c -1.603,-1.431 -3.318,-2.834 -5.149,-4.203 v 0 l 0.39,-0.251 c 2.725,-1.702 5.405,-2.563 8.095,-2.563 v 0 c 8.315,0 16.688,8.245 26.537,25.305 v 0 c 3.361,5.804 5.868,11.839 7.612,17.436 v 0 l 0.082,0.264 0.056,0.166 0.083,0.278 0.05,0.155 0.086,0.29 0.027,0.095 c 0.149,0.501 0.297,1.003 0.425,1.507 v 0 l 0.005,0.002 0.109,0.413 0.024,0.093 v 0.002 c 0.919,3.513 1.537,7.101 1.854,10.767 v 0 l 10e-4,0.035 0.038,0.426 0.005,0.067 0.028,0.404 0.01,0.089 0.027,0.398 0.004,0.092 0.028,0.396 0.003,0.096 0.022,0.397 0.005,0.084 0.019,0.413 0.003,0.049 c 0.018,0.464 0.035,0.934 0.044,1.401 v 0 c -0.047,1.038 -0.226,2.086 -0.545,3.081 v 0 c -0.111,0.343 -0.234,0.679 -0.378,1.006 v 0 c -0.157,0.356 -0.334,0.708 -0.528,1.047 v 0 l 0.062,-0.107 c -0.021,0.039 -0.041,0.071 -0.058,0.107 v 0 l 0.249,-0.436 c -0.082,0.158 -0.164,0.311 -0.249,0.466 v 0 l 0.343,-0.599 -0.039,0.075 c -0.08,0.167 -0.171,0.331 -0.264,0.494 v 0 c -0.903,1.562 -2.223,2.872 -3.743,3.84 v 0 c -0.027,0.018 -0.052,0.031 -0.076,0.044 v 0 c -11.769,6.393 -25.798,9.769 -40.572,9.769 v 0 c -13.191,0 -25.76,-2.699 -36.618,-7.831 m -13.619,-16.318 -0.005,-0.012 0.007,0.016 z" /></clipPath><clipPath
       id="clipPath80"
       clipPathUnits="userSpaceOnUse"><path
         id="path78"
         d="M 0,0 H 841.89 V 595.28 H 0 Z" /></clipPath><clipPath
       id="clipPath92"
       clipPathUnits="userSpaceOnUse"><path
         id="path90"
         d="m 470.104,347.354 c -1.954,-7.901 -5.15,-15.763 -9.483,-23.27 v 0 c 4.764,8.245 8.146,16.915 10.027,25.602 v 0 c -0.172,-0.777 -0.352,-1.555 -0.544,-2.332 m -38.226,-53.523 c 11.418,6.998 21.354,17.46 28.743,30.253 v 0 c -7.389,-12.793 -17.325,-23.255 -28.743,-30.253 m -22.518,9.336 c 0.254,-0.25 0.51,-0.502 0.769,-0.745 v 0 c -0.259,0.244 -0.517,0.497 -0.769,0.747 v 0 l -0.027,0.023 z m 5.796,-5.075 c 0.038,-0.028 0.074,-0.058 0.109,-0.084 v 0 c -0.026,0.021 -0.052,0.04 -0.075,0.06 v 0 c -0.012,0.006 -0.021,0.015 -0.033,0.024 v 0 l -0.049,0.037 -0.065,0.05 z m 0.637,-0.49 0.346,-0.255 -0.346,0.257 c -0.036,0.03 -0.075,0.057 -0.114,0.086 v 0 c 0.039,-0.029 0.078,-0.056 0.114,-0.088 m 4.88,-3.361 c 0.05,-0.027 0.099,-0.058 0.148,-0.087 v 0 c -0.22,0.139 -0.441,0.276 -0.664,0.417 v 0 c 0.173,-0.11 0.345,-0.216 0.516,-0.33 m 0.419,-0.256 c -0.091,0.055 -0.18,0.112 -0.271,0.169 v 0 c 0.087,-0.057 0.18,-0.114 0.271,-0.169 m 8.934,-0.948 c 0.638,0.212 1.259,0.478 1.852,0.794 v 0 c -0.593,-0.314 -1.214,-0.582 -1.852,-0.794 m -8.221,0.557 c -0.035,0.017 -0.069,0.033 -0.102,0.049 v 0 c 0.033,-0.016 0.067,-0.032 0.102,-0.049 m 0.023,-0.013 c -0.008,0.004 -0.014,0.011 -0.023,0.013 v 0 c 0.009,-0.002 0.015,-0.009 0.023,-0.013 m 0.065,-0.029 c -0.022,0.012 -0.044,0.02 -0.065,0.029 v 0 c 0.021,-0.009 0.043,-0.017 0.065,-0.029 m 0.066,-0.028 c -0.022,0.008 -0.045,0.019 -0.066,0.028 v 0 c 0.021,-0.009 0.044,-0.02 0.066,-0.028 m 0.004,-0.004 c -0.001,0.001 -0.004,0.001 -0.004,0.004 v 0 c 0,-0.003 0.003,-0.003 0.004,-0.004 m 0.156,-0.071 c -0.052,0.024 -0.104,0.047 -0.156,0.071 v 0 c 0.051,-0.025 0.104,-0.047 0.156,-0.071 m 0.229,-0.097 c -0.077,0.032 -0.153,0.064 -0.229,0.097 v 0 c 0.075,-0.033 0.152,-0.066 0.229,-0.097 m 0.26,-0.105 c -0.069,0.028 -0.138,0.055 -0.207,0.084 v 0 c -0.018,0.007 -0.035,0.014 -0.053,0.021 v 0 c 0.086,-0.036 0.173,-0.071 0.26,-0.105 m 0.703,-0.25 c -0.236,0.077 -0.471,0.16 -0.703,0.25 v 0 c 0.232,-0.091 0.467,-0.175 0.703,-0.25 m 6.686,0.03 c 0.009,0.005 0.02,0.006 0.029,0.01 v 0 c -0.009,-0.004 -0.02,-0.005 -0.029,-0.01 m -0.041,-0.013 c 0.015,0.004 0.026,0.009 0.041,0.013 v 0 c -0.015,-0.004 -0.026,-0.009 -0.041,-0.013 m -0.075,-0.024 c 0.027,0.008 0.053,0.016 0.075,0.024 v 0 c -0.022,-0.008 -0.048,-0.016 -0.075,-0.024 m -6.561,0.003 c -0.003,0 -0.006,0.004 -0.009,0.004 v 0 c 0.003,0 0.006,-0.004 0.009,-0.004 m 0.129,-0.039 c -0.043,0.013 -0.085,0.027 -0.129,0.039 v 0 c 0.044,-0.012 0.086,-0.026 0.129,-0.039 m 6.426,0.034 c 0,0 0.002,0 0.006,0.002 v 0 c -0.004,0 -0.006,-0.002 -0.006,-0.002 m -0.147,-0.044 c 0.048,0.014 0.098,0.028 0.147,0.044 v 0 c -0.049,-0.016 -0.099,-0.03 -0.147,-0.044 m -0.005,-0.003 c 10e-4,0.003 0.004,0.003 0.005,0.003 v 0 c -0.001,0 -0.004,0 -0.005,-0.003 m -0.065,-0.019 c 0.022,0.005 0.042,0.013 0.065,0.019 v 0 c -0.023,-0.006 -0.043,-0.014 -0.065,-0.019 m -0.021,-0.007 c 0.007,0.003 0.015,0.003 0.021,0.007 v 0 c -0.006,-0.004 -0.014,-0.004 -0.021,-0.007 m -0.05,-0.014 c 0.015,0.005 0.032,0.009 0.05,0.014 v 0 c -0.018,-0.005 -0.035,-0.009 -0.05,-0.014 m -0.053,-0.014 c 0.017,0.004 0.035,0.008 0.053,0.014 v 0 c -0.018,-0.006 -0.036,-0.01 -0.053,-0.014 m -0.02,-0.007 c 0.005,0.002 0.013,0.003 0.02,0.007 v 0 c -0.007,-0.004 -0.015,-0.005 -0.02,-0.007 m -1.074,-0.247 c 0.07,0.009 0.138,0.026 0.209,0.04 v 0 c 0.29,0.056 0.58,0.126 0.865,0.207 v 0 c -0.354,-0.099 -0.714,-0.182 -1.074,-0.247 m -3.014,-0.096 c 0.008,0 0.017,-0.002 0.024,-0.002 v 0 l -0.1,0.01 z m 0.04,-0.005 -0.016,0.003 c 0.005,-0.001 0.011,-0.002 0.016,-0.003 m 0.031,-0.004 h 0.004 c -0.013,0.002 -0.024,0.003 -0.035,0.004 v 0 z m 0.039,-0.005 0.131,-0.013 c -0.044,0.008 -0.092,0.009 -0.14,0.016 v 0 z m 0.369,-0.028 h -0.01 c 0.004,0 0.007,0 0.01,0 m 0.013,-10e-4 c -0.004,0 -0.009,0 -0.013,10e-4 v 0 z m 0.016,-0.002 c -0.006,10e-4 -0.011,10e-4 -0.016,0.002 v 0 z m 0.015,-0.001 -0.015,0.001 c 0.005,0 0.01,-0.001 0.015,-0.001 m 0.038,-0.003 -0.038,0.003 c 0.012,-10e-4 0.025,-0.002 0.038,-0.003 m 0.614,-0.021 h 0.009 z" /></clipPath><clipPath
       id="clipPath98"
       clipPathUnits="userSpaceOnUse"><path
         id="path96"
         d="M 0,0 H 841.89 V 595.28 H 0 Z" /></clipPath><clipPath
       id="clipPath110"
       clipPathUnits="userSpaceOnUse"><path
         id="path108"
         d="m 464.924,379.359 c -0.157,0.356 -0.334,0.708 -0.528,1.047 v 0 l 0.062,-0.107 h 0.002 l -0.064,0.107 c 0.194,-0.339 0.371,-0.691 0.528,-1.047" /></clipPath><clipPath
       id="clipPath116"
       clipPathUnits="userSpaceOnUse"><path
         id="path114"
         d="M 0,0 H 841.89 V 595.28 H 0 Z" /></clipPath><clipPath
       id="clipPath128"
       clipPathUnits="userSpaceOnUse"><path
         id="path126"
         d="M 0,595.28 H 841.89 V 0 H 0 Z" /></clipPath><clipPath
       id="clipPath134"
       clipPathUnits="userSpaceOnUse"><path
         id="path132"
         d="M 0,0 H 841.89 V 595.28 H 0 Z" /></clipPath><clipPath
       id="clipPath146"
       clipPathUnits="userSpaceOnUse"><path
         id="path144"
         d="m 369.8,369.889 -0.022,-0.032 0.029,0.041 z m -0.166,-0.237 0.144,0.205 z m -0.297,-0.481 c -0.755,-1.31 -1.207,-2.779 -1.381,-4.28 v 0 c 0.174,1.501 0.629,2.97 1.383,4.28 v 0 c 0.095,0.158 0.193,0.319 0.295,0.481 v 0 c -0.102,-0.162 -0.2,-0.323 -0.297,-0.481 m -1.389,-4.351 c 0.003,0.024 0.005,0.048 0.008,0.071 v 0 c -0.003,-0.023 -0.005,-0.047 -0.008,-0.071 m -0.008,-0.073 c 0.003,0.025 0.005,0.049 0.008,0.073 v 0 c -0.003,-0.024 -0.005,-0.048 -0.008,-0.073 m -0.024,-0.229 c 0.007,0.076 0.015,0.153 0.024,0.229 v 0 c -0.009,-0.076 -0.017,-0.153 -0.024,-0.229 m -0.037,-0.601 c 0.011,0.2 0.022,0.4 0.037,0.601 v 0 c -0.015,-0.201 -0.026,-0.401 -0.037,-0.601" /></clipPath><clipPath
       id="clipPath152"
       clipPathUnits="userSpaceOnUse"><path
         id="path150"
         d="M 0,0 H 841.89 V 595.28 H 0 Z" /></clipPath><clipPath
       id="clipPath164"
       clipPathUnits="userSpaceOnUse"><path
         id="path162"
         d="m 409.264,381.692 h -0.305 0.305 0.166 z m -0.605,-0.004 c 0.1,0 0.201,0.004 0.3,0.004 v 0 c -0.099,0 -0.2,-0.004 -0.3,-0.004 m -0.442,-0.004 c 0.147,10e-4 0.295,0.003 0.442,0.004 v 0 c -0.147,-10e-4 -0.295,-0.003 -0.442,-0.004 m -0.431,-0.008 c 0.144,0.003 0.287,0.006 0.431,0.008 v 0 c -0.144,-0.002 -0.287,-0.005 -0.431,-0.008 m -0.14,-0.002 c 0.047,0.001 0.094,0.002 0.14,0.002 v 0 c -0.046,0 -0.093,-10e-4 -0.14,-0.002 m -16.77,-2.031 c 5.119,1.132 10.836,1.911 16.77,2.031 v 0 c -5.934,-0.12 -11.653,-0.899 -16.77,-2.031 m -0.356,-0.077 c -1.07,-0.235 -2.135,-0.498 -3.193,-0.784 v 0 l -0.098,-0.031 0.098,0.031 c 1.058,0.286 2.123,0.549 3.193,0.784 v 0 l 0.356,0.077 z m -10.381,-3.214 c 2.322,0.936 4.682,1.741 7.09,2.399 v 0 c -2.408,-0.658 -4.771,-1.463 -7.09,-2.399 m -0.209,-0.086 0.209,0.086 z m -0.738,-0.305 c 0.244,0.106 0.492,0.207 0.738,0.305 v 0 c -0.246,-0.098 -0.495,-0.199 -0.738,-0.305 m -0.397,-0.171 c -0.312,-0.136 -0.625,-0.271 -0.935,-0.416 v 0 c -0.027,-0.011 -0.057,-0.024 -0.085,-0.037 v 0 c 0.028,0.013 0.058,0.026 0.085,0.037 v 0 c 0.31,0.145 0.623,0.28 0.935,0.416 v 0 l 0.397,0.171 z m -1.618,-0.72 c -1.383,-0.641 -2.754,-1.332 -4.105,-2.074 v 0 c 1.354,0.742 2.722,1.433 4.108,2.074 v 0 c 0.196,0.091 0.392,0.183 0.595,0.267 v 0 c -0.203,-0.084 -0.399,-0.176 -0.598,-0.267 m -7.075,-4.763 -0.069,-0.094 0.069,0.094 c 0.82,1.062 1.84,1.972 2.97,2.689 v 0 c -1.13,-0.717 -2.15,-1.627 -2.97,-2.689 m -0.17,-0.229 -0.12,-0.168 -0.003,-0.006 0.005,0.006 0.123,0.168 0.096,0.135 z m -0.132,-0.189 0.007,0.009 0.002,0.006 z" /></clipPath><clipPath
       id="clipPath170"
       clipPathUnits="userSpaceOnUse"><path
         id="path168"
         d="M 0,0 H 841.89 V 595.28 H 0 Z" /></clipPath><clipPath
       id="clipPath182"
       clipPathUnits="userSpaceOnUse"><path
         id="path180"
         d="m 445.04,363.129 c -9.306,3.789 -18.02,5.255 -25.797,5.255 v 0 c 7.777,0 16.491,-1.466 25.797,-5.255 M 379.709,323.9 c -7.155,12.393 -11.216,25.768 -11.784,38.76 v 0 c 0.568,-12.992 4.626,-26.367 11.784,-38.76 m 25.094,-27.796 c 3.286,-2.258 7.325,-3.637 13.222,-3.637 v 0 h 0.001 c -5.898,0 -9.937,1.379 -13.22,3.637 v 0 c -9.881,6.83 -18.503,16.371 -25.097,27.796 v 0 c 6.594,-11.425 15.216,-20.966 25.094,-27.796" /></clipPath><clipPath
       id="clipPath188"
       clipPathUnits="userSpaceOnUse"><path
         id="path186"
         d="M 0,0 H 841.89 V 595.28 H 0 Z" /></clipPath><clipPath
       id="clipPath200"
       clipPathUnits="userSpaceOnUse"><path
         id="path198"
         d="m 409.264,381.692 c -6.51,0 -12.803,-0.817 -18.388,-2.049 v 0 l -0.356,-0.077 c -1.07,-0.235 -2.135,-0.498 -3.193,-0.784 v 0 l -0.098,-0.031 c -2.408,-0.658 -4.768,-1.463 -7.09,-2.399 v 0 l -0.209,-0.086 c -0.246,-0.098 -0.494,-0.199 -0.738,-0.305 v 0 l -0.397,-0.171 c -0.312,-0.136 -0.625,-0.271 -0.935,-0.416 v 0 c -0.23,-0.094 -0.454,-0.198 -0.68,-0.304 v 0 c -1.386,-0.641 -2.754,-1.332 -4.108,-2.074 v 0 c -1.13,-0.717 -2.15,-1.627 -2.97,-2.689 v 0 l -0.069,-0.094 -0.096,-0.135 -0.123,-0.168 -0.014,-0.021 -0.022,-0.032 -0.144,-0.205 c -0.102,-0.162 -0.2,-0.323 -0.295,-0.481 v 0 c -0.919,-1.59 -1.39,-3.422 -1.46,-5.254 v 0 c 0.014,-0.419 0.028,-0.836 0.046,-1.257 v 0 c 0.568,-12.992 4.629,-26.367 11.784,-38.76 v 0 c 6.594,-11.425 15.216,-20.966 25.097,-27.796 v 0 c 3.283,-2.258 7.322,-3.637 13.22,-3.637 v 0 h 0.004 8.568 -0.021 0.021 -0.042 c -0.177,0.002 -0.344,0.008 -0.518,0.017 v 0 h -0.002 l -0.049,0.004 c -0.032,0.003 -0.06,0.005 -0.092,0.007 v 0 l -0.11,0.005 h -0.008 l -0.054,0.006 -0.056,0.004 c -0.044,0.008 -0.092,0.009 -0.14,0.016 v 0 l -0.014,0.002 h -0.012 c -0.022,0.003 -0.049,0.007 -0.075,0.009 v 0 c -0.04,0.003 -0.079,0.007 -0.116,0.012 v 0 l -0.074,0.012 c -0.104,0.014 -0.209,0.028 -0.314,0.046 v 0 c -0.187,0.029 -0.371,0.064 -0.552,0.105 v 0 c -1.028,0.224 -2.029,0.584 -2.955,1.072 v 0 c -0.402,0.247 -0.808,0.497 -1.206,0.746 v 0 l -0.036,0.024 -0.355,0.231 -0.066,0.044 -0.333,0.22 -0.084,0.049 -0.332,0.224 -0.075,0.049 -0.331,0.22 -0.073,0.051 -0.335,0.233 -0.058,0.032 -0.347,0.242 -0.031,0.027 c -3.014,2.105 -5.81,4.432 -8.402,6.985 v 0 l -0.063,0.068 -0.303,0.301 -0.003,0.005 c -0.368,0.364 -0.731,0.748 -1.091,1.12 v 0 l -0.066,0.071 -0.211,0.225 -0.113,0.118 -0.193,0.21 -0.122,0.132 -0.182,0.202 c -3.974,4.306 -7.952,9.499 -11.295,15.313 v 0 -0.002 c -7.333,12.701 -10.845,22.246 -10.443,29.271 v 0 c 0.305,5.473 2.98,9.415 8.064,12.121 v 0 c 0.154,0.081 0.309,0.158 0.461,0.237 v 0 -0.018 c 6.229,3.2 14.993,5.849 25.452,5.849 v 0 c 7.777,0 16.491,-1.466 25.797,-5.255 v 0 c 0.456,-0.185 0.913,-0.378 1.377,-0.576 v 0 c 0.005,0.176 0.018,0.344 0.023,0.519 v 0 c 0.009,0.254 0.013,0.506 0.013,0.76 v 0 c -0.004,12.592 -11.469,17.86 -37.023,17.86 v 0 z" /></clipPath><clipPath
       id="clipPath206"
       clipPathUnits="userSpaceOnUse"><path
         id="path204"
         d="M 0,0 H 841.89 V 595.28 H 0 Z" /></clipPath><clipPath
       id="clipPath218"
       clipPathUnits="userSpaceOnUse"><path
         id="path216"
         d="M 0,595.28 H 841.89 V 0 H 0 Z" /></clipPath><clipPath
       id="clipPath224"
       clipPathUnits="userSpaceOnUse"><path
         id="path222"
         d="M 0,0 H 841.89 V 595.28 H 0 Z" /></clipPath><clipPath
       id="clipPath236"
       clipPathUnits="userSpaceOnUse"><path
         id="path234"
         d="m 464.924,379.359 c -0.137,0.319 -0.295,0.636 -0.464,0.94 v 0 l -0.064,0.107 c 0.194,-0.339 0.371,-0.691 0.528,-1.047" /></clipPath><clipPath
       id="clipPath242"
       clipPathUnits="userSpaceOnUse"><path
         id="path240"
         d="M 0,0 H 841.89 V 595.28 H 0 Z" /></clipPath><clipPath
       id="clipPath254"
       clipPathUnits="userSpaceOnUse"><path
         id="path252"
         d="m 464.924,379.359 c 0.144,-0.329 0.268,-0.663 0.38,-1.006 v 0 c 0.277,-0.871 0.45,-1.777 0.522,-2.685 v 0 c -0.067,0.918 -0.243,1.837 -0.524,2.715 v 0 c -0.172,0.539 -0.387,1.062 -0.642,1.57 v 0 l -0.2,0.346 c 0.169,-0.304 0.327,-0.621 0.464,-0.94" /></clipPath><clipPath
       id="clipPath260"
       clipPathUnits="userSpaceOnUse"><path
         id="path258"
         d="M 0,0 H 841.89 V 595.28 H 0 Z" /></clipPath><clipPath
       id="clipPath272"
       clipPathUnits="userSpaceOnUse"><path
         id="path270"
         d="m 418.473,295.683 c -0.052,0.034 -0.102,0.07 -0.154,0.104 v 0 c 0.052,-0.034 0.102,-0.07 0.154,-0.104 m 0.22,-0.151 c -0.072,0.05 -0.147,0.101 -0.22,0.151 v 0 c 0.073,-0.053 0.148,-0.101 0.22,-0.151 m 0.403,-0.268 c -0.087,0.058 -0.173,0.115 -0.259,0.173 v 0 c -0.047,0.034 -0.095,0.064 -0.144,0.095 v 0 c 0.135,-0.09 0.269,-0.179 0.403,-0.268 m 1.061,-0.693 c -0.356,0.228 -0.709,0.459 -1.061,0.693 v 0 c 0.35,-0.233 0.705,-0.465 1.061,-0.693 m 3.501,-1.679 c -0.069,0.018 -0.142,0.043 -0.209,0.062 v 0 c 0.067,-0.019 0.14,-0.044 0.209,-0.062 m 0.002,-10e-4 c 0.008,-0.003 0.012,-0.004 0.019,-0.004 v 0 c -0.007,10e-4 -0.017,0.004 -0.021,0.005 v 0 c 0,-10e-4 0,-10e-4 0.002,-10e-4 m 0.074,-0.02 c -0.018,0.004 -0.037,0.011 -0.055,0.016 v 0 c 0.018,-0.005 0.037,-0.012 0.055,-0.016 m 0.075,-0.019 c -0.025,0.005 -0.049,0.013 -0.075,0.019 v 0 c 0.026,-0.006 0.05,-0.014 0.075,-0.019 m 0.007,-0.004 c -0.002,0 -0.004,0 -0.007,0.004 v 0 c 0.003,-0.004 0.005,-0.004 0.007,-0.004 m 0.088,-0.026 c -0.03,0.009 -0.062,0.021 -0.088,0.026 v 0 c 0.026,-0.005 0.058,-0.017 0.088,-0.026 m 0.092,-0.021 c -0.032,0.007 -0.061,0.016 -0.092,0.021 v 0 c 0.031,-0.005 0.06,-0.014 0.092,-0.021 m 0,0 h 0.002 z m 0.085,-0.02 c -0.029,0.004 -0.057,0.013 -0.083,0.02 v 0 c 0.026,-0.007 0.054,-0.016 0.083,-0.02 m 0.013,-0.004 c -0.004,0.001 -0.011,0.001 -0.013,0.004 v 0 c 0.002,-0.003 0.009,-0.003 0.013,-0.004 m 0.07,-0.016 c -0.021,0.005 -0.044,0.008 -0.07,0.016 v 0 c 0.026,-0.008 0.049,-0.011 0.07,-0.016 m 0.032,-0.009 c -0.009,0.005 -0.023,0.007 -0.032,0.009 v 0 c 0.009,-0.002 0.023,-0.004 0.032,-0.009 m 0.052,-0.01 c -0.018,0 -0.036,0.005 -0.052,0.01 v 0 c 0.016,-0.005 0.034,-0.01 0.052,-0.01 m 0.049,-0.013 c -0.014,0.004 -0.032,0.009 -0.049,0.013 v 0 c 0.017,-0.004 0.035,-0.009 0.049,-0.013 m 0.037,-0.009 c -0.012,10e-4 -0.025,0.006 -0.037,0.009 v 0 c 0.012,-0.003 0.025,-0.008 0.037,-0.009 m 0.063,-0.014 c -0.023,0.005 -0.043,0.011 -0.063,0.014 v 0 c 0.02,-0.003 0.04,-0.009 0.063,-0.014 m 0.027,-0.007 c -0.009,0.003 -0.019,0.004 -0.027,0.007 v 0 c 0.008,-0.003 0.018,-0.004 0.027,-0.007 m 0.065,-0.01 c -0.021,0.004 -0.044,0.009 -0.065,0.01 v 0 c 0.021,-0.001 0.044,-0.006 0.065,-0.01 m 0.034,-0.007 c -0.011,0 -0.024,0.002 -0.034,0.007 v 0 c 0.01,-0.005 0.023,-0.007 0.034,-0.007 m 0.051,-0.011 c -0.018,0.005 -0.034,0.006 -0.051,0.011 v 0 c 0.017,-0.005 0.033,-0.006 0.051,-0.011 m 0.056,-0.008 c -0.018,0 -0.039,0.004 -0.056,0.008 v 0 c 0.017,-0.004 0.038,-0.008 0.056,-0.008 m 0.022,-0.007 c -0.007,0.002 -0.015,0.003 -0.022,0.007 v 0 c 0.007,-0.004 0.015,-0.005 0.022,-0.007 m 0.447,-0.076 c -0.059,0.008 -0.118,0.017 -0.177,0.027 v 0 c -0.09,0.013 -0.179,0.031 -0.27,0.049 v 0 c 0.148,-0.032 0.298,-0.055 0.447,-0.076 m 0.032,-0.004 c -0.011,0 -0.021,0.002 -0.032,0.004 v 0 c 0.011,-0.002 0.021,-0.004 0.032,-0.004 m 0.037,-0.006 c -0.013,0.002 -0.024,0.004 -0.037,0.006 v 0 c 0.013,-0.002 0.024,-0.004 0.037,-0.006 m 0.113,-0.016 -0.027,0.005 c 0.009,-0.003 0.018,-0.004 0.027,-0.005 m 0.027,-0.005 c -0.009,0.002 -0.018,0.004 -0.027,0.005 v 0 z m 0,0 0.042,-0.004 -0.04,0.004 z" /></clipPath><clipPath
       id="clipPath278"
       clipPathUnits="userSpaceOnUse"><path
         id="path276"
         d="M 0,0 H 841.89 V 595.28 H 0 Z" /></clipPath><clipPath
       id="clipPath290"
       clipPathUnits="userSpaceOnUse"><path
         id="path288"
         d="m 460.617,324.084 c -7.385,-12.793 -17.323,-23.255 -28.741,-30.253 v 0 c -0.964,-0.514 -2.001,-0.899 -3.07,-1.126 v 0 c 1.069,0.227 2.108,0.612 3.072,1.126 v 0 c 11.418,6.998 21.354,17.46 28.743,30.253 v 0 c 4.333,7.507 7.529,15.369 9.483,23.27 v 0 c -1.957,-7.901 -5.152,-15.763 -9.487,-23.27 m -45.461,-25.992 c 0.004,-0.002 0.008,-0.007 0.015,-0.009 v 0 c -0.005,0.002 -0.009,0.007 -0.014,0.009 v 0 l -0.049,0.037 z m 0.034,-0.024 c -0.007,0.004 -0.015,0.01 -0.019,0.015 v 0 c 0.004,-0.007 0.012,-0.011 0.019,-0.015 m 3.834,-2.755 c -0.062,0.039 -0.124,0.083 -0.187,0.124 v 0 c 0.063,-0.041 0.125,-0.085 0.187,-0.124 m 0.118,-0.08 c -0.038,0.024 -0.079,0.053 -0.118,0.08 v 0 c 0.039,-0.027 0.08,-0.056 0.118,-0.08 m 0.038,-0.025 c -0.012,0.008 -0.025,0.018 -0.038,0.025 v 0 c 0.013,-0.009 0.026,-0.017 0.038,-0.025 m 0.225,-0.149 c -0.075,0.051 -0.15,0.1 -0.225,0.149 v 0 c 0.075,-0.049 0.15,-0.098 0.225,-0.149 m 0.044,-0.028 c -0.014,0.009 -0.03,0.018 -0.044,0.028 v 0 c 0.014,-0.01 0.03,-0.019 0.044,-0.028 m 0.235,-0.154 c -0.078,0.051 -0.156,0.102 -0.235,0.154 v 0 c 0.079,-0.052 0.157,-0.104 0.235,-0.154 m 0.989,-0.636 c -0.171,0.114 -0.343,0.22 -0.516,0.33 v 0 c -0.158,0.102 -0.315,0.203 -0.473,0.306 v 0 c 0.328,-0.214 0.656,-0.427 0.989,-0.636 m 2.503,-1.199 c -0.263,0.086 -0.522,0.184 -0.775,0.289 v 0 c 0.253,-0.105 0.512,-0.203 0.775,-0.289 m 0.039,-0.013 c -0.011,0.004 -0.026,0.008 -0.039,0.013 v 0 c 0.013,-0.005 0.028,-0.009 0.039,-0.013 m 0.057,-0.02 c -0.018,0.007 -0.037,0.014 -0.057,0.02 v 0 c 0.02,-0.006 0.039,-0.013 0.057,-0.02 m 0.177,-0.055 h 10e-4 c -0.058,0.019 -0.119,0.037 -0.178,0.055 v 0 c 0.057,-0.019 0.119,-0.037 0.177,-0.055 m 0.004,0 c -10e-4,0 -0.002,0 -0.003,0 v 0 c 0.001,0 0.002,0 0.003,0 m 0.003,-0.001 c -0.001,0 -0.002,0 -0.003,0.001 v 0 c 0.001,-0.001 0.002,-0.001 0.003,-0.001 m 0.013,-0.005 c -0.005,0.002 -0.009,0.003 -0.013,0.005 v 0 c 0.004,-0.002 0.008,-0.004 0.013,-0.005 m 0.014,-0.004 c -0.004,10e-4 -0.01,0.004 -0.014,0.004 v 0 c 0.004,0 0.01,-0.003 0.014,-0.004 m 0.177,-0.053 c -0.059,0.015 -0.116,0.032 -0.177,0.053 v 0 c 0.061,-0.021 0.118,-0.038 0.177,-0.053 m 5.095,-0.197 c 0.017,0.004 0.034,0.007 0.051,0.011 v 0 c -0.017,-0.004 -0.034,-0.007 -0.051,-0.011 m -0.053,-0.01 c 0.017,0.003 0.035,0.007 0.053,0.01 v 0 c -0.018,-0.003 -0.036,-0.007 -0.053,-0.01 m -0.053,-0.011 c 0.018,0.003 0.035,0.007 0.053,0.011 v 0 c -0.018,-0.004 -0.035,-0.008 -0.053,-0.011 m -3.404,-0.112 h 0.006 z m 0.009,-0.002 0.096,-0.014 0.147,-0.017 -0.147,0.017 -0.099,0.016 z m 0.413,-0.049 c 0.026,0 0.052,-10e-4 0.079,-0.006 v 0 l -0.023,0.005 -0.187,0.014 z" /></clipPath><clipPath
       id="clipPath296"
       clipPathUnits="userSpaceOnUse"><path
         id="path294"
         d="M 0,0 H 841.89 V 595.28 H 0 Z" /></clipPath><clipPath
       id="clipPath308"
       clipPathUnits="userSpaceOnUse"><path
         id="path306"
         d="m 425.188,292.568 c -0.006,0 -0.014,0.001 -0.02,0.002 v 0 c -0.081,0.011 -0.164,0.024 -0.246,0.037 v 0 c 0.089,-0.015 0.178,-0.028 0.266,-0.039 m 0.048,-0.007 c -0.017,0.002 -0.032,0.005 -0.048,0.007 v 0 c 0.016,-0.003 0.032,-0.006 0.048,-0.007 m 0,0 0.023,-0.003 c -0.005,0.001 -0.01,0.001 -0.014,0.003 v 0 z m 0.054,-0.009 -0.031,0.006 c 0.011,-0.003 0.021,-0.004 0.031,-0.006 m 0.02,-0.003 c -0.007,0.001 -0.013,0.003 -0.02,0.003 v 0 z m 0.413,-0.043 0.054,-0.006 -0.031,0.004 c -0.027,0.005 -0.053,0.006 -0.079,0.006 v 0 z" /></clipPath><clipPath
       id="clipPath314"
       clipPathUnits="userSpaceOnUse"><path
         id="path312"
         d="M 0,0 H 841.89 V 595.28 H 0 Z" /></clipPath><clipPath
       id="clipPath326"
       clipPathUnits="userSpaceOnUse"><path
         id="path324"
         d="m 472.099,359.152 c 0.009,0.092 0.018,0.186 0.024,0.278 v 0 c -0.006,-0.092 -0.015,-0.186 -0.024,-0.278 m -0.026,-0.282 c 0.009,0.093 0.018,0.187 0.026,0.282 v 0 c -0.008,-0.095 -0.017,-0.189 -0.026,-0.282 m -11.456,-34.758 c -7.385,-12.793 -17.323,-23.254 -28.741,-30.253 v 0 c -1.618,-0.857 -3.441,-1.362 -5.275,-1.362 v 0 h -0.024 0.024 c -0.189,0 -0.374,0.003 -0.563,0.017 v 0 h -0.002 l -0.251,0.014 -0.062,0.009 -0.21,0.017 -0.163,0.022 -0.114,0.013 c -1.332,0.179 -2.631,0.611 -3.816,1.227 v 0 c -1.32,0.799 -2.601,1.639 -3.848,2.521 v 0 c -0.207,0.142 -0.408,0.285 -0.609,0.432 v 0 c -0.275,0.205 -0.551,0.404 -0.824,0.609 v 0 l -0.346,0.256 c -0.215,0.159 -0.423,0.321 -0.637,0.488 v 0 l -0.179,0.136 c -1.968,1.541 -3.844,3.189 -5.617,4.943 v 0 l -0.076,0.07 c -0.779,0.771 -1.538,1.56 -2.276,2.37 v 0 l -0.247,0.268 c -3.893,4.254 -7.772,9.35 -11.047,15.045 v 0 l -0.004,-0.004 c -6.109,10.582 -9.563,18.976 -10.315,25.543 v 0 c 0.745,-6.57 4.202,-14.974 10.32,-25.569 v 0 0.002 c 3.274,-5.7 7.156,-10.791 11.046,-15.043 v 0 l 0.253,-0.27 c 0.732,-0.808 1.492,-1.599 2.274,-2.372 v 0 l 0.073,-0.074 c 1.776,-1.751 3.648,-3.399 5.618,-4.939 v 0 l 0.129,-0.099 0.048,-0.037 c 0.01,-0.007 0.019,-0.016 0.034,-0.024 v 0 c 0.202,-0.157 0.401,-0.308 0.607,-0.466 v 0 l 0.342,-0.255 c 0.278,-0.207 0.551,-0.407 0.827,-0.606 v 0 c 0.203,-0.145 0.404,-0.294 0.609,-0.435 v 0 c 0.247,-0.174 0.494,-0.346 0.744,-0.519 v 0 c 0.171,-0.117 0.343,-0.232 0.518,-0.35 v 0 c 0.603,-0.406 1.216,-0.801 1.836,-1.196 v 0 c 0.249,-0.15 0.499,-0.304 0.749,-0.457 v 0 c 0.319,-0.166 0.646,-0.317 0.979,-0.453 v 0 c 0.409,-0.17 0.831,-0.317 1.259,-0.44 v 0 c 0.496,-0.141 1,-0.251 1.508,-0.321 v 0 c 0.023,-0.002 0.046,-0.007 0.068,-0.009 v 0 h 0.009 l 0.105,-0.016 0.147,-0.017 h 0.017 l 0.022,-0.005 0.187,-0.014 0.023,-0.005 0.031,-0.004 h 0.009 l 0.252,-0.016 c 0.188,-0.009 0.374,-0.01 0.563,-0.015 v 0 c 0.688,0 1.372,0.068 2.048,0.204 v 0 c 1.125,0.222 2.216,0.62 3.227,1.158 v 0 c 11.418,6.998 21.356,17.46 28.741,30.253 v 0 c 4.335,7.507 7.53,15.369 9.487,23.27 v 0 c 0.953,3.839 1.61,7.689 1.969,11.516 v 0 c -1.102,-11.691 -5.017,-23.61 -11.456,-34.758 m -34.04,-31.643 h 0.024 z" /></clipPath><clipPath
       id="clipPath332"
       clipPathUnits="userSpaceOnUse"><path
         id="path330"
         d="M 0,0 H 841.89 V 595.28 H 0 Z" /></clipPath><clipPath
       id="clipPath344"
       clipPathUnits="userSpaceOnUse"><path
         id="path342"
         d="m 465.302,378.383 c 0.281,-0.878 0.457,-1.797 0.524,-2.715 v 0 c 0.011,-0.137 0.017,-0.273 0.027,-0.406 v 0 c -0.015,-0.473 -0.032,-0.952 -0.047,-1.419 v 0 l -0.003,-0.049 -0.022,-0.417 -0.005,-0.08 -0.022,-0.395 -0.003,-0.1 -0.027,-0.399 -0.005,-0.088 -0.027,-0.397 -0.009,-0.091 -0.027,-0.406 -0.007,-0.066 -0.033,-0.429 -0.006,-0.032 c -0.315,-3.663 -0.937,-7.251 -1.852,-10.766 v 0 h 0.005 l -0.031,-0.097 -0.109,-0.407 -0.002,-0.005 c -0.131,-0.506 -0.279,-1.008 -0.423,-1.509 v 0 l -0.032,-0.087 -0.084,-0.298 -0.049,-0.155 -0.085,-0.273 -0.053,-0.174 -0.084,-0.264 c -1.746,-5.591 -4.248,-11.632 -7.614,-17.433 v 0 h 10e-4 c -9.85,-17.06 -18.225,-25.301 -26.536,-25.301 v 0 c -2.688,0 -5.368,0.857 -8.09,2.56 v 0 l -0.438,0.281 -0.004,-0.001 c -10.485,6.741 -23.46,21.328 -26.339,45.559 v 0 c -0.152,-0.08 -0.305,-0.16 -0.453,-0.239 v 0 c -6.166,-3.272 -8.787,-8.363 -7.943,-15.792 v 0 c 0.752,-6.567 4.206,-14.961 10.315,-25.543 v 0 l 0.004,0.004 c 3.275,-5.695 7.154,-10.791 11.047,-15.045 v 0 l 0.247,-0.268 c 0.738,-0.81 1.497,-1.599 2.276,-2.37 v 0 l 0.076,-0.07 c 1.773,-1.754 3.649,-3.402 5.617,-4.943 v 0 l 0.179,-0.136 c 0.214,-0.167 0.422,-0.329 0.637,-0.488 v 0 l 0.346,-0.256 c 0.273,-0.205 0.549,-0.404 0.824,-0.609 v 0 c 0.201,-0.147 0.402,-0.29 0.609,-0.432 v 0 c 1.247,-0.882 2.528,-1.722 3.848,-2.521 v 0 c 1.185,-0.616 2.484,-1.048 3.816,-1.227 v 0 l 0.114,-0.013 0.163,-0.022 0.21,-0.017 0.062,-0.009 0.251,-0.014 h 0.002 c 0.189,-0.014 0.374,-0.017 0.563,-0.017 v 0 c 1.834,0 3.657,0.505 5.275,1.362 v 0 c 11.418,6.999 21.356,17.46 28.741,30.253 v 0 c 6.54,11.329 10.48,23.447 11.506,35.318 v 0 c 0.008,0.097 0.017,0.187 0.023,0.281 v 0 c 0.312,3.976 -0.515,8.168 -3.467,13.28 v 0 l -4.019,6.962 c 0.255,-0.508 0.47,-1.031 0.642,-1.57 m -38.725,-85.886 h 0.024 z" /></clipPath><clipPath
       id="clipPath350"
       clipPathUnits="userSpaceOnUse"><path
         id="path348"
         d="M 0,0 H 841.89 V 595.28 H 0 Z" /></clipPath><clipPath
       id="clipPath362"
       clipPathUnits="userSpaceOnUse"><path
         id="path360"
         d="m 464.699,379.909 v -0.005 -0.004 c 0.362,-0.752 0.631,-1.552 0.813,-2.366 v 0 c 0.09,-0.407 0.162,-0.82 0.211,-1.233 v 0 c 0.023,-0.208 0.042,-0.418 0.058,-0.624 v 0 l 0.015,-0.312 0.004,-0.077 v -0.033 l -0.004,-0.041 -0.005,-0.154 c -0.068,-1.677 -0.193,-3.347 -0.387,-5.012 v 0 c -0.189,-1.666 -0.432,-3.323 -0.747,-4.971 v 0 c -0.313,-1.639 -0.684,-3.273 -1.118,-4.886 v 0 -0.009 l -0.004,-0.011 -0.007,-0.043 -0.006,-0.021 -0.009,-0.019 h 0.002 c -0.246,-0.895 -0.504,-1.785 -0.785,-2.667 v 0 l -0.431,-1.326 c -0.144,-0.437 -0.293,-0.88 -0.445,-1.323 v 0 c -0.608,-1.753 -1.267,-3.489 -1.986,-5.203 v 0 c -0.715,-1.706 -1.484,-3.398 -2.302,-5.064 v 0 c -0.82,-1.662 -1.696,-3.301 -2.628,-4.903 v 0 l -0.113,-0.19 c -1.934,-3.336 -3.955,-6.622 -6.162,-9.777 v 0 c -2.244,-3.217 -4.67,-6.319 -7.463,-9.057 v 0 c -1.401,-1.36 -2.898,-2.628 -4.542,-3.678 v 0 c -1.632,-1.055 -3.419,-1.894 -5.321,-2.32 v 0 c -0.945,-0.212 -1.919,-0.322 -2.893,-0.314 v 0 c -0.975,10e-4 -1.946,0.123 -2.898,0.351 v 0 c -0.952,0.222 -1.884,0.55 -2.777,0.952 v 0 c -0.898,0.395 -1.763,0.868 -2.594,1.397 v 0 c 0.813,-0.558 1.664,-1.063 2.549,-1.496 v 0 c 0.889,-0.429 1.814,-0.785 2.777,-1.04 v 0 c 0.957,-0.256 1.944,-0.408 2.939,-0.443 v 0 c 0.992,-0.031 1.993,0.051 2.971,0.243 v 0 c 1.963,0.401 3.812,1.22 5.499,2.266 v 0 c 1.692,1.05 3.238,2.315 4.679,3.678 v 0 c 1.441,1.362 2.773,2.83 4.032,4.359 v 0 c 1.262,1.521 2.456,3.101 3.596,4.711 v 0 c 1.135,1.618 2.225,3.268 3.278,4.935 v 0 c 1.052,1.673 2.067,3.362 3.051,5.074 v 0 l 0.17,0.299 -0.007,0.002 c 0.872,1.523 1.699,3.076 2.471,4.649 v 0 c 0.411,0.843 0.807,1.686 1.19,2.543 v 0 c 0.381,0.853 0.75,1.715 1.102,2.576 v 0 c 0.708,1.732 1.359,3.484 1.951,5.256 v 0 c 0.303,0.887 0.579,1.785 0.846,2.675 v 0 c 0.272,0.897 0.521,1.795 0.755,2.698 v 0 l -0.006,-0.017 0.018,0.079 0.012,0.053 c 0.416,1.631 0.762,3.279 1.041,4.936 v 0 c 0.278,1.662 0.5,3.335 0.642,5.013 v 0 c 0.149,1.676 0.228,3.359 0.248,5.037 v 0 l 0.001,0.159 v 0.038 l -0.001,0.05 -0.008,0.077 -0.024,0.314 c -0.021,0.209 -0.044,0.422 -0.074,0.629 v 0 c -0.061,0.42 -0.145,0.834 -0.25,1.242 v 0 c -0.21,0.817 -0.511,1.608 -0.905,2.355 v 0 h -0.002 0.002 c -0.089,0.164 -0.18,0.329 -0.278,0.49 v 0 c 0.091,-0.163 0.175,-0.331 0.259,-0.497" /></clipPath><linearGradient
       id="linearGradient376"
       spreadMethod="pad"
       gradientTransform="matrix(-38.58803,-66.83629,66.83629,-38.58803,462.8716,381.4258)"
       gradientUnits="userSpaceOnUse"
       y2="0"
       x2="1"
       y1="0"
       x1="0"><stop
         id="stop372"
         offset="0"
         style="stop-opacity:1;stop-color:#1c345d" /><stop
         id="stop374"
         offset="1"
         style="stop-opacity:1;stop-color:#1c345d" /></linearGradient><clipPath
       id="clipPath386"
       clipPathUnits="userSpaceOnUse"><path
         id="path384"
         d="m 409.473,382.043 -0.296,-0.003 -0.002,-0.004 c -1.771,-0.006 -3.541,-0.068 -5.308,-0.189 v 0 c -0.933,-0.063 -1.865,-0.143 -2.792,-0.238 v 0 c -0.931,-0.098 -1.863,-0.212 -2.788,-0.334 v 0 c -1.851,-0.255 -3.697,-0.567 -5.528,-0.94 v 0 c -0.913,-0.178 -1.831,-0.391 -2.736,-0.603 v 0 c -0.912,-0.212 -1.819,-0.448 -2.718,-0.698 v 0 l 0.022,0.005 -0.082,-0.019 -0.039,-0.014 c -1.622,-0.46 -3.23,-0.983 -4.807,-1.576 v 0 c -1.576,-0.588 -3.138,-1.23 -4.661,-1.946 v 0 c -1.524,-0.71 -3.022,-1.483 -4.489,-2.309 v 0 c -1.449,-0.888 -2.681,-2.101 -3.577,-3.52 v 0 c -0.097,-0.153 -0.187,-0.308 -0.277,-0.464 v 0 l -0.011,-0.02 0.003,-0.004 c 0.096,0.16 0.197,0.321 0.302,0.479 v 0 h 0.003 c 0.47,0.687 1.028,1.32 1.642,1.885 v 0 c 0.309,0.286 0.631,0.55 0.965,0.8 v 0 c 0.167,0.125 0.339,0.246 0.512,0.361 v 0 l 0.262,0.171 0.067,0.048 0.026,0.01 0.034,0.021 0.139,0.07 c 1.486,0.78 2.995,1.505 4.537,2.173 v 0 c 1.533,0.666 3.09,1.287 4.67,1.837 v 0 c 1.582,0.549 3.181,1.044 4.797,1.476 v 0 l 0.009,0.003 0.009,0.001 0.043,0.016 0.018,0.005 0.023,0.006 c 0.895,0.232 1.8,0.456 2.699,0.65 v 0 l 1.367,0.293 c 0.453,0.094 0.908,0.186 1.368,0.277 v 0 c 1.822,0.349 3.653,0.643 5.494,0.879 v 0 c 1.841,0.234 3.688,0.413 5.539,0.537 v 0 c 1.853,0.122 3.708,0.179 5.561,0.179 v 0 c 3.933,-0.011 7.863,-0.114 11.773,-0.452 v 0 c 3.902,-0.337 7.803,-0.884 11.575,-1.938 v 0 c 1.878,-0.531 3.723,-1.199 5.455,-2.091 v 0 c 1.73,-0.889 3.351,-2.014 4.667,-3.447 v 0 c 0.659,-0.716 1.239,-1.503 1.722,-2.349 v 0 c 0.481,-0.846 0.863,-1.754 1.145,-2.69 v 0 c 0.279,-0.933 0.461,-1.902 0.562,-2.875 v 0 c 0.104,-0.98 0.126,-1.963 0.09,-2.949 v 0 c 0.074,0.985 0.086,1.969 0.017,2.955 v 0 c -0.07,0.985 -0.228,1.968 -0.485,2.927 v 0 c -0.262,0.953 -0.621,1.888 -1.088,2.766 v 0 c -0.469,0.877 -1.038,1.701 -1.698,2.453 v 0 c -1.322,1.5 -2.963,2.686 -4.709,3.63 v 0 c -1.757,0.942 -3.624,1.645 -5.523,2.21 v 0 c -1.901,0.567 -3.843,0.986 -5.792,1.316 v 0 c -1.948,0.327 -3.912,0.574 -5.881,0.754 v 0 c -1.968,0.177 -3.941,0.296 -5.911,0.374 v 0 c -1.875,0.067 -3.747,0.105 -5.624,0.105 v 0 z" /></clipPath><linearGradient
       id="linearGradient400"
       spreadMethod="pad"
       gradientTransform="matrix(77.15799,0,0,77.15799,369.4038,372.3291)"
       gradientUnits="userSpaceOnUse"
       y2="0"
       x2="1"
       y1="0"
       x1="0"><stop
         id="stop396"
         offset="0"
         style="stop-opacity:1;stop-color:#1c345d" /><stop
         id="stop398"
         offset="1"
         style="stop-opacity:1;stop-color:#1c345d" /></linearGradient><clipPath
       id="clipPath410"
       clipPathUnits="userSpaceOnUse"><path
         id="path408"
         d="m 391.222,361.095 c -0.816,-0.554 -1.588,-1.183 -2.29,-1.886 v 0 c -0.697,-0.699 -1.324,-1.48 -1.849,-2.32 v 0 c -0.528,-0.847 -0.957,-1.757 -1.276,-2.697 v 0 c -0.64,-1.896 -0.846,-3.913 -0.79,-5.897 v 0 c 0.062,-1.991 0.386,-3.957 0.848,-5.886 v 0 c 0.457,-1.934 1.065,-3.819 1.755,-5.674 v 0 c 0.689,-1.857 1.458,-3.676 2.285,-5.471 v 0 c 1.669,-3.581 3.527,-7.07 5.505,-10.483 v 0 l 0.162,-0.287 0.008,0.003 c 0.886,-1.52 1.817,-3.017 2.8,-4.476 v 0 c 0.521,-0.771 1.055,-1.539 1.603,-2.3 v 0 c 0.549,-0.759 1.11,-1.503 1.683,-2.245 v 0 c 1.146,-1.477 2.339,-2.918 3.576,-4.319 v 0 c 0.617,-0.7 1.256,-1.39 1.89,-2.065 v 0 c 0.642,-0.686 1.301,-1.349 1.964,-2.004 v 0 l -0.016,0.013 0.064,-0.058 0.047,-0.044 -0.016,0.017 c 1.242,-1.211 2.533,-2.368 3.872,-3.47 v 0 c 1.337,-1.096 2.716,-2.146 4.138,-3.129 v 0 c 0.714,-0.493 1.433,-0.969 2.162,-1.437 v 0 c 0.365,-0.233 0.731,-0.461 1.101,-0.687 v 0 l 0.556,-0.339 0.277,-0.161 0.068,-0.04 0.021,-0.012 0.022,-0.013 0.041,-0.014 0.142,-0.075 c 0.787,-0.373 1.604,-0.669 2.449,-0.862 v 0 c 0.84,-0.198 1.697,-0.289 2.553,-0.28 v 0 h 0.021 c -0.861,0.022 -1.722,0.143 -2.549,0.374 v 0 c -0.828,0.222 -1.635,0.534 -2.395,0.927 v 0 l -0.142,0.073 -0.038,0.02 -0.011,0.007 -0.016,0.008 -0.07,0.046 -0.271,0.17 -0.544,0.353 c -0.364,0.233 -0.724,0.473 -1.077,0.714 v 0 c -0.713,0.483 -1.421,0.976 -2.111,1.487 v 0 c -0.696,0.513 -1.384,1.027 -2.056,1.565 v 0 c -0.676,0.535 -1.34,1.084 -1.994,1.639 v 0 c -1.306,1.125 -2.565,2.292 -3.778,3.506 v 0 l -0.007,0.005 -0.011,0.012 -0.036,0.023 -0.011,0.018 -0.016,0.013 c -0.652,0.662 -1.293,1.332 -1.916,2.017 v 0 l -0.934,1.035 c -0.309,0.345 -0.614,0.692 -0.918,1.043 v 0 c -1.215,1.405 -2.388,2.848 -3.515,4.325 v 0 c -1.12,1.475 -2.203,2.984 -3.234,4.526 v 0 c -1.03,1.541 -2.008,3.12 -2.93,4.728 v 0 l -0.073,0.124 c -1.932,3.361 -3.785,6.781 -5.425,10.295 v 0 c -1.662,3.551 -3.138,7.199 -4.11,10.991 v 0 c -0.479,1.895 -0.826,3.823 -0.918,5.771 v 0 c -0.096,1.943 0.07,3.911 0.651,5.769 v 0 c 0.291,0.927 0.681,1.823 1.176,2.663 v 0 c 0.493,0.84 1.086,1.618 1.753,2.333 v 0 c 0.672,0.712 1.417,1.35 2.213,1.929 v 0 c 0.793,0.577 1.634,1.09 2.506,1.547 v 0 c -0.886,-0.425 -1.747,-0.908 -2.569,-1.458" /></clipPath><linearGradient
       id="linearGradient424"
       spreadMethod="pad"
       gradientTransform="matrix(-38.56227,66.79196,-66.79195,-38.56227,426.1714,292.2412)"
       gradientUnits="userSpaceOnUse"
       y2="0"
       x2="1"
       y1="0"
       x1="0"><stop
         id="stop420"
         offset="0"
         style="stop-opacity:1;stop-color:#1c345d" /><stop
         id="stop422"
         offset="1"
         style="stop-opacity:1;stop-color:#1c345d" /></linearGradient><clipPath
       id="clipPath434"
       clipPathUnits="userSpaceOnUse"><path
         id="path432"
         d="M 0,595.28 H 841.89 V 0 H 0 Z" /></clipPath><clipPath
       id="clipPath440"
       clipPathUnits="userSpaceOnUse"><path
         id="path438"
         d="M 0,0 H 841.89 V 595.28 H 0 Z" /></clipPath><clipPath
       id="clip0-8"><rect
         width="110"
         height="116"
         fill="white"
         id="rect834-3" /></clipPath></defs><g
     inkscape:groupmode="layer"
     id="layer6"
     inkscape:label="agorapulse"><g
       style="fill:none"
       id="g1392"
       transform="matrix(0.43227906,0,0,0.43227906,-9.9226552,43.747375)"><path
         d="m 80.9691,193.403 c 13.6493,0 23.8279,-4.627 31.2309,-14.112 l 0.463,0.231 v 11.799 h 34.47 V 78.1936 h -36.321 v 11.7985 l -0.462,0.2314 c -7.866,-9.2538 -19.2018,-14.112 -31.2316,-14.112 -29.1493,0 -51.5896,24.0595 -51.5896,58.7615 0,34.933 22.4403,58.53 53.4403,58.53 z m 7.6344,-31.926 c -14.3433,0 -24.2911,-10.642 -24.2911,-26.604 0,-16.194 10.4105,-26.836 24.2911,-26.836 13.4175,0 23.8285,11.336 23.8285,26.836 0,16.194 -10.873,26.604 -23.8285,26.604 z"
         fill="#ff6726"
         id="path1356" /><path
         d="m 219.012,239.209 c 45.806,0 61.075,-25.911 61.075,-62.694 V 78.1936 h -36.321 v 11.1045 h -0.463 c -8.559,-8.7911 -20.126,-13.1866 -32.388,-13.1866 -28.455,0 -50.201,23.8284 -50.201,57.3735 0,32.156 21.746,55.753 52.284,55.753 13.186,0 23.597,-4.626 31.231,-12.492 l 0.463,0.231 v 10.411 c 0,11.798 -9.948,21.515 -29.612,21.515 -12.493,0 -24.985,-4.396 -34.471,-9.948 l -8.097,29.38 c 13.881,7.635 28.224,10.874 46.5,10.874 z m 2.545,-82.127 c -13.649,0 -24.06,-9.717 -24.06,-24.291 0,-14.575 10.18,-24.523 24.06,-24.523 13.418,0 23.829,9.948 23.829,24.291 0,14.344 -10.18,24.523 -23.829,24.523 z"
         fill="#ff6726"
         id="path1358" /><path
         d="m 355.216,193.403 c 35.627,0 61.074,-23.829 61.074,-58.53 0,-34.9331 -25.447,-58.7615 -61.074,-58.7615 -36.552,0 -61.306,24.2915 -61.306,58.7615 0,34.239 24.754,58.53 61.306,58.53 z m 0,-31.926 c -14.343,0 -24.754,-11.567 -24.754,-26.604 0,-15.5 10.179,-26.605 24.754,-26.605 14.112,0 24.522,10.873 24.522,26.605 0,15.5 -10.873,26.604 -24.522,26.604 z"
         fill="#ff6726"
         id="path1360" /><path
         d="m 431.066,191.321 h 36.089 v -50.896 c 0,-14.806 8.791,-25.679 25.911,-25.679 1.851,0 5.089,0.231 8.559,0.463 V 76.1115 h -1.388 c -12.492,0 -24.291,6.2463 -32.619,17.8134 h -0.463 V 78.1936 h -36.089 z"
         fill="#ff6726"
         id="path1362" /><path
         d="m 559.037,193.403 c 13.649,0 23.828,-4.627 31.231,-14.112 l 0.463,0.231 v 11.799 h 34.47 V 78.1936 H 588.88 v 11.7985 l -0.463,0.2314 c -7.865,-9.2538 -19.201,-14.112 -31.231,-14.112 -29.149,0 -51.59,24.0595 -51.59,58.7615 0,34.933 22.441,58.53 53.441,58.53 z m 7.634,-31.926 c -14.343,0 -24.291,-10.642 -24.291,-26.604 0,-16.194 10.41,-26.836 24.291,-26.836 13.418,0 23.828,11.336 23.828,26.836 0,16.194 -10.873,26.604 -23.828,26.604 z"
         fill="#ff6726"
         id="path1364" /><path
         d="m 656.09,237.126 h 30.306 v -58.298 l 0.463,-0.231 c 7.865,9.485 18.97,14.805 33.082,14.805 31.462,0 54.365,-23.365 54.365,-58.298 0,-34.239 -22.903,-58.5299 -53.44,-58.5299 -13.881,0 -25.91,5.0896 -34.007,14.5746 h -0.463 V 78.1935 H 656.09 Z m 58.53,-71.022 c -16.657,0 -29.612,-12.261 -29.612,-30.769 0,-18.276 12.03,-31.694 29.38,-31.694 16.194,0 29.15,12.261 29.15,31.694 0,18.045 -12.03,30.769 -28.918,30.769 z"
         fill="#344563"
         id="path1366" /><path
         d="m 830.814,193.402 c 12.724,0 24.753,-5.32 33.313,-15.731 l 0.463,0.231 v 13.418 h 30.537 V 78.1935 H 864.59 v 55.0595 c 0,21.747 -11.799,32.851 -24.985,32.851 -14.112,0 -20.358,-6.94 -20.358,-27.53 V 78.1935 H 789.172 V 146.44 c 0,34.47 17.119,46.962 41.642,46.962 z"
         fill="#344563"
         id="path1368" /><path
         d="m 918.769,191.32 h 30.306 V 21.0517 h -30.306 z"
         fill="#344563"
         id="path1370" /><path
         d="m 1010.25,193.402 c 29.61,0 43.73,-15.268 43.73,-35.164 0,-22.44 -14.35,-27.761 -38.87,-36.783 -11.11,-4.164 -16.657,-7.403 -16.657,-12.03 0,-6.015 6.017,-8.328 10.637,-8.328 8.33,0 18.51,3.701 27.07,12.029 l 14.81,-22.4399 c -12.96,-9.9478 -25.68,-14.112 -41.18,-14.112 -23.367,0 -40.949,13.1866 -40.949,33.5449 0,21.978 16.194,30.769 34.929,37.015 14.58,4.858 20.36,7.403 20.36,12.261 0,5.552 -4.86,9.254 -13.65,9.254 -12.49,0 -22.206,-4.396 -31.46,-12.955 l -14.575,21.052 c 12.261,10.642 27.761,16.656 45.805,16.656 z"
         fill="#344563"
         id="path1372" /><path
         d="m 1175.04,133.716 c 0,-33.082 -22.21,-57.1419 -54.13,-57.1419 -33.55,0 -57.38,23.5969 -57.38,58.0669 0,35.396 24.52,58.761 59.23,58.761 25.21,0 39.79,-9.253 49.27,-21.514 l -19.66,-18.277 c -6.02,7.403 -14.81,12.724 -27.53,12.724 -15.27,0 -26.14,-8.097 -29.84,-21.746 h 79.35 c 0.23,-1.851 0.69,-7.172 0.69,-10.873 z m -54.37,-30.769 c 13.19,0 21.29,7.866 24.3,19.896 h -49.74 c 3.47,-12.955 13.18,-19.896 25.44,-19.896 z"
         fill="#344563"
         id="path1374" /></g></g><style
     type="text/css"
     id="style1076">
	.st0{fill:#66D8D0;}
</style><style
     type="text/css"
     id="style1076-0">
	.st0{fill:#66D8D0;}
</style><style
     type="text/css"
     id="style1076-2">
	.st0{fill:#66D8D0;}
</style><style
     type="text/css"
     id="style1076-29">
	.st0{fill:#66D8D0;}
</style></svg>
