<?xml version="1.0" encoding="UTF-8" standalone="no"?>
<!-- Created with Inkscape (http://www.inkscape.org/) -->

<svg
   width="500mm"
   height="200mm"
   viewBox="0 0 500 200"
   version="1.1"
   id="svg1"
   inkscape:version="1.4.2 (ebf0e940, 2025-05-08)"
   sodipodi:docname="exalt.svg"
   xml:space="preserve"
   inkscape:export-filename="exalt-h.png"
   inkscape:export-xdpi="31.75"
   inkscape:export-ydpi="31.75"
   xmlns:inkscape="http://www.inkscape.org/namespaces/inkscape"
   xmlns:sodipodi="http://sodipodi.sourceforge.net/DTD/sodipodi-0.dtd"
   xmlns:xlink="http://www.w3.org/1999/xlink"
   xmlns="http://www.w3.org/2000/svg"
   xmlns:svg="http://www.w3.org/2000/svg"><sodipodi:namedview
     id="namedview1"
     pagecolor="#ffffff"
     bordercolor="#666666"
     borderopacity="1.0"
     inkscape:showpageshadow="2"
     inkscape:pageopacity="0.0"
     inkscape:pagecheckerboard="0"
     inkscape:deskcolor="#d1d1d1"
     inkscape:document-units="mm"
     inkscape:zoom="0.51023235"
     inkscape:cx="1306.2676"
     inkscape:cy="286.14414"
     inkscape:window-width="1688"
     inkscape:window-height="801"
     inkscape:window-x="44"
     inkscape:window-y="38"
     inkscape:window-maximized="0"
     inkscape:current-layer="svg1" /><defs
     id="defs1"><linearGradient
       id="linearGradient15"
       inkscape:collect="always"><stop
         style="stop-color:#5753ff;stop-opacity:0;"
         offset="0"
         id="stop16" /><stop
         style="stop-color:#5753ff;stop-opacity:1;"
         offset="1"
         id="stop15" /></linearGradient><linearGradient
       inkscape:collect="always"
       xlink:href="#linearGradient15"
       id="linearGradient16"
       x1="140.45"
       y1="119.39796"
       x2="250.9265"
       y2="119.39796"
       gradientUnits="userSpaceOnUse" /></defs><g
     inkscape:groupmode="layer"
     id="layer2"
     inkscape:label="exalt"
     style="display:inline"><g
       transform="matrix(0.01598796,0,0,-0.01598796,-115.37655,302.53354)"
       fill="#000000"
       stroke="none"
       id="g13"
       style="fill:#5753ff;fill-opacity:1"><path
         d="M 31600,12710 V 7650 h 775 775 v 5060 5060 h -775 -775 z"
         id="path1"
         style="fill:#5753ff;fill-opacity:1" /><path
         d="m 34970,16085 v -1035 h -640 -640 v -685 -685 h 645 645 v -2132 c 0,-1820 2,-2153 15,-2268 101,-919 520,-1409 1345,-1574 257,-52 318,-54 1268,-55 l 882,-1 v 679 680 l -697,3 c -686,4 -699,4 -777,26 -200,56 -312,142 -380,293 -31,66 -62,218 -76,364 -6,72 -10,788 -10,2053 v 1942 h 890 890 v 685 685 h -890 -890 v 1030 1030 h -790 -790 z"
         id="path2"
         style="fill:#5753ff;fill-opacity:1" /><path
         d="m 21856.724,15175.564 c -131,-16 -271.309,-113.798 -381.309,-191.798 -378.071,-341.193 -289.91,-265.531 -967.691,-896.915 L 20367,13946 c -66.962,-73.902 -104.907,-118.19 -149,-168 -24,-24 -54,-60 -68,-77 -14,-18 -54,-65 -90,-105 -67,-74 -133,-154 -138,-166 -1,-4 -35,-41 -75,-82 -40,-41 -114,-123 -166,-182 -51,-59 -110,-124 -130,-145 -20,-21 -63,-70 -96,-107 -33,-38 -121,-136 -195,-219 -239,-266 -700,-784 -700,-787 0,-2 -41,-46 -92,-98 -50,-52 -118,-126 -151,-165 -34,-38 -77,-88 -97,-110 -71,-78 -205,-228 -240,-270 -19,-23 -56,-64 -81,-91 -26,-27 -59,-62 -74,-79 -15,-16 -68,-75 -119,-130 -51,-55 -110,-120 -132,-145 -21,-25 -100,-112 -174,-193 -74,-82 -152,-170 -173,-195 -21,-26 -101,-114 -176,-197 -76,-82 -189,-206 -251,-275 -62,-69 -148,-164 -192,-212 -44,-48 -88,-98 -98,-110 -10,-13 -33,-39 -51,-59 -19,-19 -90,-98 -159,-174 -69,-76 -175,-194 -237,-262 -141,-156 -195,-227 -238,-317 -103,-214 -100,-489 6,-701 98,-197 277,-350 484,-415 108,-34 313,-40 425,-11 145,36 272,105 367,199 44,43 239,257 359,393 27,31 112,125 188,210 77,85 158,174 179,199 22,25 63,70 91,100 28,30 83,91 121,135 39,44 77,86 86,95 9,8 56,60 105,115 112,126 293,325 313,346 9,9 32,35 51,59 19,24 67,78 105,119 94,101 164,179 255,281 96,108 161,179 300,331 14,15 92,102 174,193 111,125 154,166 172,166 13,0 27,-6 31,-12 4,-7 33,-25 63,-40 30,-15 91,-48 135,-73 44,-25 98,-54 120,-64 22,-10 68,-37 103,-59 35,-22 84,-49 110,-58 26,-9 52,-22 57,-28 6,-6 30,-21 55,-34 25,-12 68,-35 95,-51 28,-15 91,-50 140,-76 50,-26 95,-51 100,-55 6,-4 46,-26 90,-49 44,-23 85,-49 91,-57 6,-7 16,-14 23,-14 13,0 134,-59 141,-69 3,-4 55,-33 115,-63 61,-31 164,-86 229,-122 70.93,-28.1654 129.818,-74.5432 196,-109 58,-30 352,-187 392,-209 382.49,-223.1022 167.22,-91.5186 462.244,-265.2984 30,-23 21.756,5.2984 -4.244,30.2984 -14,12 -230.804,245.3135 -325,354 -11,12 -36,41 -55,64 -19,22 -53,60 -75,83 -22,24 -56,60 -75,82 -19,21 -62,69 -95,105 -33,36 -91,101 -130,144 -38,43 -84,93 -101,110 -18,18 -58,63 -90,101 -32,38 -85,98 -118,133 -77,81 -76,80 -166,181 -41,47 -124,139 -185,205 -60,66 -123,135 -140,154 -16,19 -41,46 -55,60 -14,15 -56,62 -95,106 -38,44 -96,106 -127,139 -32,32 -58,61 -58,63 0,3 -22,28 -49,57 -27,28 -63,68 -81,89 -37,43 -44,28 76,162 45,50 130,144 189,210 60,66 147,163 194,215 162,178 196,216 226,251 26,30 292,325 320,355 5,6 42,46 81,90 39,43 156,173 260,288 104,115 218,242 254,282 146,163 316,352 359,399 242,264 331.67,281.383 386.67,418.383 52,130 168.033,315.436 138.033,462.436 -20,101 -92.564,318.67 -158.564,397.67 -179,214 -383.021,339.309 -798.415,252.075 z"
         id="path3"
         style="fill:#5753ff;fill-opacity:1"
         sodipodi:nodetypes="ccccccccscsccsccccccsccccssccscccccccccsccccsccccscssssscccccscscccccccccccscsscccccccsccccccccscccccc" /><path
         d="m 16400,15145 c -303,-61 -548,-296 -625,-600 -25,-95 -25,-285 -1,-375 40,-148 105,-267 203,-374 21,-22 128,-140 238,-261 110,-121 215,-238 235,-259 19,-21 42,-46 51,-55 24,-25 460,-508 497,-552 l 33,-39 82,42 c 45,22 107,55 137,73 30,18 129,73 220,123 91,49 253,138 360,197 107,60 238,131 290,160 52,28 150,82 217,118 68,37 127,67 133,67 25,0 5,34 -63,107 -40,43 -110,121 -157,173 -46,52 -111,124 -145,160 -101,110 -146,159 -295,325 -79,88 -187,207 -240,265 -53,58 -123,135 -156,171 -310,343 -326,359 -407,412 -96,64 -190,103 -294,123 -91,17 -225,17 -313,-1 z"
         id="path4"
         style="fill:#5753ff;fill-opacity:1" /><path
         d="m 10565,15133 c -100,-5 -333,-32 -465,-54 -779,-128 -1459,-499 -1977,-1078 -80,-90 -242,-298 -267,-344 -6,-12 -32,-53 -57,-92 -244,-378 -435,-897 -524,-1420 -80,-479 -78,-1114 6,-1620 47,-286 151,-635 261,-885 39,-87 130,-265 144,-281 8,-8 14,-20 14,-26 0,-26 228,-367 318,-475 477,-571 1022,-922 1757,-1133 400,-115 741,-160 1215,-159 788,0 1300,121 1849,437 689,397 1144,944 1406,1690 26,73 115,403 115,425 0,9 -181,12 -778,12 h -777 l -39,-112 c -184,-537 -540,-884 -1100,-1073 -348,-118 -738,-142 -1166,-74 -447,71 -819,270 -1096,587 -280,320 -456,718 -528,1192 -16,107 -35,358 -27,366 2,2 1259,4 2793,4 2222,0 2790,3 2793,13 14,39 37,290 42,467 15,527 -92,1132 -276,1564 -50,115 -157,335 -194,396 -295,491 -671,873 -1137,1155 -123,75 -338,182 -470,235 -374,150 -798,246 -1239,280 -123,9 -448,11 -596,3 z m 697,-1272 c 323,-59 642,-186 878,-349 123,-85 326,-289 401,-402 121,-183 201,-357 260,-565 42,-146 97,-384 91,-390 -3,-3 -901,-5 -1995,-5 H 8907 l 7,53 c 59,454 264,860 588,1161 135,126 252,205 433,295 222,110 436,178 655,210 41,6 86,13 100,15 14,3 122,3 240,1 166,-2 242,-7 332,-24 z"
         id="path5"
         style="fill:#5753ff;fill-opacity:1" /><path
         d="m 26375,15129 c -887,-66 -1552,-306 -2079,-752 -406,-343 -685,-854 -771,-1412 -8,-55 -17,-112 -20,-127 l -4,-28 h 768 769 l 12,53 c 21,86 70,217 111,297 160,308 509,562 914,664 235,59 578,87 819,67 810,-66 1323,-479 1417,-1141 16,-114 15,-616 -2,-636 -9,-12 -71,-14 -368,-14 -900,-1 -2121,-27 -2340,-51 -609,-66 -1204,-304 -1606,-643 -489,-412 -754,-1084 -706,-1789 30,-446 119,-742 309,-1027 84,-127 229,-291 322,-365 14,-11 48,-38 75,-61 156,-126 387,-261 602,-350 287,-120 596,-194 958,-231 205,-21 701,-23 865,-5 402,47 766,154 1066,313 82,44 318,194 344,220 8,8 47,39 85,71 161,130 325,308 489,531 43,59 82,107 86,107 4,0 10,-46 14,-102 9,-141 50,-336 91,-437 121,-296 354,-494 681,-576 139,-36 285,-44 867,-52 l 517,-6 v 681 680 l -222,4 c -204,4 -228,6 -281,27 -153,61 -231,174 -257,376 -5,40 -10,724 -10,1580 0,1540 -4,1715 -39,1960 -122,835 -535,1430 -1252,1804 -346,180 -748,293 -1269,357 -158,19 -763,28 -955,13 z m 1950,-4190 c 10,-11 -14,-493 -31,-614 -51,-369 -193,-672 -438,-941 -352,-385 -858,-588 -1516,-611 -400,-13 -795,81 -1041,247 -424,288 -553,778 -335,1279 100,232 270,386 546,497 211,85 436,130 709,144 186,9 2097,8 2106,-1 z"
         id="path6"
         style="fill:#5753ff;fill-opacity:1" /></g></g><g
     inkscape:groupmode="layer"
     id="layer3"
     inkscape:label="arrow"
     style="display:inline"><path
       style="fill:none;fill-opacity:1;stroke:url(#linearGradient16);stroke-width:23.065;stroke-linecap:round;stroke-linejoin:round;stroke-dasharray:none;stroke-opacity:1"
       d="M 237.9633,70.889425 151.98129,113.98597 239.394,167.9065"
       id="path14"
       sodipodi:nodetypes="ccc" /></g></svg>
