<?xml version="1.0" encoding="UTF-8" standalone="no"?>
<!-- Created with Inkscape (http://www.inkscape.org/) -->

<svg
   width="1200mm"
   height="600mm"
   viewBox="0 0 1200 600"
   version="1.1"
   id="svg1"
   inkscape:version="1.4 (e7c3feb1, 2024-10-09)"
   sodipodi:docname="capco.svg"
   xmlns:inkscape="http://www.inkscape.org/namespaces/inkscape"
   xmlns:sodipodi="http://sodipodi.sourceforge.net/DTD/sodipodi-0.dtd"
   xmlns="http://www.w3.org/2000/svg"
   xmlns:svg="http://www.w3.org/2000/svg">
  <sodipodi:namedview
     id="namedview1"
     pagecolor="#ffffff"
     bordercolor="#666666"
     borderopacity="1.0"
     inkscape:showpageshadow="2"
     inkscape:pageopacity="0.0"
     inkscape:pagecheckerboard="0"
     inkscape:deskcolor="#d1d1d1"
     inkscape:document-units="mm"
     inkscape:zoom="0.13995495"
     inkscape:cx="2518.6676"
     inkscape:cy="760.95915"
     inkscape:window-width="1608"
     inkscape:window-height="844"
     inkscape:window-x="120"
     inkscape:window-y="116"
     inkscape:window-maximized="0"
     inkscape:current-layer="layer2" />
  <defs
     id="defs1" />
  <g
     inkscape:label="Layer 1"
     inkscape:groupmode="layer"
     id="layer1" />
  <g
     inkscape:groupmode="layer"
     id="layer2"
     inkscape:label="CAPCO">
    <g
       id="group-R5"
       transform="matrix(1.2803068,0,0,1.2803068,16.180114,3.7463837)">
      <path
         id="path2"
         d="m 6105.88,1109.09 h 298.5 c 288.67,0 431.23,142.72 431.23,431.23 v 1499.32 c 0,288.59 -142.56,431.24 -431.23,431.24 h -298.5 c -288.58,0 -431.23,-142.65 -431.23,-431.24 V 1540.32 c 0,-288.51 142.65,-431.23 431.23,-431.23 m 33.19,1880.78 c 0,56.38 26.5,82.88 82.96,82.88 h 66.29 c 56.38,0 82.96,-26.5 82.96,-82.88 V 1590.09 c 0,-56.38 -26.58,-82.88 -82.96,-82.88 h -66.29 c -56.46,0 -82.96,26.5 -82.96,82.88 v 1399.78"
         style="fill:#100f0d;fill-opacity:1;fill-rule:nonzero;stroke:none"
         transform="matrix(0.13333333,0,0,-0.13333333,0,462.78667)" />
      <path
         id="path3"
         d="m 4681.73,1109.12 h 285.28 c 288.59,0 431.23,142.64 431.23,431.23 v 433.04 h -457.81 v -383.26 c 0,-56.46 -26.5,-82.96 -82.88,-82.96 h -59.68 c -56.46,0 -82.96,26.5 -82.96,82.96 V 2989.9 c 0,56.39 26.5,82.89 82.96,82.89 h 53.08 c 56.38,0 82.88,-26.51 82.88,-82.89 v -324.99 h 457.73 v 374.77 c 0,288.51 -142.64,431.23 -431.15,431.23 h -278.68 c -288.59,0 -431.16,-142.72 -431.16,-431.23 V 1540.35 c 0,-288.59 142.57,-431.23 431.16,-431.23"
         style="fill:#100f0d;fill-opacity:1;fill-rule:nonzero;stroke:none"
         transform="matrix(0.13333333,0,0,-0.13333333,0,462.78667)" />
      <path
         id="path4"
         d="m 1831.08,1467.4 h 291.89 l 36.49,-338.36 h 461.03 l -305.1,2321.92 H 1681.83 L 1376.65,1129.04 h 421.25 z m 145.95,1416.37 102.85,-1011.71 h -205.63 z"
         style="fill:#100f0d;fill-opacity:1;fill-rule:nonzero;stroke:none"
         transform="matrix(0.13333333,0,0,-0.13333333,0,462.78667)" />
      <path
         id="path5"
         d="m 3339.17,1935.12 h 215.61 c 288.59,0 431.23,142.56 431.23,431.15 v 653.46 c 0,288.59 -142.64,431.23 -431.23,431.23 H 2874.75 V 1129.04 h 464.42 z m 0,1117.79 h 99.47 c 56.38,0 82.96,-26.58 82.96,-82.88 v -553.98 c 0,-56.38 -26.58,-82.96 -82.96,-82.96 h -99.47 v 719.82"
         style="fill:#100f0d;fill-opacity:1;fill-rule:nonzero;stroke:none"
         transform="matrix(0.13333333,0,0,-0.13333333,0,462.78667)" />
      <path
         id="path6"
         d="m 431.23,1109.12 h 285.286 c 288.584,0 431.154,142.64 431.154,431.23 v 433.04 H 689.938 v -383.26 c 0,-56.46 -26.5,-82.96 -82.883,-82.96 h -59.762 c -56.383,0 -82.883,26.5 -82.883,82.96 V 2989.9 c 0,56.39 26.504,82.89 82.883,82.89 h 53.078 c 56.383,0 82.961,-26.51 82.961,-82.89 v -324.99 h 457.728 v 374.77 c 0,288.51 -142.638,431.23 -431.228,431.23 H 431.23 C 142.645,3470.91 0,3328.19 0,3039.68 V 1540.35 c 0,-288.59 142.645,-431.23 431.23,-431.23"
         style="fill:#100f0d;fill-opacity:1;fill-rule:nonzero;stroke:none"
         transform="matrix(0.13333333,0,0,-0.13333333,0,462.78667)" />
      <path
         id="path7"
         d="m 4167.94,177.082 c -106.7,0 -178.58,81.527 -178.58,188.219 0,105.969 71.88,187.469 178.58,187.469 65.21,0 103.74,-26.68 131.15,-62.258 l -37.04,-34.082 c -23.71,32.621 -54.1,46.691 -91.15,46.691 -76.32,0 -123.74,-58.539 -123.74,-137.82 0,-79.281 47.42,-138.571 123.74,-138.571 37.05,0 67.44,14.821 91.15,46.68 l 37.04,-34.09 c -27.41,-35.57 -65.94,-62.238 -131.15,-62.238"
         style="fill:#100f0d;fill-opacity:1;fill-rule:nonzero;stroke:none"
         transform="matrix(0.13333333,0,0,-0.13333333,0,462.78667)" />
      <path
         id="path8"
         d="m 4518.43,177.082 c -108.93,0 -177.09,84.477 -177.09,188.219 0,103.738 68.16,187.469 177.09,187.469 108.93,0 177.1,-83.731 177.1,-187.469 0,-103.742 -68.17,-188.219 -177.1,-188.219 m 0,326.039 c -76.32,0 -119.3,-65.211 -119.3,-137.82 0,-73.36 42.98,-138.571 119.3,-138.571 76.33,0 118.56,65.211 118.56,138.571 0,72.609 -42.23,137.82 -118.56,137.82"
         style="fill:#100f0d;fill-opacity:1;fill-rule:nonzero;stroke:none"
         transform="matrix(0.13333333,0,0,-0.13333333,0,462.78667)" />
      <path
         id="path9"
         d="m 5258.69,185.98 h -55.57 v 243.04 c 0,45.199 -20.01,74.101 -65.95,74.101 -37.05,0 -76.32,-26.68 -94.85,-54.82 V 185.98 h -55.58 v 243.04 c 0,45.199 -19.26,74.101 -65.94,74.101 -36.31,0 -74.84,-26.68 -94.11,-55.582 V 185.98 h -55.58 v 357.899 h 55.58 v -51.867 c 14.82,22.957 62.98,60.758 115.6,60.758 54.83,0 85.95,-29.629 96.33,-66.688 20.01,32.609 68.17,66.688 120.04,66.688 65.2,0 100.03,-36.301 100.03,-108.188 V 185.98"
         style="fill:#100f0d;fill-opacity:1;fill-rule:nonzero;stroke:none"
         transform="matrix(0.13333333,0,0,-0.13333333,0,462.78667)" />
      <path
         id="path10"
         d="m 5410.61,49.6289 h -55.58 V 543.879 h 55.58 v -53.367 c 25.94,36.328 70.4,62.258 120.78,62.258 94.1,0 159.32,-71.129 159.32,-187.469 0,-115.59 -65.22,-188.219 -159.32,-188.219 -48.9,0 -91.88,22.977 -120.78,62.988 V 49.6289 m 106.71,453.4921 c -43.73,0 -87.44,-25.93 -106.71,-57.039 V 284.52 c 19.27,-31.122 62.98,-57.79 106.71,-57.79 71.87,0 114.84,59.29 114.84,138.571 0,79.281 -42.97,137.82 -114.84,137.82"
         style="fill:#100f0d;fill-opacity:1;fill-rule:nonzero;stroke:none"
         transform="matrix(0.13333333,0,0,-0.13333333,0,462.78667)" />
      <path
         id="path11"
         d="m 5870.77,177.082 c -60.77,0 -125.23,40.758 -125.23,118.559 0,80.031 64.46,117.808 125.23,117.808 48.9,0 89.66,-15.558 118.56,-48.89 v 64.461 c 0,48.171 -38.53,75.582 -90.4,75.582 -42.98,0 -77.81,-15.551 -109.68,-49.653 l -25.93,38.551 c 38.54,40.012 84.48,59.27 143.02,59.27 75.58,0 138.56,-34.079 138.56,-120.778 V 185.98 h -55.57 v 40.75 c -29.65,-32.609 -70.4,-49.648 -118.56,-49.648 m 20,196.367 c -51.87,0 -88.17,-32.609 -88.17,-78.539 0,-45.199 36.3,-77.82 88.17,-77.82 39.28,0 77.07,14.832 98.56,44.469 V 329 c -21.49,29.629 -59.28,44.449 -98.56,44.449"
         style="fill:#100f0d;fill-opacity:1;fill-rule:nonzero;stroke:none"
         transform="matrix(0.13333333,0,0,-0.13333333,0,462.78667)" />
      <path
         id="path12"
         d="m 6438.38,185.98 h -55.58 v 234.141 c 0,62.988 -31.86,83 -80.02,83 -43.73,0 -85.22,-26.68 -105.97,-55.582 V 185.98 h -55.58 v 357.899 h 55.58 v -51.867 c 25.2,29.629 74.1,60.758 127.45,60.758 74.84,0 114.12,-37.801 114.12,-115.59 v -251.2"
         style="fill:#100f0d;fill-opacity:1;fill-rule:nonzero;stroke:none"
         transform="matrix(0.13333333,0,0,-0.13333333,0,462.78667)" />
      <path
         id="path13"
         d="m 6555.46,40.7422 c -11.86,0 -30.38,2.2187 -40.75,5.1875 l 8.89,50.3906 c 8.15,-3.7109 21.49,-5.9414 30.38,-5.9414 24.45,0 40.75,8.1719 53.35,37.8011 l 23.71,54.101 -149.68,361.598 h 60.02 l 119.3,-293.438 118.56,293.438 H 6840 L 6660.68,113.352 C 6639.2,61.4805 6602.88,41.4805 6555.46,40.7422"
         style="fill:#100f0d;fill-opacity:1;fill-rule:nonzero;stroke:none"
         transform="matrix(0.13333333,0,0,-0.13333333,0,462.78667)" />
      <path
         id="path14"
         d="m 3560.43,178.039 c -101.22,0 -183.33,84.422 -183.33,188.609 0,104.032 82.11,188.454 183.33,188.454 101.21,0 183.26,-84.422 183.26,-188.454 0,-104.187 -82.05,-188.609 -183.26,-188.609 m 0,288.07 c -51.99,0 -94.28,-44.66 -94.28,-99.461 0,-54.898 42.29,-99.617 94.28,-99.617 51.98,0 94.27,44.719 94.27,99.617 0,54.801 -42.29,99.461 -94.27,99.461"
         style="fill:#100f0d;fill-opacity:1;fill-rule:nonzero;stroke:none"
         transform="matrix(0.13333333,0,0,-0.13333333,0,462.78667)" />
      <path
         id="path15"
         d="m 2548.12,592.852 c -4.72,0 -9.52,0.609 -14.29,1.89 -29.3,7.879 -46.7,38 -38.88,67.348 6.59,24.539 28.83,40.769 53.1,40.769 4.7,0 9.49,-0.609 14.25,-1.89 29.35,-7.879 46.75,-38 38.88,-67.348 -6.6,-24.57 -28.78,-40.769 -53.06,-40.769"
         style="fill:#100f0d;fill-opacity:1;fill-rule:nonzero;stroke:none"
         transform="matrix(0.13333333,0,0,-0.13333333,0,462.78667)" />
      <path
         id="path16"
         d="m 2597.82,188.461 h -99.51 v 358.328 h 99.51 v -342.578 -15.75"
         style="fill:#100f0d;fill-opacity:1;fill-rule:nonzero;stroke:none"
         transform="matrix(0.13333333,0,0,-0.13333333,0,462.78667)" />
      <path
         id="path17"
         d="m 3219.08,188.449 h -99.45 v 15.801 l -1.49,343.082 h 78.2 l 1.27,-45.492 c 0,0 7.76,17.789 30.83,32.879 5.4,3.961 16.14,10.57 31.78,15.301 9.03,2.871 18.94,4.691 29.63,5.242 1.04,0.047 2.09,0.047 3.19,0.109 0.88,0 1.71,0.16 2.64,0.16 l 1.43,-0.109 c 0.64,0.008 1.27,0.008 1.91,0.008 12.84,0 27.14,-1.598 43.03,-5.848 11.23,-3.023 21.48,-6.273 31,-9.633 l -8.7,-19.769 v -0.11 c -1.54,-3.468 -3.85,-8.59 -6.33,-14.379 l -22.41,-50.82 -1.43,0.598 c -17.27,7.222 -32.54,10.023 -45.86,10.023 -19.9,0 -35.43,-6.25 -46.71,-13.383 L 3241.33,452 c -14.26,-9.691 -22.25,-26.371 -22.25,-43.609 V 204.25 188.449"
         style="fill:#100f0d;fill-opacity:1;fill-rule:nonzero;stroke:none"
         transform="matrix(0.13333333,0,0,-0.13333333,0,462.78667)" />
      <path
         id="path18"
         d="m 2328.65,188.398 h -81.72 l -74.62,223.094 -74.68,-223.094 h -81.66 L 1904.73,547.23 h 99.51 l 61.23,-201.39 65.76,200.949 h 81.66 l 66.2,-200.949 61.23,201.39 h 99.51 L 2328.65,188.398"
         style="fill:#100f0d;fill-opacity:1;fill-rule:nonzero;stroke:none"
         transform="matrix(0.13333333,0,0,-0.13333333,0,462.78667)" />
      <path
         id="path19"
         d="m 2785.46,0 h -99.51 v 547.441 h 83.21 L 2769,498.148 c 21.47,32.993 63.88,57.004 110.74,57.004 95.43,0 172.8,-84.48 172.8,-188.504 0,-104.187 -77.37,-188.609 -172.8,-188.609 -50.06,0 -94.28,30.34 -94.28,30.34 V 15.6992 0 m 85.96,464.059 c -52.03,0 -94.27,-44.489 -94.27,-99.45 0,-54.961 42.24,-99.558 94.27,-99.558 52.04,0 94.28,44.597 94.28,99.558 0,54.961 -42.24,99.45 -94.28,99.45"
         style="fill:#100f0d;fill-opacity:1;fill-rule:nonzero;stroke:none"
         transform="matrix(0.13333333,0,0,-0.13333333,0,462.78667)" />
      <path
         id="path20"
         d="m 1504.69,177.082 c -60.77,0 -125.23,40.758 -125.23,118.559 0,80.031 64.46,117.808 125.23,117.808 48.9,0 89.66,-15.558 118.56,-48.89 v 64.461 c 0,48.171 -38.53,75.582 -90.4,75.582 -42.98,0 -77.81,-15.551 -109.68,-49.653 l -25.93,38.551 c 38.54,40.012 84.48,59.27 143.02,59.27 75.58,0 138.56,-34.079 138.56,-120.778 V 185.98 h -55.57 v 40.75 c -29.64,-32.609 -70.4,-49.648 -118.56,-49.648 m 20,196.367 c -51.87,0 -88.17,-32.609 -88.17,-78.539 0,-45.199 36.3,-77.82 88.17,-77.82 39.28,0 77.07,14.832 98.56,44.469 V 329 c -21.49,29.629 -59.28,44.449 -98.56,44.449"
         style="fill:#100f0d;fill-opacity:1;fill-rule:nonzero;stroke:none"
         transform="matrix(0.13333333,0,0,-0.13333333,0,462.78667)" />
    </g>
  </g>
</svg>
