<?xml version="1.0" encoding="UTF-8" standalone="no"?>
<!-- Created with Inkscape (http://www.inkscape.org/) -->

<svg
   width="500mm"
   height="200mm"
   viewBox="0 0 500 200"
   version="1.1"
   id="svg1"
   inkscape:version="1.3.2 (091e20e, 2023-11-25)"
   sodipodi:docname="renault-digital_2024.svg"
   xml:space="preserve"
   inkscape:export-filename="renault-digital_2024.png"
   inkscape:export-xdpi="58.419998"
   inkscape:export-ydpi="58.419998"
   xmlns:inkscape="http://www.inkscape.org/namespaces/inkscape"
   xmlns:sodipodi="http://sodipodi.sourceforge.net/DTD/sodipodi-0.dtd"
   xmlns="http://www.w3.org/2000/svg"
   xmlns:svg="http://www.w3.org/2000/svg"><sodipodi:namedview
     id="namedview1"
     pagecolor="#ffffff"
     bordercolor="#666666"
     borderopacity="1.0"
     inkscape:showpageshadow="2"
     inkscape:pageopacity="0.0"
     inkscape:pagecheckerboard="false"
     inkscape:deskcolor="#d1d1d1"
     inkscape:document-units="mm"
     inkscape:zoom="0.2102413"
     inkscape:cx="1434.0665"
     inkscape:cy="558.88162"
     inkscape:window-width="1432"
     inkscape:window-height="794"
     inkscape:window-x="55"
     inkscape:window-y="38"
     inkscape:window-maximized="0"
     inkscape:current-layer="g28" /><defs
     id="defs1"><clipPath
       id="clip0"><rect
         width="110"
         height="116"
         fill="white"
         id="rect834" /></clipPath></defs><g
     inkscape:groupmode="layer"
     id="g28"
     inkscape:label="RenaultDigital_2"
     style="display:inline"
     sodipodi:insensitive="true"><g
       inkscape:groupmode="layer"
       id="layer16"
       inkscape:label="Digital"
       style="display:inline" /><g
       inkscape:groupmode="layer"
       id="layer17"
       inkscape:label="Renault"><g
         id="g32"
         transform="matrix(1.5031797,0,0,1.5031797,47.666046,-5.8627034)"><g
           id="g30"
           style="display:inline"
           transform="matrix(0.57461975,0,0,0.57461975,-299.75109,38.285896)"><path
             class="st0"
             d="m 563.36,57.03 c 25.82,0 44.31,18.36 44.31,42.58 0,24.35 -18.5,42.58 -44.31,42.58 H 527.03 V 57.03 Z m -17.7,17.17 v 50.83 h 17.7 c 14.77,0 25.28,-9.85 25.28,-25.42 0,-15.57 -10.51,-25.41 -25.28,-25.41 z"
             id="path21" /><path
             class="st0"
             d="M 637.45,50.38 V 67.95 H 619.22 V 50.38 Z m 0,25.28 V 142.2 H 619.22 V 75.66 Z"
             id="path22" /><path
             class="st0"
             d="m 699.98,134.61 c -5.06,3.99 -11.58,6.25 -19.03,6.25 -17.83,0 -33.67,-13.31 -33.67,-33.27 0,-19.96 15.84,-33.27 33.67,-33.27 8.52,0 15.84,2.93 21.16,8.25 l 3.86,-6.92 h 12.24 v 61.88 c 0,19.03 -13.84,31.27 -33.8,31.27 -18.76,0 -31.54,-9.85 -34.6,-24.88 h 19.03 c 2,5.59 7.45,8.92 15.3,8.92 9.85,0 15.83,-5.59 15.83,-15.3 v -2.93 z m -16.5,-44.18 c -10.11,0 -17.83,6.65 -17.83,17.17 0,10.52 7.72,17.03 17.83,17.03 10.11,0 17.83,-6.52 17.83,-17.03 0,-10.51 -7.71,-17.17 -17.83,-17.17 z"
             id="path23" /><path
             class="st0"
             d="M 750.72,50.38 V 67.95 H 732.49 V 50.38 Z m 0,25.28 V 142.2 H 732.49 V 75.66 Z"
             id="path24" /><path
             class="st0"
             d="m 764.2,59.69 h 18.23 v 15.97 h 19.16 v 15.17 h -19.16 v 25.15 c 0,6.52 2.79,9.45 9.98,9.45 h 10.51 v 16.77 h -11.58 c -19.29,0 -27.15,-7.58 -27.15,-24.75 V 59.69 Z"
             id="path25" /><path
             class="st0"
             d="m 864.88,142.2 -3.46,-6.79 c -5.19,5.19 -12.24,8.12 -20.36,8.12 -17.57,0 -32.87,-13.84 -32.87,-34.6 0,-20.76 15.3,-34.6 32.87,-34.6 8.12,0 15.17,2.93 20.36,8.12 l 3.46,-6.79 h 12.91 V 142.2 Z M 843.72,90.43 c -9.85,0 -17.17,7.19 -17.17,18.5 0,11.31 7.32,18.36 17.17,18.36 9.71,0 17.17,-7.05 17.17,-18.36 0,-11.31 -7.45,-18.5 -17.17,-18.5 z"
             id="path26" /><path
             class="st0"
             d="M 910.3,50.38 V 142.2 H 892.07 V 50.38 Z"
             id="path27" /></g><g
           id="g27"
           transform="matrix(0.57461975,0,0,0.57461975,-29.674071,-23.379359)"
           inkscape:export-filename="/Users/csabourdin/Documents/projets/personnel/projets/site/parisjug/website/src/site/resources/images/sponsors/2022/renaultDigital.png"
           inkscape:export-xdpi="19.101164"
           inkscape:export-ydpi="19.101164"
           style="display:inline">
	
	
	
	
	
	
	<g
   id="g31"><path
     d="m 92.55,114.38 h -16.9 v 27.81 H 57.02 V 57.03 h 36.2 c 20.63,0 32.87,10.65 32.87,28.74 0,11.84 -5.59,20.76 -15.44,25.28 l 18.1,31.14 H 107.33 Z M 75.65,73.53 v 24.88 h 18.1 c 8.52,0 13.44,-4.66 13.44,-12.38 0,-7.98 -4.92,-12.51 -13.44,-12.51 h -18.1 z"
     id="path14" /><path
     d="m 168.68,143.53 c -20.23,0 -35,-13.84 -35,-34.6 0,-20.76 14.24,-34.6 34.2,-34.6 19.3,0 33.13,13.17 33.13,34.33 0,1.6 -0.13,3.59 -0.27,5.32 h -49.1 c 1.6,9.98 8.38,14.24 17.03,14.24 7.85,0 12.24,-3.59 13.71,-8.38 h 18.1 c -2.26,14.11 -14.9,23.69 -31.8,23.69 z m -16.77,-41.79 h 31.14 c -1.33,-8.65 -8.25,-12.51 -15.7,-12.51 -7.05,0 -13.31,3.06 -15.44,12.51 z"
     id="path15" /><path
     d="M 230,142.2 H 211.77 V 75.66 h 12.91 l 3.46,6.79 c 4.39,-5.06 11.31,-8.12 19.7,-8.12 16.1,0 28.21,10.51 28.21,27.81 v 40.05 h -18.23 v -37.26 c 0,-9.05 -5.59,-14.5 -13.84,-14.5 -8.52,0 -13.97,5.32 -13.97,14.5 v 37.27 z"
     id="path16" /><path
     d="m 341.99,142.2 -3.46,-6.79 c -5.19,5.19 -12.24,8.12 -20.36,8.12 -17.57,0 -32.87,-13.84 -32.87,-34.6 0,-20.76 15.3,-34.6 32.87,-34.6 8.12,0 15.17,2.93 20.36,8.12 l 3.46,-6.79 H 354.9 V 142.2 Z M 320.83,90.43 c -9.85,0 -17.17,7.19 -17.17,18.5 0,11.31 7.32,18.36 17.17,18.36 9.71,0 17.17,-7.05 17.17,-18.36 0,-11.31 -7.45,-18.5 -17.17,-18.5 z"
     id="path17" /><path
     d="M 368.18,115.32 V 75.66 h 18.23 v 37.66 c 0,9.18 5.19,13.97 13.17,13.97 8.12,0 13.17,-4.79 13.17,-13.97 V 75.66 h 18.23 v 39.66 c 0,17.17 -12.91,28.21 -31.41,28.21 -18.89,0 -31.39,-10.65 -31.39,-28.21 z"
     id="path18" /><path
     d="M 462.56,50.38 V 142.2 H 444.33 V 50.38 Z"
     id="path19" /><path
     d="m 476.04,59.69 h 18.23 v 15.97 h 19.16 v 15.17 h -19.16 v 25.15 c 0,6.52 2.79,9.45 9.98,9.45 h 10.51 v 16.77 h -11.58 c -19.29,0 -27.15,-7.58 -27.15,-24.75 V 59.69 Z"
     id="path20" /></g>
	
	
	
	
	
	
	<g
   id="g29" />
</g></g></g></g><style
     type="text/css"
     id="style1076">
	.st0{fill:#66D8D0;}
</style><style
     type="text/css"
     id="style1076-0">
	.st0{fill:#66D8D0;}
</style></svg>
