<?xml version="1.0" encoding="UTF-8" standalone="no"?>
<svg
   version="1.1"
   x="0px"
   y="0px"
   viewBox="0 0 499.99998 199.99999"
   xml:space="preserve"
   id="svg1991"
   sodipodi:docname="i-lead.svg"
   inkscape:version="1.4 (e7c3feb1, 2024-10-09)"
   inkscape:export-filename="i-lead-h.png"
   inkscape:export-xdpi="576"
   inkscape:export-ydpi="576"
   width="500"
   height="200"
   xmlns:inkscape="http://www.inkscape.org/namespaces/inkscape"
   xmlns:sodipodi="http://sodipodi.sourceforge.net/DTD/sodipodi-0.dtd"
   xmlns="http://www.w3.org/2000/svg"
   xmlns:svg="http://www.w3.org/2000/svg"
   xmlns:rdf="http://www.w3.org/1999/02/22-rdf-syntax-ns#"
   xmlns:cc="http://creativecommons.org/ns#"
   xmlns:dc="http://purl.org/dc/elements/1.1/"><metadata
     id="metadata1997"><rdf:RDF><cc:Work
         rdf:about=""><dc:format>image/svg+xml</dc:format><dc:type
           rdf:resource="http://purl.org/dc/dcmitype/StillImage" /></cc:Work></rdf:RDF></metadata><defs
     id="defs1995"><clipPath
       id="clip0"><rect
         width="110"
         height="116"
         fill="#ffffff"
         id="rect834"
         x="0"
         y="0" /></clipPath><style
       id="style1">
      .cls-1 {
        fill: #e4ba6e;
      }

      .cls-2 {
        fill: #fff;
      }

      .cls-3 {
        fill: #2055a7;
      }
    </style></defs><sodipodi:namedview
     pagecolor="#ffffff"
     bordercolor="#666666"
     borderopacity="1"
     objecttolerance="10"
     gridtolerance="10"
     guidetolerance="10"
     inkscape:pageopacity="0"
     inkscape:pageshadow="2"
     inkscape:window-width="1584"
     inkscape:window-height="992"
     id="namedview1993"
     showgrid="false"
     inkscape:zoom="1.1575153"
     inkscape:cx="212.95615"
     inkscape:cy="56.586725"
     inkscape:window-x="106"
     inkscape:window-y="38"
     inkscape:window-maximized="0"
     inkscape:current-layer="layer1"
     inkscape:document-rotation="0"
     inkscape:pagecheckerboard="0"
     inkscape:showpageshadow="2"
     inkscape:deskcolor="#d1d1d1" /><g
     inkscape:groupmode="layer"
     id="layer1"
     inkscape:label="i-lead"><g
       id="g1"
       transform="matrix(0.36399925,0,0,0.36399925,2.6635749,47.751576)"><g
         id="g39">
	<g
   id="g3">
		<g
   id="g2">
			<path
   class="st0"
   d="m 189.68,95.45 c -0.55,-0.47 -1.11,-0.93 -1.64,-1.42 C 166.06,73.69 140.19,60.97 110.96,55.01 92.71,51.29 74.76,52.3 57.44,59.62 c -8.42,3.56 -15.79,8.63 -21.17,16.16 -8.04,11.26 -8.48,23.49 -4.21,36.2 4.11,12.25 11.24,22.73 19.94,32.04 7.23,7.73 15.17,14.79 22.81,22.14 0.31,0.3 0.71,0.5 1.54,1.07 0,-1.31 0,-2.18 0,-3.05 0.01,-20.99 0.04,-41.97 -0.02,-62.96 -0.01,-2.18 0.55,-2.92 2.81,-2.89 7.84,0.12 15.68,0.08 23.52,-0.03 1.96,-0.03 2.66,0.49 2.66,2.58 -0.04,38.67 -0.02,77.33 0.05,116 0,2.16 -0.8,2.53 -2.71,2.47 -5.61,-0.18 -10.89,-1.67 -16.09,-3.6 C 75.24,211.55 65.61,204.54 56.16,197.29 39.77,184.71 25.16,170.41 14.11,152.78 7.52,142.27 2.66,131.03 0.84,118.7 -2.78,94.26 4.65,73.01 28.83,58.87 39.3,52.74 50.71,49.21 62.71,47.8 c 42.87,-5.04 80.8,6.71 113.93,34.14 4.42,3.66 8.26,8.03 12.35,12.08 0.35,0.35 0.62,0.78 0.92,1.17 -0.06,0.09 -0.14,0.18 -0.23,0.26 z"
   id="path1" />
			<path
   class="st0"
   d="M 106.71,17.1 C 106.7,26.66 99.15,34.16 89.56,34.13 80.03,34.1 72.57,26.54 72.59,16.92 72.61,7.5 80.13,0.04 89.62,0 c 9.55,-0.04 17.1,7.51 17.09,17.1 z"
   id="path2" />
		</g>
	</g>
	<g
   id="g18">
		<g
   id="g17">
			<path
   class="st1"
   d="m 124.59,184.74 v -20.86 h 50.61 v 20.86 z"
   id="path3" />
			<path
   class="st1"
   d="M 263.61,219.79 H 197.43 V 103.51 h 23.6 v 95.42 h 42.58 z"
   id="path4" />
			<path
   class="st1"
   d="m 299.09,198.16 c 2.68,2.34 6.52,3.51 11.54,3.51 10.6,0 20.06,-0.34 28.39,-1.03 l 4.79,-0.51 0.34,16.93 c -13.11,3.19 -24.96,4.79 -35.57,4.79 -12.88,0 -22.23,-3.42 -28.04,-10.26 -5.82,-6.84 -8.72,-17.95 -8.72,-33.35 0,-30.66 12.6,-46 37.79,-46 24.85,0 37.28,12.88 37.28,38.65 l -1.71,15.9 H 294.9 c 0.12,5.24 1.51,9.03 4.19,11.37 z m 25.23,-28.82 c 0,-6.84 -1.09,-11.6 -3.25,-14.28 -2.17,-2.68 -5.96,-4.02 -11.37,-4.02 -5.42,0 -9.23,1.4 -11.46,4.19 -2.22,2.8 -3.39,7.5 -3.5,14.11 z"
   id="path5" />
			<path
   class="st1"
   d="m 428.79,160.97 v 35.57 c 0.23,2.74 0.68,4.65 1.37,5.73 0.68,1.09 2.11,1.85 4.28,2.31 l -0.68,17.27 c -5.81,0 -10.46,-0.4 -13.94,-1.2 -3.48,-0.8 -6.98,-2.39 -10.52,-4.79 -8.21,3.99 -16.59,5.99 -25.14,5.99 -17.67,0 -26.5,-9.35 -26.5,-28.04 0,-9.12 2.45,-15.59 7.35,-19.41 4.9,-3.82 12.42,-6.07 22.57,-6.75 l 18.3,-1.37 v -5.3 c 0,-3.53 -0.8,-5.96 -2.39,-7.27 -1.6,-1.31 -4.16,-1.97 -7.7,-1.97 l -32.15,1.37 -0.68,-15.9 c 12.2,-3.31 23.79,-4.96 34.8,-4.96 11,0 18.92,2.28 23.77,6.84 4.84,4.55 7.26,11.85 7.26,21.88 z m -38.47,22.57 c -6.38,0.57 -9.57,3.99 -9.57,10.26 0,6.27 2.79,9.41 8.38,9.41 4.33,0 9.06,-0.68 14.19,-2.05 l 2.56,-0.68 v -18.3 z"
   id="path6" />
			<path
   class="st1"
   d="m 523.36,100.09 v 119.7 h -22.74 v -3.59 c -7.98,3.76 -14.88,5.64 -20.69,5.64 -12.43,0 -21.09,-3.59 -25.99,-10.77 -4.9,-7.18 -7.35,-18.55 -7.35,-34.12 0,-15.57 2.93,-26.9 8.81,-34.03 5.87,-7.12 14.73,-10.69 26.59,-10.69 3.65,0 8.72,0.57 15.22,1.71 l 3.25,0.68 v -34.54 h 22.9 z m -25.31,99.18 2.39,-0.51 v -44.97 c -6.27,-1.14 -11.86,-1.71 -16.76,-1.71 -9.23,0 -13.85,8.21 -13.85,24.62 0,8.89 1.02,15.22 3.08,18.98 2.05,3.76 5.44,5.64 10.17,5.64 4.74,0 9.72,-0.68 14.97,-2.05 z"
   id="path7" />
			<path
   class="st1"
   d="m 657.93,217.91 c -12.09,2.62 -22.97,3.93 -32.66,3.93 -9.69,0 -17.44,-1.2 -23.26,-3.59 -5.82,-2.39 -10.38,-6.21 -13.68,-11.46 -3.31,-5.24 -5.59,-11.4 -6.84,-18.47 -1.26,-7.07 -1.88,-15.96 -1.88,-26.68 0,-22.46 3.16,-38.1 9.49,-46.94 6.33,-8.83 17.98,-13.25 34.97,-13.25 9.8,0 21.14,1.54 34.03,4.62 l -0.68,18.81 c -11.28,-1.71 -20.66,-2.56 -28.13,-2.56 -7.47,0 -12.8,1 -15.99,2.99 -3.19,2 -5.56,5.79 -7.1,11.37 -1.54,5.59 -2.31,15.11 -2.31,28.56 0,13.45 1.56,22.77 4.7,27.96 3.13,5.19 9.41,7.78 18.81,7.78 9.4,0 19.41,-0.8 30.01,-2.39 z"
   id="path8" />
			<path
   class="st1"
   d="m 678.28,143.95 c 6.04,-7.81 16.13,-11.71 30.27,-11.71 14.13,0 24.22,3.91 30.27,11.71 6.04,7.81 9.06,18.78 9.06,32.92 0,29.98 -13.11,44.97 -39.33,44.97 -26.22,0 -39.33,-14.99 -39.33,-44.97 -0.01,-14.14 3.01,-25.11 9.06,-32.92 z m 17.7,52.24 c 2.33,4.1 6.52,6.16 12.57,6.16 6.04,0 10.23,-2.05 12.57,-6.16 2.33,-4.1 3.5,-10.54 3.5,-19.32 0,-8.78 -1.17,-15.16 -3.5,-19.15 -2.34,-3.99 -6.53,-5.98 -12.57,-5.98 -6.04,0 -10.23,2 -12.57,5.98 -2.34,3.99 -3.51,10.38 -3.51,19.15 0,8.78 1.17,15.22 3.51,19.32 z"
   id="path9" />
			<path
   class="st1"
   d="m 787.55,219.79 h -22.92 v -85.5 h 22.74 v 4.79 c 7.75,-4.56 14.88,-6.84 21.38,-6.84 11.4,0 19.27,3.36 23.6,10.09 4.33,6.73 6.5,17.1 6.5,31.12 v 46.34 h -22.91 v -45.66 c 0,-7.29 -0.85,-12.68 -2.56,-16.16 -1.71,-3.48 -5.13,-5.22 -10.26,-5.22 -4.68,0 -9.18,0.8 -13.51,2.39 l -2.05,0.68 v 63.97 z"
   id="path10" />
			<path
   class="st1"
   d="m 920.58,155.67 c -14.14,-1.82 -24.03,-2.74 -29.67,-2.74 -5.64,0 -9.29,0.51 -10.94,1.54 -1.65,1.03 -2.48,2.65 -2.48,4.87 0,2.22 1.11,3.76 3.34,4.62 2.22,0.86 7.92,2.11 17.1,3.76 9.18,1.65 15.7,4.36 19.58,8.12 3.88,3.76 5.82,9.86 5.82,18.3 0,18.47 -11.46,27.7 -34.37,27.7 -7.52,0 -16.65,-1.03 -27.36,-3.08 l -5.47,-1.03 0.68,-19.15 c 14.13,1.82 23.97,2.74 29.5,2.74 5.53,0 9.29,-0.54 11.28,-1.63 1.99,-1.08 2.99,-2.71 2.99,-4.87 0,-2.16 -1.06,-3.76 -3.16,-4.79 -2.11,-1.03 -7.58,-2.28 -16.42,-3.76 -8.84,-1.48 -15.42,-3.99 -19.75,-7.52 -4.34,-3.53 -6.5,-9.83 -6.5,-18.9 0,-9.06 3.08,-15.9 9.23,-20.52 6.16,-4.62 14.08,-6.93 23.77,-6.93 6.73,0 15.9,1.09 27.53,3.25 l 5.64,1.03 z"
   id="path11" />
			<path
   class="st1"
   d="m 990.35,134.29 h 22.91 v 85.5 H 990.52 V 215 c -8.21,4.56 -15.33,6.84 -21.38,6.84 -11.86,0 -19.84,-3.28 -23.94,-9.83 -4.1,-6.55 -6.16,-17.53 -6.16,-32.92 v -44.8 h 22.91 v 45.14 c 0,8.44 0.68,14.19 2.05,17.27 1.37,3.08 4.67,4.62 9.92,4.62 5.01,0 9.75,-0.8 14.19,-2.39 l 2.22,-0.68 v -63.96 z"
   id="path12" />
			<path
   class="st1"
   d="m 1035.49,219.79 v -119.7 h 22.91 v 119.7 z"
   id="path13" />
			<path
   class="st1"
   d="m 1128,153.78 h -21.03 v 35.05 c 0,3.42 0.09,5.84 0.26,7.27 0.17,1.43 0.8,2.65 1.88,3.68 1.08,1.03 2.76,1.54 5.04,1.54 l 13,-0.34 1.03,18.3 c -7.64,1.71 -13.45,2.57 -17.44,2.57 -10.26,0 -17.27,-2.31 -21.03,-6.93 -3.76,-4.62 -5.64,-13.14 -5.64,-25.56 v -35.57 h -10.09 V 134.3 h 10.09 v -23.77 h 22.91 V 134.3 H 1128 Z"
   id="path14" />
			<path
   class="st1"
   d="m 1142.88,123.35 v -23.26 h 22.92 v 23.26 z m 0,96.44 v -85.5 h 22.92 v 85.5 z"
   id="path15" />
			<path
   class="st1"
   d="m 1209.91,219.79 h -22.92 v -85.5 h 22.74 v 4.79 c 7.75,-4.56 14.88,-6.84 21.38,-6.84 11.4,0 19.27,3.36 23.6,10.09 4.33,6.73 6.5,17.1 6.5,31.12 v 46.34 h -22.91 v -45.66 c 0,-7.29 -0.85,-12.68 -2.56,-16.16 -1.71,-3.48 -5.13,-5.22 -10.26,-5.22 -4.68,0 -9.18,0.8 -13.51,2.39 l -2.05,0.68 v 63.97 z"
   id="path16" />
			<path
   class="st1"
   d="m 1359.02,230.48 c 0,9.75 -3.76,16.96 -11.29,21.63 -7.52,4.67 -17.7,7.01 -30.52,7.01 -12.82,0 -22.69,-1.71 -29.58,-5.13 -6.9,-3.42 -10.35,-9.64 -10.35,-18.64 0,-7.18 4.1,-13.97 12.31,-20.35 -4.22,-2.85 -6.33,-7.18 -6.33,-13 0,-2.28 1.71,-6.04 5.13,-11.29 l 1.54,-2.39 c -7.75,-5.58 -11.63,-13.82 -11.63,-24.71 0,-10.89 3.28,-18.78 9.83,-23.68 6.55,-4.9 15.25,-7.35 26.08,-7.35 4.9,0 9.74,0.57 14.53,1.71 l 2.74,0.51 27.53,-0.86 v 18.3 l -12.83,-1.03 c 2.51,3.88 3.76,7.75 3.76,11.63 0,11.4 -2.91,19.27 -8.72,23.6 -5.82,4.33 -14.94,6.5 -27.36,6.5 -2.62,0 -4.96,-0.23 -7.01,-0.68 -1.14,2.97 -1.71,5.39 -1.71,7.27 0,1.88 0.97,3.16 2.91,3.85 1.94,0.68 6.5,1.08 13.68,1.2 14.36,0.12 24.17,2.03 29.41,5.73 5.25,3.7 7.88,10.42 7.88,20.17 z m -59.17,2.48 c 0,4.9 6.01,7.35 18.04,7.35 12.02,0 18.04,-2.85 18.04,-8.55 0,-3.08 -1.03,-5.04 -3.08,-5.9 -2.05,-0.86 -6.39,-1.34 -13,-1.45 l -15.39,-1.2 c -3.07,3.08 -4.61,6.33 -4.61,9.75 z m 1.37,-70.03 c 0,8.38 4.36,12.57 13.08,12.57 8.72,0 13.08,-4.19 13.08,-12.57 0,-8.38 -4.36,-12.57 -13.08,-12.57 -8.72,0 -13.08,4.19 -13.08,12.57 z"
   id="path17" />
		</g>
	</g>
	<g
   id="g38">
		<path
   class="st2"
   d="m 175.3,286.54 -5.95,-11.65 h -32.27 l -5.87,11.65 h -4.48 l 24.24,-47.4 h 4.56 l 24.24,47.4 z m -7.57,-15.03 -14.51,-28.84 -14.52,28.84 z"
   id="path18" />
		<path
   class="st2"
   d="m 226.64,286.54 v -6.03 c -2.93,4.6 -8.26,6.5 -13.59,6.57 -10.19,0 -17.21,-5.48 -17.21,-14.76 v -19.3 h 3.78 v 19.23 c 0,7.58 5.33,11.65 13.59,11.58 7.88,-0.07 13.36,-5.28 13.36,-12.19 v -18.62 h 3.78 v 33.52 z"
   id="path19" />
		<path
   class="st2"
   d="m 317.35,281.87 c -3.86,3.39 -8.88,5.01 -13.9,5.01 -10.73,0 -19.61,-6.5 -19.61,-17.06 0,-10.56 8.57,-17.06 19.61,-17.06 5.02,0 10.04,1.69 13.9,5.01 l -2.47,2.1 c -3.09,-2.71 -7.33,-3.99 -11.43,-3.99 -8.64,0 -15.9,4.94 -15.9,13.95 0,9.01 7.26,13.95 15.9,13.95 4.09,0 8.26,-1.42 11.35,-4.13 z"
   id="path20" />
		<path
   class="st2"
   d="m 336.35,269.88 c 0,-10.63 8.65,-17.4 19.38,-17.4 10.73,0 19.38,6.77 19.38,17.4 0,10.63 -8.65,17.13 -19.38,17.13 -10.73,0 -19.38,-6.5 -19.38,-17.13 z m 35.05,0 c 0,-8.67 -7.03,-14.29 -15.67,-14.29 -8.64,0 -15.67,5.62 -15.67,14.29 0,8.67 7.03,13.88 15.67,13.88 8.64,0 15.67,-5.21 15.67,-13.88 z"
   id="path21" />
		<path
   class="st2"
   d="m 393.94,269.82 c 0,-10.02 8.65,-17.27 19.38,-17.27 10.73,0 20.3,5.76 18.84,18.82 H 397.8 c 0.77,7.85 7.64,12.39 15.52,12.39 5.02,0 10.88,-1.76 13.74,-5.08 l 2.7,1.9 c -3.71,4.27 -10.35,6.43 -16.44,6.43 -10.73,0 -19.38,-6.56 -19.38,-17.19 z m 34.82,-1.36 c -0.08,-8.26 -6.25,-12.87 -15.44,-12.87 -7.88,0 -14.67,4.67 -15.52,12.87 z"
   id="path22" />
		<path
   class="st2"
   d="m 484.96,286.54 v -6.03 c -2.93,4.6 -8.26,6.5 -13.59,6.57 -10.19,0 -17.21,-5.48 -17.21,-14.76 v -19.3 h 3.78 v 19.23 c 0,7.58 5.33,11.65 13.59,11.58 7.88,-0.07 13.36,-5.28 13.36,-12.19 v -18.62 h 3.78 v 33.52 z"
   id="path23" />
		<path
   class="st2"
   d="m 514.45,253.09 0.15,5.96 c 2.39,-4.54 7.8,-6.3 12.66,-6.3 2.86,-0.07 5.64,0.61 8.18,1.96 l -1.7,2.71 c -2.01,-1.08 -4.25,-1.56 -6.49,-1.56 -7.1,0.07 -12.59,5.08 -12.59,11.17 v 19.5 h -3.78 v -33.45 h 3.57 z"
   id="path24" />
		<path
   class="st2"
   d="m 623.54,239.14 v 47.4 h -3.71 v -7.38 c -3.16,5.08 -9.42,7.92 -15.9,7.92 -10.65,0 -19.07,-6.16 -19.07,-17.26 0,-11.04 8.49,-17.27 19.15,-17.27 6.56,0 12.74,2.44 15.82,7.85 v -21.26 z m -34.97,30.68 c 0,9.28 7.03,14.02 15.6,14.02 8.95,0 15.59,-5.76 15.59,-14.08 0,-8.33 -6.79,-14.02 -15.59,-14.02 -8.58,-0.01 -15.6,4.66 -15.6,14.08 z"
   id="path25" />
		<path
   class="st2"
   d="m 645.39,269.82 c 0,-10.02 8.65,-17.27 19.38,-17.27 10.73,0 20.3,5.76 18.84,18.82 h -34.35 c 0.77,7.85 7.64,12.39 15.52,12.39 5.02,0 10.88,-1.76 13.74,-5.08 l 2.7,1.9 c -3.71,4.27 -10.35,6.43 -16.44,6.43 -10.74,0 -19.39,-6.56 -19.39,-17.19 z m 34.82,-1.36 c -0.08,-8.26 -6.25,-12.87 -15.44,-12.87 -7.88,0 -14.67,4.67 -15.52,12.87 z"
   id="path26" />
		<path
   class="st2"
   d="m 742.97,239.14 v 47.4 h -3.78 v -47.4 z"
   id="path27" />
		<path
   class="st2"
   d="m 764.74,251.81 4.02,-12.73 h 4.4 l -5.02,12.73 z"
   id="path28" />
		<path
   class="st2"
   d="m 798.56,242.19 c 0,3.52 -6.1,3.52 -6.1,0 0,-3.52 6.1,-3.52 6.1,0 z m -5.02,10.77 v 33.58 h 3.78 v -33.58 z"
   id="path29" />
		<path
   class="st2"
   d="m 824.11,253.09 v 5.96 c 2.93,-4.6 8.26,-6.5 13.59,-6.57 10.19,0 17.22,5.48 17.22,14.76 v 19.3 h -3.78 v -19.23 c 0,-7.58 -5.33,-11.65 -13.59,-11.58 -7.87,0.07 -13.35,5.28 -13.35,12.19 v 18.62 h -3.78 v -33.45 z"
   id="path30" />
		<path
   class="st2"
   d="m 880.78,253.09 v 5.96 c 2.93,-4.6 8.26,-6.5 13.59,-6.57 10.19,0 17.22,5.48 17.22,14.76 v 19.3 h -3.78 v -19.23 c 0,-7.58 -5.33,-11.65 -13.59,-11.58 -7.87,0.07 -13.35,5.28 -13.35,12.19 v 18.62 h -3.78 v -33.45 z"
   id="path31" />
		<path
   class="st2"
   d="m 931.96,269.88 c 0,-10.63 8.65,-17.4 19.38,-17.4 10.73,0 19.38,6.77 19.38,17.4 0,10.63 -8.65,17.13 -19.38,17.13 -10.73,0 -19.38,-6.5 -19.38,-17.13 z m 35.06,0 c 0,-8.67 -7.03,-14.29 -15.67,-14.29 -8.64,0 -15.67,5.62 -15.67,14.29 0,8.67 7.03,13.88 15.67,13.88 8.64,0 15.67,-5.21 15.67,-13.88 z"
   id="path32" />
		<path
   class="st2"
   d="m 987.32,253.09 h 4.17 l 13.9,29.59 13.9,-29.59 h 4.17 l -15.98,33.45 h -4.17 z"
   id="path33" />
		<path
   class="st2"
   d="m 1078.65,253.09 c 0,11.17 0,22.28 0,33.45 h -3.78 v -7.11 c -3.71,5.21 -9.42,7.65 -15.59,7.65 -10.65,0 -19.38,-7.04 -19.38,-17.26 0,-10.22 8.72,-17.13 19.38,-17.13 6.18,0 12.43,2.51 15.59,7.72 v -7.31 h 3.78 z m -34.97,16.73 c 0,8.4 6.95,14.02 15.59,14.02 21.23,0 21.23,-27.96 0,-27.96 -8.64,-0.01 -15.59,5.54 -15.59,13.94 z"
   id="path34" />
		<path
   class="st2"
   d="m 1108.3,243 v 10.09 h 12.97 v 2.78 h -12.97 v 20.38 c 0,4.54 1.08,7.72 7.02,7.72 1.85,0 3.94,-0.54 5.87,-1.36 l 1.31,2.71 c -2.39,1.02 -4.79,1.69 -7.18,1.69 -8.11,0 -10.73,-4.2 -10.73,-10.77 v -20.38 h -8.1 v -2.78 h 8.1 v -9.75 z"
   id="path35" />
		<path
   class="st2"
   d="m 1147.28,242.19 c 0,3.52 -6.1,3.52 -6.1,0 0,-3.52 6.1,-3.52 6.1,0 z m -5.01,10.77 v 33.58 h 3.78 v -33.58 z"
   id="path36" />
		<path
   class="st2"
   d="m 1168.2,269.88 c 0,-10.63 8.65,-17.4 19.38,-17.4 10.73,0 19.38,6.77 19.38,17.4 0,10.63 -8.65,17.13 -19.38,17.13 -10.73,0 -19.38,-6.5 -19.38,-17.13 z m 35.05,0 c 0,-8.67 -7.03,-14.29 -15.67,-14.29 -8.65,0 -15.67,5.62 -15.67,14.29 0,8.67 7.03,13.88 15.67,13.88 8.65,0 15.67,-5.21 15.67,-13.88 z"
   id="path37" />
		<path
   class="st2"
   d="m 1231.67,253.09 v 5.96 c 2.93,-4.6 8.26,-6.5 13.59,-6.57 10.19,0 17.22,5.48 17.22,14.76 v 19.3 h -3.78 v -19.23 c 0,-7.58 -5.33,-11.65 -13.59,-11.58 -7.87,0.07 -13.36,5.28 -13.36,12.19 v 18.62 h -3.78 v -33.45 z"
   id="path38" />
	</g>
</g><path
         class="st3"
         d="M 105.85,-37.36 H 27.19 c -12.24,0 -22.17,-9.93 -22.17,-22.17 v -78.66 c 0,-12.24 9.93,-22.17 22.17,-22.17 h 78.66 c 12.24,0 22.17,9.93 22.17,22.17 v 78.66 c 0,12.25 -9.93,22.17 -22.17,22.17 z"
         id="path39" /><path
         class="st4"
         d="m 241.27,-37.36 h -81.51 c -11.46,0 -20.74,-9.29 -20.74,-20.74 v -81.51 c 0,-11.46 9.29,-20.74 20.74,-20.74 h 81.51 c 11.46,0 20.74,9.29 20.74,20.74 v 81.51 c 0.01,11.46 -9.28,20.74 -20.74,20.74 z"
         id="path40" /></g></g><style
     type="text/css"
     id="style1076">
	.st0{fill:#66D8D0;}
</style><style
     type="text/css"
     id="style1-2">
	.st0{fill:#F49525;}
	.st1{fill:#0062D8;}
	.st2{fill:#646363;}
	.st3{display:none;fill:#F49525;}
	.st4{display:none;fill:#0062D8;}
</style></svg>
