<?xml version="1.0" encoding="UTF-8" standalone="no"?>
<svg
   version="1.1"
   x="0px"
   y="0px"
   viewBox="0 0 595.28 260.79"
   style="enable-background:new 0 0 595.28 260.79;"
   xml:space="preserve"
   id="svg1991"
   sodipodi:docname="oxiane_2025.svg"
   inkscape:version="1.4 (e7c3feb1, 2024-10-09)"
   inkscape:export-filename="/Users/csabourdin/Documents/projets/personnel/projets/site/parisjug/website/src/site/resources/images/sponsors/2022/sciam.png"
   inkscape:export-xdpi="19.101164"
   inkscape:export-ydpi="19.101164"
   xmlns:inkscape="http://www.inkscape.org/namespaces/inkscape"
   xmlns:sodipodi="http://sodipodi.sourceforge.net/DTD/sodipodi-0.dtd"
   xmlns="http://www.w3.org/2000/svg"
   xmlns:svg="http://www.w3.org/2000/svg"
   xmlns:rdf="http://www.w3.org/1999/02/22-rdf-syntax-ns#"
   xmlns:cc="http://creativecommons.org/ns#"
   xmlns:dc="http://purl.org/dc/elements/1.1/"><metadata
     id="metadata1997"><rdf:RDF><cc:Work
         rdf:about=""><dc:format>image/svg+xml</dc:format><dc:type
           rdf:resource="http://purl.org/dc/dcmitype/StillImage" /></cc:Work></rdf:RDF></metadata><defs
     id="defs1995"><clipPath
       id="clip0"><rect
         width="110"
         height="116"
         fill="white"
         id="rect834" /></clipPath><style
       id="style1">
      .cls-1 {
        fill: #e4ba6e;
      }

      .cls-2 {
        fill: #fff;
      }

      .cls-3 {
        fill: #2055a7;
      }
    </style></defs><sodipodi:namedview
     pagecolor="#ffffff"
     bordercolor="#666666"
     borderopacity="1"
     objecttolerance="10"
     gridtolerance="10"
     guidetolerance="10"
     inkscape:pageopacity="0"
     inkscape:pageshadow="2"
     inkscape:window-width="1584"
     inkscape:window-height="992"
     id="namedview1993"
     showgrid="false"
     inkscape:zoom="1.1575153"
     inkscape:cx="205.18087"
     inkscape:cy="24.621705"
     inkscape:window-x="106"
     inkscape:window-y="72"
     inkscape:window-maximized="0"
     inkscape:current-layer="layer1"
     inkscape:document-rotation="0"
     inkscape:pagecheckerboard="0"
     inkscape:showpageshadow="2"
     inkscape:deskcolor="#d1d1d1" /><g
     inkscape:groupmode="layer"
     id="layer1"
     inkscape:label="oxiane"><g
       id="g20"
       transform="matrix(0.60806742,0,0,0.60806742,136.14643,4.4034348)"><g
         id="g17"><path
           class="cls-3"
           d="m 97.1,292.78 c -1.75,0 -3.36,0.45 -4.81,1.37 -1.45,0.92 -2.59,2 -3.41,3.25 -1.25,-3.08 -3.79,-4.62 -7.62,-4.62 -3.29,0 -5.83,1.49 -7.62,4.46 v -3.81 H 69.4 v 25.34 h 4.51 v -13.8 c 0,-2.54 0.63,-4.59 1.88,-6.15 1.25,-1.56 2.74,-2.34 4.46,-2.34 1.36,0 2.52,0.45 3.49,1.37 0.96,0.91 1.45,2.27 1.45,4.05 v 16.86 h 4.51 v -13.8 c 0,-2.54 0.64,-4.59 1.9,-6.15 1.27,-1.56 2.77,-2.34 4.49,-2.34 1.36,0 2.51,0.45 3.46,1.37 0.95,0.91 1.42,2.27 1.42,4.05 v 16.86 h 4.51 v -17.56 c 0,-2.68 -0.8,-4.76 -2.39,-6.23 -1.59,-1.47 -3.59,-2.2 -5.98,-2.2 z"
           id="path1" /><path
           class="cls-3"
           d="m 137.21,301.59 c 0,-2.72 -0.88,-4.87 -2.63,-6.44 -1.75,-1.58 -4.15,-2.36 -7.19,-2.36 -2.76,0 -5.11,0.67 -7.06,2.01 -1.95,1.34 -3.07,3.23 -3.36,5.66 l 4.51,0.65 c 0.07,-1.47 0.59,-2.65 1.56,-3.54 0.96,-0.89 2.36,-1.34 4.19,-1.34 1.83,0 3.26,0.52 4.19,1.56 0.93,1.04 1.39,2.45 1.39,4.24 v 1.56 c -11.24,0 -16.86,2.9 -16.86,8.7 0,2.15 0.78,3.88 2.34,5.18 1.56,1.31 3.53,1.96 5.93,1.96 3.61,0 6.49,-1.32 8.64,-3.97 0,1.36 0.2,2.47 0.59,3.33 h 4.35 c -0.4,-1.07 -0.59,-2.22 -0.59,-3.44 v -13.74 z m -4.4,7.41 c 0,2.08 -0.72,3.75 -2.17,5.02 -1.45,1.27 -3.14,1.91 -5.07,1.91 -1.54,0 -2.76,-0.35 -3.68,-1.05 -0.91,-0.7 -1.37,-1.67 -1.37,-2.93 0,-3.44 4.1,-5.15 12.29,-5.15 z"
           id="path2" /><polygon
           class="cls-3"
           points="157.08,305.51 166.58,318.77 172.05,318.77 160.4,302.66 170.34,293.43 165.02,293.43 154.12,303.52 154.12,281.19 149.61,281.19 149.61,318.77 154.12,318.77 154.12,308.24 "
           id="polygon2" /><path
           class="cls-3"
           d="m 190.9,292.78 c -3.62,0 -6.51,1.24 -8.67,3.73 -2.17,2.49 -3.25,5.67 -3.25,9.53 0,3.86 1.08,7.15 3.25,9.64 2.17,2.49 5.11,3.73 8.83,3.73 4.8,0 8.27,-2.15 10.42,-6.44 l -3.97,-1.61 c -0.68,1.58 -1.5,2.73 -2.44,3.46 -0.95,0.73 -2.27,1.1 -3.95,1.1 -2.4,0 -4.23,-0.85 -5.5,-2.55 -1.27,-1.7 -1.94,-3.86 -2.01,-6.47 h 18.74 v -1.5 c 0,-3.54 -0.99,-6.53 -2.98,-8.97 -1.99,-2.43 -4.81,-3.65 -8.46,-3.65 z m -7.14,10.74 c 0.21,-2.15 0.95,-3.89 2.2,-5.24 1.25,-1.34 2.86,-2.01 4.83,-2.01 1.97,0 3.59,0.65 4.86,1.96 1.27,1.31 1.96,3.07 2.07,5.29 z"
           id="path3" /><path
           class="cls-3"
           d="m 232.03,281.56 c -0.86,0 -1.57,0.29 -2.12,0.86 -0.56,0.57 -0.83,1.27 -0.83,2.09 0,0.82 0.28,1.47 0.83,2.04 0.56,0.57 1.26,0.86 2.12,0.86 0.86,0 1.57,-0.29 2.12,-0.86 0.55,-0.57 0.83,-1.25 0.83,-2.04 0,-0.79 -0.28,-1.52 -0.83,-2.09 -0.56,-0.57 -1.26,-0.86 -2.12,-0.86 z"
           id="path4" /><rect
           class="cls-3"
           x="229.77"
           y="293.42999"
           width="4.5100002"
           height="25.34"
           id="rect4" /><path
           class="cls-3"
           d="m 255.38,315.65 c -1.75,0 -2.63,-0.96 -2.63,-2.9 v -15.89 h 5.91 v -3.44 h -5.91 v -9.29 l -4.51,2.04 v 7.25 h -4.3 v 3.44 h 4.3 v 16.32 c 0,1.75 0.56,3.23 1.69,4.43 1.13,1.2 2.75,1.8 4.86,1.8 1.86,0 3.38,-0.34 4.56,-1.02 l -1.45,-3.54 c -0.79,0.53 -1.63,0.8 -2.52,0.8 z"
           id="path5" /><path
           class="cls-3"
           d="m 299.54,312.52 c -0.66,0.66 -1.58,0.99 -2.76,0.99 -1,0 -1.84,-0.22 -2.5,-0.67 -0.66,-0.45 -1.19,-1.04 -1.58,-1.77 -0.39,-0.73 -0.67,-1.55 -0.83,-2.44 -0.16,-0.89 -0.24,-1.77 -0.24,-2.63 0,-0.93 0.09,-1.84 0.27,-2.74 0.18,-0.89 0.47,-1.7 0.86,-2.42 0.39,-0.72 0.92,-1.3 1.58,-1.74 0.66,-0.45 1.46,-0.67 2.39,-0.67 1.15,0 2.1,0.33 2.87,0.99 0.77,0.66 1.3,1.65 1.58,2.98 l 6.98,-2.58 c -0.43,-1.04 -0.96,-2 -1.58,-2.9 -0.63,-0.89 -1.38,-1.67 -2.25,-2.34 -0.88,-0.66 -1.92,-1.18 -3.11,-1.56 -1.2,-0.38 -2.59,-0.56 -4.16,-0.56 -2.01,0 -3.82,0.31 -5.45,0.94 -1.63,0.63 -3.02,1.52 -4.19,2.68 -1.16,1.16 -2.07,2.59 -2.71,4.27 -0.65,1.68 -0.97,3.56 -0.97,5.63 0,2.07 0.32,4.05 0.97,5.72 0.64,1.66 1.54,3.08 2.68,4.24 1.14,1.16 2.53,2.05 4.16,2.66 1.63,0.61 3.41,0.91 5.34,0.91 1.54,0 2.9,-0.19 4.08,-0.56 1.18,-0.38 2.23,-0.88 3.14,-1.5 0.91,-0.63 1.7,-1.36 2.36,-2.2 0.66,-0.84 1.26,-1.73 1.8,-2.66 l -7.14,-2.68 c -0.39,1.07 -0.92,1.94 -1.58,2.6 z"
           id="path6" /><rect
           class="cls-3"
           x="316.95999"
           y="281.19"
           width="7.73"
           height="37.580002"
           id="rect6" /><path
           class="cls-3"
           d="m 356.8,296.51 c -1.04,-1.23 -2.35,-2.22 -3.95,-2.95 -1.59,-0.73 -3.46,-1.1 -5.61,-1.1 -1.9,0 -3.63,0.31 -5.21,0.94 -1.57,0.63 -2.94,1.51 -4.11,2.66 -1.16,1.15 -2.07,2.56 -2.71,4.24 -0.65,1.68 -0.97,3.56 -0.97,5.64 0,2.08 0.32,4.01 0.97,5.69 0.64,1.68 1.54,3.11 2.68,4.27 1.14,1.16 2.53,2.06 4.16,2.68 1.63,0.63 3.45,0.94 5.45,0.94 2.76,0 5.09,-0.54 7.01,-1.61 1.91,-1.07 3.39,-2.56 4.43,-4.46 l -6.66,-2.68 c -0.39,0.79 -0.96,1.5 -1.72,2.12 -0.76,0.62 -1.81,0.94 -3.17,0.94 -0.96,0 -1.79,-0.17 -2.47,-0.51 -0.68,-0.34 -1.23,-0.78 -1.64,-1.31 -0.41,-0.54 -0.71,-1.16 -0.88,-1.85 -0.18,-0.7 -0.29,-1.42 -0.32,-2.17 h 17.82 v -1.88 c 0,-1.86 -0.26,-3.61 -0.78,-5.26 -0.52,-1.65 -1.3,-3.09 -2.34,-4.32 z m -14.66,6.79 c 0.11,-1.61 0.58,-2.91 1.42,-3.89 0.84,-0.99 2.07,-1.48 3.68,-1.48 1.4,0 2.55,0.45 3.46,1.34 0.91,0.89 1.41,2.24 1.47,4.03 h -10.04 z"
           id="path7" /><path
           class="cls-3"
           d="m 383,300.73 c -0.29,1 -0.59,2.02 -0.91,3.06 -0.32,1.04 -0.63,2.04 -0.91,3.01 -0.29,0.96 -0.55,1.86 -0.78,2.68 -0.23,0.82 -0.42,1.5 -0.56,2.04 h -0.11 c -0.18,-0.53 -0.38,-1.22 -0.62,-2.04 -0.23,-0.82 -0.49,-1.72 -0.78,-2.68 -0.29,-0.97 -0.58,-1.97 -0.88,-3.01 -0.31,-1.04 -0.62,-2.06 -0.94,-3.06 -0.72,-2.36 -1.47,-4.87 -2.25,-7.52 h -8.16 l 9.02,25.56 h 8.91 l 8.91,-25.56 h -7.68 c -0.82,2.65 -1.57,5.15 -2.25,7.52 z"
           id="path8" /><path
           class="cls-3"
           d="m 422.03,296.51 c -1.04,-1.23 -2.35,-2.22 -3.95,-2.95 -1.59,-0.73 -3.46,-1.1 -5.61,-1.1 -1.9,0 -3.63,0.31 -5.21,0.94 -1.57,0.63 -2.94,1.51 -4.11,2.66 -1.16,1.15 -2.07,2.56 -2.71,4.24 -0.65,1.68 -0.97,3.56 -0.97,5.64 0,2.08 0.32,4.01 0.97,5.69 0.64,1.68 1.54,3.11 2.68,4.27 1.14,1.16 2.53,2.06 4.16,2.68 1.63,0.63 3.45,0.94 5.45,0.94 2.76,0 5.09,-0.54 7.01,-1.61 1.91,-1.07 3.39,-2.56 4.43,-4.46 l -6.66,-2.68 c -0.4,0.79 -0.96,1.5 -1.72,2.12 -0.75,0.63 -1.81,0.94 -3.17,0.94 -0.96,0 -1.79,-0.17 -2.47,-0.51 -0.68,-0.34 -1.23,-0.78 -1.64,-1.31 -0.41,-0.54 -0.71,-1.16 -0.88,-1.85 -0.18,-0.7 -0.29,-1.42 -0.32,-2.17 h 17.82 v -1.88 c 0,-1.86 -0.26,-3.61 -0.78,-5.26 -0.52,-1.65 -1.3,-3.09 -2.34,-4.32 z m -14.66,6.79 c 0.11,-1.61 0.58,-2.91 1.42,-3.89 0.84,-0.99 2.07,-1.48 3.68,-1.48 1.4,0 2.55,0.45 3.46,1.34 0.91,0.89 1.41,2.24 1.48,4.03 z"
           id="path9" /><path
           class="cls-3"
           d="m 449.25,292.46 c -1.9,0 -3.45,0.41 -4.67,1.23 -1.22,0.82 -2.22,2.09 -3.01,3.81 v -4.29 h -7.25 v 25.56 h 7.73 v -11.92 c 0,-1.47 0.2,-2.68 0.59,-3.65 0.39,-0.97 0.88,-1.75 1.48,-2.34 0.59,-0.59 1.24,-1 1.96,-1.23 0.72,-0.23 1.38,-0.35 1.99,-0.35 0.5,0 1.03,0.06 1.58,0.19 0.55,0.13 1.05,0.35 1.48,0.67 l 1.39,-7.09 c -0.57,-0.25 -1.14,-0.41 -1.69,-0.49 -0.56,-0.07 -1.08,-0.1 -1.58,-0.1 z"
           id="path10" /><rect
           class="cls-3"
           y="1.39"
           width="230.2"
           height="139.66"
           rx="14.83"
           ry="14.83"
           id="rect10"
           x="0" /><rect
           class="cls-3"
           x="0.050000001"
           y="171.96001"
           width="7.25"
           height="29.77"
           id="rect11" /><polygon
           class="cls-3"
           points="69.25,183.37 81.38,201.73 88.63,201.73 88.63,171.96 81.38,171.96 81.38,190.4 69.25,171.96 62,171.96 62,201.73 69.25,201.73 "
           id="polygon11" /><path
           class="cls-3"
           d="m 159.9,200.79 c 1.64,-0.82 2.89,-1.92 3.75,-3.31 0.86,-1.38 1.29,-2.93 1.29,-4.62 0,-1.78 -0.44,-3.24 -1.31,-4.37 -0.88,-1.13 -1.92,-1.99 -3.12,-2.59 -1.2,-0.59 -2.76,-1.22 -4.69,-1.87 -1.92,-0.62 -3.34,-1.2 -4.24,-1.74 -0.9,-0.54 -1.36,-1.29 -1.36,-2.25 0,-0.88 0.27,-1.55 0.81,-2.01 0.54,-0.47 1.24,-0.7 2.12,-0.7 1.02,0 1.85,0.28 2.5,0.83 0.65,0.55 1,1.31 1.06,2.27 h 7.84 c -0.14,-2.8 -1.22,-4.98 -3.22,-6.55 -2.01,-1.57 -4.65,-2.35 -7.93,-2.35 -3.28,0 -5.84,0.79 -7.85,2.35 -2.01,1.57 -3.01,3.74 -3.01,6.51 0,1.87 0.44,3.38 1.31,4.54 0.88,1.16 1.92,2.04 3.14,2.63 1.22,0.59 2.79,1.19 4.71,1.78 1.33,0.4 2.35,0.75 3.07,1.06 0.72,0.31 1.33,0.71 1.82,1.19 0.49,0.48 0.74,1.09 0.74,1.82 0,0.88 -0.31,1.56 -0.93,2.06 -0.62,0.5 -1.47,0.74 -2.54,0.74 -1.07,0 -1.89,-0.29 -2.54,-0.87 -0.65,-0.58 -1.03,-1.42 -1.14,-2.52 h -7.72 c 0.06,1.95 0.6,3.62 1.63,5 1.03,1.39 2.41,2.43 4.13,3.14 1.72,0.71 3.68,1.06 5.85,1.06 2.17,0 4.17,-0.41 5.81,-1.23 z"
           id="path11" /><polygon
           class="cls-3"
           points="217.23,177.77 225.12,177.77 225.12,201.73 232.37,201.73 232.37,177.77 240.26,177.77 240.26,171.96 217.23,171.96 "
           id="polygon12" /><rect
           class="cls-3"
           x="293.34"
           y="171.96001"
           width="7.25"
           height="29.77"
           id="rect12" /><polygon
           class="cls-3"
           points="368.82,201.73 368.82,177.77 376.71,177.77 376.71,171.96 353.68,171.96 353.68,177.77 361.57,177.77 361.57,201.73 "
           id="polygon13" /><path
           class="cls-3"
           d="m 447.35,189.77 c 0,1.78 -0.45,3.15 -1.36,4.11 -0.91,0.96 -2.21,1.44 -3.9,1.44 -1.69,0 -2.98,-0.48 -3.86,-1.44 -0.88,-0.96 -1.31,-2.33 -1.31,-4.11 v -17.81 h -7.25 v 17.77 c 0,2.66 0.54,4.91 1.61,6.76 1.07,1.85 2.54,3.24 4.39,4.16 1.85,0.92 3.95,1.38 6.3,1.38 2.35,0 4.47,-0.47 6.38,-1.4 1.91,-0.93 3.43,-2.32 4.56,-4.16 1.13,-1.84 1.7,-4.08 1.7,-6.74 v -17.77 h -7.25 v 17.81 z"
           id="path13" /><polygon
           class="cls-3"
           points="507.51,177.77 515.4,177.77 515.4,201.73 522.65,201.73 522.65,177.77 530.54,177.77 530.54,171.96 507.51,171.96 "
           id="polygon14" /><rect
           class="cls-3"
           x="249.63"
           y="44.470001"
           width="23.48"
           height="96.209999"
           id="rect14" /><path
           class="cls-3"
           d="m 261.53,0 c -8.03,0 -13.29,6.89 -13.29,15.94 0,9.05 5.1,15.94 12.98,15.94 h 0.16 c 8.19,0 13.29,-7.08 13.29,-15.94 C 274.52,6.89 269.57,0 261.54,0 Z"
           id="path14" /><path
           class="cls-3"
           d="M 356.28,140.35 C 355.32,135.21 355,126.63 355,117.87 V 85.29 c 0,-21.91 -8.18,-40.19 -34.32,-40.19 -14.27,0 -25.02,4.76 -30.47,8.38 l 4.49,18.48 c 5.13,-3.62 13.63,-6.86 21.65,-6.86 12.03,0 14.27,7.05 14.27,12 v 1.14 c -27.75,0 -46.03,11.43 -46.03,35.62 0,14.86 9.46,28.58 25.34,28.58 9.3,0 17.32,-4 22.45,-11.43 h 0.48 l 1.44,9.33 h 21.97 z m -24.86,-33.91 c 0,1.72 -0.16,3.43 -0.48,4.95 -1.6,5.9 -6.74,10.67 -12.67,10.67 -5.45,0 -9.62,-3.62 -9.62,-11.05 0,-11.05 9.94,-14.67 22.77,-14.67 v 10.09 z"
           id="path15" /><path
           class="cls-3"
           d="m 407.84,68.6 c 8.91,0 12.48,8.3 12.48,20.46 v 52.31 h 24.64 V 85.59 c 0,-27.8 -12.16,-40.73 -28.37,-40.73 -13.29,0 -21.23,9.07 -24.47,15.25 h -0.49 L 390.49,46.99 H 369.1 c 0.33,8.49 0.65,18.34 0.65,30.11 v 64.27 h 24.64 V 86.94 c 0,-2.7 0.16,-5.4 0.81,-7.33 1.78,-5.4 5.83,-11 12.64,-11 z"
           id="path16" /><path
           class="cls-3"
           d="m 523.58,116.57 c -6.62,2.71 -13.4,4.06 -21.8,4.06 -11.46,0 -21.48,-5.79 -22.28,-18.15 l 50.86,0.19 c 0.32,-2.32 0.81,-6.76 0.81,-11.78 0,-23.36 -9.69,-47.11 -35.2,-47.11 -27.29,0 -39.88,26.45 -39.88,50.39 0,29.73 15.34,48.26 42.14,48.26 10.66,0 20.51,-1.93 28.58,-5.98 l -3.23,-19.89 z m -28.9,-53.28 c 11.14,0 13.72,12.16 13.72,19.11 h -29.06 c 0.65,-7.72 4.84,-19.11 15.34,-19.11 z"
           id="path17" /></g><path
         class="cls-1"
         d="m 236.55,389.69 c 13.67,0 24.75,11.06 24.8,24.71 v 0 c 0.05,-13.66 11.13,-24.71 24.8,-24.71 -13.7,0 -24.8,-11.1 -24.8,-24.8 0,13.7 -11.1,24.8 -24.8,24.8 z"
         id="path18" /><g
         id="g19"><polygon
           class="cls-2"
           points="214.75,16.22 178.29,16.22 161.14,45.88 145.53,16.22 106.91,16.22 142.13,69.68 103.51,129.62 142.13,129.62 160.47,98.41 178.29,129.62 218.76,129.62 180.86,69.68 "
           id="polygon18" /><path
           class="cls-2"
           d="m 67.05,103.97 c -13.6,0 -21.53,-13.7 -21.53,-30.59 0,-16.89 5.61,-30.59 21.53,-30.59 15.92,0 21.53,13.7 21.53,30.59 0,16.89 -7.93,30.59 -21.53,30.59 m 0,-90.22 c -30.38,0 -55,26.65 -55,59.53 0,32.88 24.62,59.53 55,59.53 30.38,0 55,-26.65 55,-59.53 0,-32.88 -24.62,-59.53 -55,-59.53"
           id="path19" /></g></g></g><style
     type="text/css"
     id="style1076">
	.st0{fill:#66D8D0;}
</style></svg>
